<?xml version="1.0" encoding="utf-8" standalone="no"?>
<!DOCTYPE svg PUBLIC "-//W3C//DTD SVG 1.1//EN"
  "http://www.w3.org/Graphics/SVG/1.1/DTD/svg11.dtd">
<svg height="345.6pt" version="1.1" viewBox="0 0 460.8 345.6" width="460.8pt" xmlns="http://www.w3.org/2000/svg" xmlns:xlink="http://www.w3.org/1999/xlink">
 <metadata>
  <rdf:RDF xmlns:cc="http://creativecommons.org/ns#" xmlns:dc="http://purl.org/dc/elements/1.1/" xmlns:rdf="http://www.w3.org/1999/02/22-rdf-syntax-ns#">
   <cc:Work>
    <dc:type rdf:resource="http://purl.org/dc/dcmitype/StillImage"/>
    <dc:date>2021-06-07T21:25:02.882369</dc:date>
    <dc:format>image/svg+xml</dc:format>
    <dc:creator>
     <cc:Agent>
      <dc:title>Matplotlib v3.4.2, https://matplotlib.org/</dc:title>
     </cc:Agent>
    </dc:creator>
   </cc:Work>
  </rdf:RDF>
 </metadata>
 <defs>
  <style type="text/css">*{stroke-linecap:butt;stroke-linejoin:round;}</style>
 </defs>
 <g id="figure_1">
  <g id="patch_1">
   <path d="M 0 345.6
L 460.8 345.6
L 460.8 0
L 0 0
z
" style="fill:#ffffff;"/>
  </g>
  <g id="axes_1">
   <g id="patch_2">
    <path d="M 57.6 276.48
L 414.72 276.48
L 414.72 41.472
L 57.6 41.472
z
" style="fill:#ffffff;"/>
   </g>
   <g id="PolyCollection_1">
    <defs>
     <path d="M 73.832727 -79.802182
L 73.832727 -79.814
L 75.147118 -79.817546
L 75.804314 -79.817546
L 77.118704 -79.817546
L 77.7759 -79.819909
L 79.090291 -79.819909
L 79.747486 -79.818727
L 82.376268 -79.818727
L 83.033463 -79.815182
L 86.319441 -79.815182
L 86.976636 -79.815182
L 88.291027 -79.812818
L 90.919809 -79.812818
L 91.577004 -79.815182
L 92.234199 -79.821091
L 92.891395 -79.848273
L 93.54859 -79.903819
L 94.205786 -79.929819
L 94.862981 -79.968819
L 95.520177 -80.016093
L 96.177372 -80.111821
L 96.834568 -80.290276
L 97.491763 -80.481732
L 98.148958 -80.644825
L 98.806154 -80.785462
L 99.463349 -80.864645
L 100.120545 -81.22392
L 100.77774 -81.829016
L 101.434936 -82.535748
L 102.092131 -83.488301
L 102.749326 -84.990403
L 103.406522 -86.363687
L 104.063717 -87.400149
L 104.720913 -89.403346
L 105.378108 -92.276368
L 106.035304 -95.64103
L 106.692499 -99.263331
L 107.349695 -102.327809
L 108.00689 -104.755282
L 108.664085 -106.27393
L 109.321281 -108.271218
L 109.978476 -110.463508
L 110.635672 -112.918163
L 111.292867 -115.099816
L 111.950063 -117.377197
L 112.607258 -118.991573
L 113.264453 -119.952398
L 113.921649 -120.408584
L 114.578844 -121.799594
L 115.23604 -122.477963
L 115.893235 -123.240242
L 116.550431 -123.480153
L 117.207626 -123.027513
L 117.864821 -122.399963
L 118.522017 -121.870504
L 119.179212 -120.849405
L 119.836408 -119.697124
L 120.493603 -117.756563
L 121.150799 -114.421447
L 121.807994 -112.704252
L 122.46519 -111.897064
L 123.122385 -109.451863
L 123.77958 -106.227839
L 124.436776 -103.91973
L 125.093971 -102.159989
L 125.751167 -101.790078
L 126.408362 -100.868252
L 127.065558 -100.292702
L 127.722753 -100.430976
L 128.379948 -100.095337
L 129.037144 -99.106148
L 129.694339 -97.537863
L 130.351535 -96.189398
L 131.00873 -95.202573
L 131.665926 -94.407203
L 132.323121 -93.698106
L 132.980317 -92.854282
L 133.637512 -91.60509
L 134.294707 -90.859357
L 134.951903 -89.694076
L 135.609098 -88.922343
L 136.266294 -88.593795
L 136.923489 -88.136427
L 137.580685 -87.689697
L 138.23788 -87.440331
L 138.895075 -87.133056
L 139.552271 -87.206329
L 140.209466 -87.273694
L 140.866662 -87.176784
L 141.523857 -87.127147
L 142.181053 -86.847054
L 142.838248 -86.481869
L 143.495444 -86.020957
L 144.152639 -85.721954
L 144.809834 -85.463134
L 145.46703 -85.431225
L 146.124225 -85.258678
L 146.781421 -85.112132
L 147.438616 -85.01404
L 148.095812 -84.549582
L 148.753007 -84.313216
L 149.410202 -84.170215
L 150.067398 -84.054396
L 150.724593 -83.90194
L 151.381789 -83.768394
L 152.038984 -83.554483
L 152.69618 -83.68803
L 153.353375 -83.59112
L 154.01057 -83.634848
L 154.667766 -83.588756
L 155.324961 -83.263754
L 155.982157 -82.893842
L 156.639352 -82.714204
L 157.296548 -82.713022
L 157.953743 -82.703568
L 158.610939 -82.598385
L 159.268134 -82.580658
L 159.925329 -82.768568
L 160.582525 -82.912751
L 161.23972 -82.938751
L 161.896916 -82.643294
L 162.554111 -82.541657
L 163.211307 -82.558203
L 163.868502 -82.567658
L 164.525697 -82.52393
L 165.182893 -82.65984
L 165.840088 -83.208208
L 166.497284 -83.625393
L 167.154479 -84.309671
L 167.811675 -84.575582
L 168.46887 -84.672492
L 169.126066 -84.937221
L 169.783261 -84.947858
L 170.440456 -84.384126
L 171.097652 -84.313216
L 171.754847 -83.896031
L 172.412043 -83.665575
L 173.069238 -83.600575
L 173.726434 -83.52021
L 174.383629 -83.412664
L 175.040824 -83.387846
L 175.69802 -83.270845
L 176.355215 -83.092389
L 177.012411 -83.047479
L 177.669606 -82.980115
L 178.326802 -82.867842
L 178.983997 -82.787477
L 179.641192 -82.752023
L 180.298388 -82.697659
L 180.955583 -82.697659
L 181.612779 -82.682295
L 182.269974 -82.669295
L 182.92717 -82.674022
L 183.584365 -82.759114
L 184.241561 -82.857205
L 184.898756 -83.010843
L 185.555951 -83.124298
L 186.213147 -83.302754
L 186.870342 -83.370118
L 187.527538 -83.524938
L 188.184733 -83.59112
L 188.841929 -83.781394
L 189.499124 -83.94685
L 190.156319 -84.280125
L 190.813515 -84.414854
L 191.47071 -84.442036
L 192.127906 -84.527127
L 192.785101 -84.80722
L 193.442297 -85.051858
L 194.099492 -85.236223
L 194.756688 -85.374497
L 195.413883 -85.39577
L 196.071078 -85.508044
L 196.728274 -85.827137
L 197.385469 -86.050502
L 198.042665 -86.295141
L 198.69986 -86.665053
L 199.357056 -86.765508
L 200.014251 -86.942782
L 200.671446 -86.958146
L 201.328642 -87.320967
L 201.985837 -87.61406
L 202.643033 -88.119882
L 203.300228 -88.503976
L 203.957424 -88.941252
L 204.614619 -88.993252
L 205.271815 -89.197708
L 205.92901 -89.723621
L 206.586205 -90.13017
L 207.243401 -90.386627
L 207.900596 -90.542628
L 208.557792 -90.872358
L 209.214987 -91.060268
L 209.872183 -91.146541
L 210.529378 -91.007086
L 211.186573 -90.940903
L 211.843769 -90.77072
L 212.500964 -90.672629
L 213.15816 -90.358263
L 213.815355 -90.258989
L 214.472551 -90.22708
L 215.129746 -89.938714
L 215.786941 -89.746076
L 216.444137 -89.51562
L 217.101332 -89.490801
L 217.758528 -89.617257
L 218.415723 -89.943441
L 219.072919 -89.990714
L 219.730114 -90.250716
L 220.38731 -90.327535
L 221.044505 -90.721084
L 221.7017 -90.807357
L 222.358896 -90.99054
L 223.016091 -91.133541
L 223.673287 -91.347452
L 224.330482 -91.434907
L 224.987678 -92.170004
L 225.644873 -92.695917
L 226.302068 -93.596469
L 226.959264 -94.212201
L 227.616459 -94.408385
L 228.273655 -94.326839
L 228.93085 -94.533658
L 229.588046 -94.306747
L 230.245241 -94.319748
L 230.902437 -94.370566
L 231.559632 -94.554931
L 232.216827 -95.019389
L 232.874023 -95.235664
L 233.531218 -95.430665
L 234.188414 -95.852577
L 234.845609 -96.473037
L 235.502805 -97.099405
L 236.16 -97.796683
L 236.817195 -98.287142
L 237.474391 -98.618053
L 238.131586 -99.315331
L 238.788782 -100.991162
L 239.445977 -103.067633
L 240.103173 -105.131103
L 240.760368 -107.655486
L 241.417563 -109.347863
L 242.074759 -110.673873
L 242.731954 -112.777525
L 243.38915 -114.881178
L 244.046345 -118.143021
L 244.703541 -121.969778
L 245.360736 -125.417168
L 246.017932 -127.858823
L 246.675127 -129.521654
L 247.332322 -132.219765
L 247.989518 -137.033347
L 248.646713 -143.119758
L 249.303909 -150.198903
L 249.961104 -157.367867
L 250.6183 -163.748552
L 251.275495 -168.219404
L 251.93269 -174.778546
L 252.589886 -182.487605
L 253.247081 -190.581939
L 253.904277 -197.620902
L 254.561472 -203.977951
L 255.218668 -207.425341
L 255.875863 -211.053551
L 256.533059 -214.870853
L 257.190254 -218.868974
L 257.847449 -221.197174
L 258.504645 -224.041832
L 259.16184 -226.605215
L 259.819036 -228.869596
L 260.476231 -228.441775
L 261.133427 -229.269054
L 261.790622 -229.594056
L 262.447817 -231.338433
L 263.105013 -232.805081
L 263.762208 -232.548624
L 264.419404 -232.402078
L 265.076599 -230.850339
L 265.733795 -229.367146
L 266.39099 -230.227516
L 267.048185 -231.423525
L 267.705381 -231.7048
L 268.362576 -232.81099
L 269.019772 -231.601981
L 269.676967 -231.579526
L 270.334163 -232.043984
L 270.991358 -230.951976
L 271.648554 -229.030325
L 272.305749 -227.866225
L 272.962944 -225.333569
L 273.62014 -225.522662
L 274.277335 -225.469479
L 274.934531 -223.372918
L 275.591726 -223.153098
L 276.248922 -224.473199
L 276.906117 -226.475214
L 277.563312 -228.979506
L 278.220508 -229.889513
L 278.877703 -231.609072
L 279.534899 -235.317646
L 280.192094 -239.537951
L 280.84929 -244.830173
L 281.506485 -250.273669
L 282.163681 -256.169805
L 282.820876 -261.979668
L 283.478071 -264.642325
L 284.135267 -267.733985
L 284.792462 -272.592477
L 285.449658 -276.948692
L 286.106853 -280.438628
L 286.764049 -283.416832
L 287.421244 -284.707388
L 288.078439 -286.393855
L 288.735635 -287.893594
L 289.39283 -290.332885
L 290.050026 -293.445818
L 290.707221 -280.654902
L 291.364417 -261.033024
L 292.021612 -249.023296
L 292.678808 -244.152986
L 293.336003 -238.705944
L 293.993198 -237.023022
L 294.650394 -233.59336
L 295.307589 -231.754437
L 295.964785 -228.308228
L 296.62198 -226.466942
L 297.279176 -225.295751
L 297.936371 -223.565556
L 298.593566 -223.376463
L 299.250762 -219.699799
L 299.907957 -227.39704
L 300.565153 -244.27826
L 301.222348 -252.157502
L 301.879544 -251.750953
L 302.536739 -250.891765
L 303.193934 -245.233176
L 303.85113 -240.655959
L 304.508325 -233.937271
L 305.165521 -226.57567
L 305.822716 -222.74064
L 306.479912 -220.535351
L 307.137107 -215.370766
L 307.794303 -210.481546
L 308.451498 -205.049868
L 309.108693 -200.744472
L 309.765889 -196.845624
L 310.423084 -194.663971
L 311.08028 -192.787229
L 311.737475 -189.924843
L 312.394671 -186.406544
L 313.051866 -182.060965
L 313.709061 -177.995479
L 314.366257 -175.102366
L 315.023452 -173.171261
L 315.680648 -172.210435
L 316.337843 -171.1657
L 316.995039 -167.411035
L 317.652234 -164.561649
L 318.30943 -162.372905
L 318.966625 -159.3557
L 319.62382 -157.507322
L 320.281016 -156.188403
L 320.938211 -154.21357
L 321.595407 -150.406904
L 322.252602 -146.679421
L 322.909798 -144.133765
L 323.566993 -142.374025
L 324.224188 -139.108636
L 324.881384 -139.886278
L 325.538579 -140.134462
L 326.195775 -140.311736
L 326.85297 -140.002097
L 327.510166 -139.853187
L 328.167361 -140.08128
L 328.824556 -142.64939
L 329.481752 -141.812657
L 330.138947 -141.822111
L 330.796143 -142.946029
L 331.453338 -144.465859
L 332.110534 -145.286047
L 332.767729 -146.129872
L 333.424925 -145.983325
L 334.08212 -146.472602
L 334.739315 -146.811786
L 335.396511 -147.709975
L 336.053706 -147.72652
L 336.710902 -147.958158
L 337.368097 -148.241797
L 338.025293 -148.980439
L 338.682488 -148.869347
L 339.339683 -149.053712
L 339.996879 -149.716717
L 340.654074 -152.902924
L 341.31127 -156.451951
L 341.968465 -159.822522
L 342.625661 -162.416633
L 343.282856 -164.189374
L 343.940052 -166.5093
L 344.597247 -171.569885
L 345.254442 -176.736833
L 345.911638 -181.00323
L 346.568833 -184.768531
L 347.226029 -188.010283
L 347.883224 -189.313839
L 348.54042 -191.809858
L 349.197615 -196.197982
L 349.85481 -201.26093
L 350.512006 -207.376886
L 351.169201 -212.481198
L 351.826397 -215.487767
L 352.483592 -217.428327
L 353.140788 -219.880618
L 353.797983 -220.92299
L 354.455179 -222.527911
L 355.112374 -221.967725
L 355.769569 -216.624684
L 356.426765 -210.565456
L 357.08396 -210.043088
L 357.741156 -205.386689
L 358.398351 -194.900336
L 359.055547 -194.582425
L 359.712742 -199.6891
L 360.369937 -208.887261
L 361.027133 -217.674147
L 361.684328 -219.682071
L 362.341524 -225.666844
L 362.998719 -243.67671
L 363.655915 -249.416845
L 364.31311 -248.596656
L 364.970305 -248.2882
L 365.627501 -247.845014
L 366.284696 -247.808378
L 366.941892 -248.050652
L 367.599087 -249.493663
L 368.256283 -250.530126
L 368.913478 -251.017039
L 369.570674 -250.937856
L 370.227869 -251.319586
L 370.885064 -251.190767
L 371.54226 -251.060766
L 372.199455 -247.847378
L 372.856651 -242.613065
L 373.513846 -237.846756
L 374.171042 -233.362903
L 374.828237 -229.882422
L 375.485432 -227.445494
L 376.142628 -223.827921
L 376.799823 -218.779155
L 377.457019 -213.907664
L 378.114214 -208.857716
L 378.77141 -204.49441
L 379.428605 -200.895746
L 380.085801 -199.315643
L 380.742996 -197.272263
L 381.400191 -192.321589
L 382.057387 -187.06364
L 382.714582 -178.191663
L 383.371778 -168.930864
L 384.028973 -164.857106
L 384.686169 -163.619733
L 385.343364 -161.077623
L 386.000559 -155.817309
L 386.657755 -149.727354
L 387.31495 -148.253615
L 387.972146 -148.190978
L 388.629341 -144.923226
L 389.286537 -142.234569
L 389.943732 -138.133629
L 390.600927 -127.857641
L 391.258123 -122.891603
L 391.915318 -121.001861
L 392.572514 -118.125294
L 393.229709 -115.602092
L 393.886905 -115.121089
L 394.5441 -115.858549
L 395.201296 -117.562744
L 395.858491 -114.458084
L 396.515686 -109.891503
L 397.172882 -106.394476
L 397.830077 -104.614645
L 398.487273 -103.676274
L 398.487273 -79.802182
L 398.487273 -79.802182
L 397.830077 -79.802182
L 397.172882 -79.802182
L 396.515686 -79.802182
L 395.858491 -79.802182
L 395.201296 -79.802182
L 394.5441 -79.802182
L 393.886905 -79.802182
L 393.229709 -79.802182
L 392.572514 -79.802182
L 391.915318 -79.802182
L 391.258123 -79.802182
L 390.600927 -79.802182
L 389.943732 -79.802182
L 389.286537 -79.802182
L 388.629341 -79.802182
L 387.972146 -79.802182
L 387.31495 -79.802182
L 386.657755 -79.802182
L 386.000559 -79.802182
L 385.343364 -79.802182
L 384.686169 -79.802182
L 384.028973 -79.802182
L 383.371778 -79.802182
L 382.714582 -79.802182
L 382.057387 -79.802182
L 381.400191 -79.802182
L 380.742996 -79.802182
L 380.085801 -79.802182
L 379.428605 -79.802182
L 378.77141 -79.802182
L 378.114214 -79.802182
L 377.457019 -79.802182
L 376.799823 -79.802182
L 376.142628 -79.802182
L 375.485432 -79.802182
L 374.828237 -79.802182
L 374.171042 -79.802182
L 373.513846 -79.802182
L 372.856651 -79.802182
L 372.199455 -79.802182
L 371.54226 -79.802182
L 370.885064 -79.802182
L 370.227869 -79.802182
L 369.570674 -79.802182
L 368.913478 -79.802182
L 368.256283 -79.802182
L 367.599087 -79.802182
L 366.941892 -79.802182
L 366.284696 -79.802182
L 365.627501 -79.802182
L 364.970305 -79.802182
L 364.31311 -79.802182
L 363.655915 -79.802182
L 362.998719 -79.802182
L 362.341524 -79.802182
L 361.684328 -79.802182
L 361.027133 -79.802182
L 360.369937 -79.802182
L 359.712742 -79.802182
L 359.055547 -79.802182
L 358.398351 -79.802182
L 357.741156 -79.802182
L 357.08396 -79.802182
L 356.426765 -79.802182
L 355.769569 -79.802182
L 355.112374 -79.802182
L 354.455179 -79.802182
L 353.797983 -79.802182
L 353.140788 -79.802182
L 352.483592 -79.802182
L 351.826397 -79.802182
L 351.169201 -79.802182
L 350.512006 -79.802182
L 349.85481 -79.802182
L 349.197615 -79.802182
L 348.54042 -79.802182
L 347.883224 -79.802182
L 347.226029 -79.802182
L 346.568833 -79.802182
L 345.911638 -79.802182
L 345.254442 -79.802182
L 344.597247 -79.802182
L 343.940052 -79.802182
L 343.282856 -79.802182
L 342.625661 -79.802182
L 341.968465 -79.802182
L 341.31127 -79.802182
L 340.654074 -79.802182
L 339.996879 -79.802182
L 339.339683 -79.802182
L 338.682488 -79.802182
L 338.025293 -79.802182
L 337.368097 -79.802182
L 336.710902 -79.802182
L 336.053706 -79.802182
L 335.396511 -79.802182
L 334.739315 -79.802182
L 334.08212 -79.802182
L 333.424925 -79.802182
L 332.767729 -79.802182
L 332.110534 -79.802182
L 331.453338 -79.802182
L 330.796143 -79.802182
L 330.138947 -79.802182
L 329.481752 -79.802182
L 328.824556 -79.802182
L 328.167361 -79.802182
L 327.510166 -79.802182
L 326.85297 -79.802182
L 326.195775 -79.802182
L 325.538579 -79.802182
L 324.881384 -79.802182
L 324.224188 -79.802182
L 323.566993 -79.802182
L 322.909798 -79.802182
L 322.252602 -79.802182
L 321.595407 -79.802182
L 320.938211 -79.802182
L 320.281016 -79.802182
L 319.62382 -79.802182
L 318.966625 -79.802182
L 318.30943 -79.802182
L 317.652234 -79.802182
L 316.995039 -79.802182
L 316.337843 -79.802182
L 315.680648 -79.802182
L 315.023452 -79.802182
L 314.366257 -79.802182
L 313.709061 -79.802182
L 313.051866 -79.802182
L 312.394671 -79.802182
L 311.737475 -79.802182
L 311.08028 -79.802182
L 310.423084 -79.802182
L 309.765889 -79.802182
L 309.108693 -79.802182
L 308.451498 -79.802182
L 307.794303 -79.802182
L 307.137107 -79.802182
L 306.479912 -79.802182
L 305.822716 -79.802182
L 305.165521 -79.802182
L 304.508325 -79.802182
L 303.85113 -79.802182
L 303.193934 -79.802182
L 302.536739 -79.802182
L 301.879544 -79.802182
L 301.222348 -79.802182
L 300.565153 -79.802182
L 299.907957 -79.802182
L 299.250762 -79.802182
L 298.593566 -79.802182
L 297.936371 -79.802182
L 297.279176 -79.802182
L 296.62198 -79.802182
L 295.964785 -79.802182
L 295.307589 -79.802182
L 294.650394 -79.802182
L 293.993198 -79.802182
L 293.336003 -79.802182
L 292.678808 -79.802182
L 292.021612 -79.802182
L 291.364417 -79.802182
L 290.707221 -79.802182
L 290.050026 -79.802182
L 289.39283 -79.802182
L 288.735635 -79.802182
L 288.078439 -79.802182
L 287.421244 -79.802182
L 286.764049 -79.802182
L 286.106853 -79.802182
L 285.449658 -79.802182
L 284.792462 -79.802182
L 284.135267 -79.802182
L 283.478071 -79.802182
L 282.820876 -79.802182
L 282.163681 -79.802182
L 281.506485 -79.802182
L 280.84929 -79.802182
L 280.192094 -79.802182
L 279.534899 -79.802182
L 278.877703 -79.802182
L 278.220508 -79.802182
L 277.563312 -79.802182
L 276.906117 -79.802182
L 276.248922 -79.802182
L 275.591726 -79.802182
L 274.934531 -79.802182
L 274.277335 -79.802182
L 273.62014 -79.802182
L 272.962944 -79.802182
L 272.305749 -79.802182
L 271.648554 -79.802182
L 270.991358 -79.802182
L 270.334163 -79.802182
L 269.676967 -79.802182
L 269.019772 -79.802182
L 268.362576 -79.802182
L 267.705381 -79.802182
L 267.048185 -79.802182
L 266.39099 -79.802182
L 265.733795 -79.802182
L 265.076599 -79.802182
L 264.419404 -79.802182
L 263.762208 -79.802182
L 263.105013 -79.802182
L 262.447817 -79.802182
L 261.790622 -79.802182
L 261.133427 -79.802182
L 260.476231 -79.802182
L 259.819036 -79.802182
L 259.16184 -79.802182
L 258.504645 -79.802182
L 257.847449 -79.802182
L 257.190254 -79.802182
L 256.533059 -79.802182
L 255.875863 -79.802182
L 255.218668 -79.802182
L 254.561472 -79.802182
L 253.904277 -79.802182
L 253.247081 -79.802182
L 252.589886 -79.802182
L 251.93269 -79.802182
L 251.275495 -79.802182
L 250.6183 -79.802182
L 249.961104 -79.802182
L 249.303909 -79.802182
L 248.646713 -79.802182
L 247.989518 -79.802182
L 247.332322 -79.802182
L 246.675127 -79.802182
L 246.017932 -79.802182
L 245.360736 -79.802182
L 244.703541 -79.802182
L 244.046345 -79.802182
L 243.38915 -79.802182
L 242.731954 -79.802182
L 242.074759 -79.802182
L 241.417563 -79.802182
L 240.760368 -79.802182
L 240.103173 -79.802182
L 239.445977 -79.802182
L 238.788782 -79.802182
L 238.131586 -79.802182
L 237.474391 -79.802182
L 236.817195 -79.802182
L 236.16 -79.802182
L 235.502805 -79.802182
L 234.845609 -79.802182
L 234.188414 -79.802182
L 233.531218 -79.802182
L 232.874023 -79.802182
L 232.216827 -79.802182
L 231.559632 -79.802182
L 230.902437 -79.802182
L 230.245241 -79.802182
L 229.588046 -79.802182
L 228.93085 -79.802182
L 228.273655 -79.802182
L 227.616459 -79.802182
L 226.959264 -79.802182
L 226.302068 -79.802182
L 225.644873 -79.802182
L 224.987678 -79.802182
L 224.330482 -79.802182
L 223.673287 -79.802182
L 223.016091 -79.802182
L 222.358896 -79.802182
L 221.7017 -79.802182
L 221.044505 -79.802182
L 220.38731 -79.802182
L 219.730114 -79.802182
L 219.072919 -79.802182
L 218.415723 -79.802182
L 217.758528 -79.802182
L 217.101332 -79.802182
L 216.444137 -79.802182
L 215.786941 -79.802182
L 215.129746 -79.802182
L 214.472551 -79.802182
L 213.815355 -79.802182
L 213.15816 -79.802182
L 212.500964 -79.802182
L 211.843769 -79.802182
L 211.186573 -79.802182
L 210.529378 -79.802182
L 209.872183 -79.802182
L 209.214987 -79.802182
L 208.557792 -79.802182
L 207.900596 -79.802182
L 207.243401 -79.802182
L 206.586205 -79.802182
L 205.92901 -79.802182
L 205.271815 -79.802182
L 204.614619 -79.802182
L 203.957424 -79.802182
L 203.300228 -79.802182
L 202.643033 -79.802182
L 201.985837 -79.802182
L 201.328642 -79.802182
L 200.671446 -79.802182
L 200.014251 -79.802182
L 199.357056 -79.802182
L 198.69986 -79.802182
L 198.042665 -79.802182
L 197.385469 -79.802182
L 196.728274 -79.802182
L 196.071078 -79.802182
L 195.413883 -79.802182
L 194.756688 -79.802182
L 194.099492 -79.802182
L 193.442297 -79.802182
L 192.785101 -79.802182
L 192.127906 -79.802182
L 191.47071 -79.802182
L 190.813515 -79.802182
L 190.156319 -79.802182
L 189.499124 -79.802182
L 188.841929 -79.802182
L 188.184733 -79.802182
L 187.527538 -79.802182
L 186.870342 -79.802182
L 186.213147 -79.802182
L 185.555951 -79.802182
L 184.898756 -79.802182
L 184.241561 -79.802182
L 183.584365 -79.802182
L 182.92717 -79.802182
L 182.269974 -79.802182
L 181.612779 -79.802182
L 180.955583 -79.802182
L 180.298388 -79.802182
L 179.641192 -79.802182
L 178.983997 -79.802182
L 178.326802 -79.802182
L 177.669606 -79.802182
L 177.012411 -79.802182
L 176.355215 -79.802182
L 175.69802 -79.802182
L 175.040824 -79.802182
L 174.383629 -79.802182
L 173.726434 -79.802182
L 173.069238 -79.802182
L 172.412043 -79.802182
L 171.754847 -79.802182
L 171.097652 -79.802182
L 170.440456 -79.802182
L 169.783261 -79.802182
L 169.126066 -79.802182
L 168.46887 -79.802182
L 167.811675 -79.802182
L 167.154479 -79.802182
L 166.497284 -79.802182
L 165.840088 -79.802182
L 165.182893 -79.802182
L 164.525697 -79.802182
L 163.868502 -79.802182
L 163.211307 -79.802182
L 162.554111 -79.802182
L 161.896916 -79.802182
L 161.23972 -79.802182
L 160.582525 -79.802182
L 159.925329 -79.802182
L 159.268134 -79.802182
L 158.610939 -79.802182
L 157.953743 -79.802182
L 157.296548 -79.802182
L 156.639352 -79.802182
L 155.982157 -79.802182
L 155.324961 -79.802182
L 154.667766 -79.802182
L 154.01057 -79.802182
L 153.353375 -79.802182
L 152.69618 -79.802182
L 152.038984 -79.802182
L 151.381789 -79.802182
L 150.724593 -79.802182
L 150.067398 -79.802182
L 149.410202 -79.802182
L 148.753007 -79.802182
L 148.095812 -79.802182
L 147.438616 -79.802182
L 146.781421 -79.802182
L 146.124225 -79.802182
L 145.46703 -79.802182
L 144.809834 -79.802182
L 144.152639 -79.802182
L 143.495444 -79.802182
L 142.838248 -79.802182
L 142.181053 -79.802182
L 141.523857 -79.802182
L 140.866662 -79.802182
L 140.209466 -79.802182
L 139.552271 -79.802182
L 138.895075 -79.802182
L 138.23788 -79.802182
L 137.580685 -79.802182
L 136.923489 -79.802182
L 136.266294 -79.802182
L 135.609098 -79.802182
L 134.951903 -79.802182
L 134.294707 -79.802182
L 133.637512 -79.802182
L 132.980317 -79.802182
L 132.323121 -79.802182
L 131.665926 -79.802182
L 131.00873 -79.802182
L 130.351535 -79.802182
L 129.694339 -79.802182
L 129.037144 -79.802182
L 128.379948 -79.802182
L 127.722753 -79.802182
L 127.065558 -79.802182
L 126.408362 -79.802182
L 125.751167 -79.802182
L 125.093971 -79.802182
L 124.436776 -79.802182
L 123.77958 -79.802182
L 123.122385 -79.802182
L 122.46519 -79.802182
L 121.807994 -79.802182
L 121.150799 -79.802182
L 120.493603 -79.802182
L 119.836408 -79.802182
L 119.179212 -79.802182
L 118.522017 -79.802182
L 117.864821 -79.802182
L 117.207626 -79.802182
L 116.550431 -79.802182
L 115.893235 -79.802182
L 115.23604 -79.802182
L 114.578844 -79.802182
L 113.921649 -79.802182
L 113.264453 -79.802182
L 112.607258 -79.802182
L 111.950063 -79.802182
L 111.292867 -79.802182
L 110.635672 -79.802182
L 109.978476 -79.802182
L 109.321281 -79.802182
L 108.664085 -79.802182
L 108.00689 -79.802182
L 107.349695 -79.802182
L 106.692499 -79.802182
L 106.035304 -79.802182
L 105.378108 -79.802182
L 104.720913 -79.802182
L 104.063717 -79.802182
L 103.406522 -79.802182
L 102.749326 -79.802182
L 102.092131 -79.802182
L 101.434936 -79.802182
L 100.77774 -79.802182
L 100.120545 -79.802182
L 99.463349 -79.802182
L 98.806154 -79.802182
L 98.148958 -79.802182
L 97.491763 -79.802182
L 96.834568 -79.802182
L 96.177372 -79.802182
L 95.520177 -79.802182
L 94.862981 -79.802182
L 94.205786 -79.802182
L 93.54859 -79.802182
L 92.891395 -79.802182
L 92.234199 -79.802182
L 91.577004 -79.802182
L 90.919809 -79.802182
L 88.291027 -79.802182
L 86.976636 -79.802182
L 86.319441 -79.802182
L 83.033463 -79.802182
L 82.376268 -79.802182
L 79.747486 -79.802182
L 79.090291 -79.802182
L 77.7759 -79.802182
L 77.118704 -79.802182
L 75.804314 -79.802182
L 75.147118 -79.802182
L 73.832727 -79.802182
z
" id="m7f2d33f9cf" style="stroke:#ff9d2e;stroke-opacity:0.45;"/>
    </defs>
    <g clip-path="url(#pf6ff27e602)">
     <use style="fill:#ff9d2e;fill-opacity:0.45;stroke:#ff9d2e;stroke-opacity:0.45;" x="0" xlink:href="#m7f2d33f9cf" y="345.6"/>
    </g>
   </g>
   <g id="PolyCollection_2">
    <defs>
     <path d="M 73.832727 -79.802182
L 73.832727 -79.802182
L 75.147118 -79.802182
L 75.804314 -79.802182
L 77.118704 -79.802182
L 77.7759 -79.802182
L 79.090291 -79.802182
L 79.747486 -79.802182
L 82.376268 -79.802182
L 83.033463 -79.802182
L 86.319441 -79.802182
L 86.976636 -79.802182
L 88.291027 -79.803364
L 90.919809 -79.803364
L 91.577004 -79.803364
L 92.234199 -79.803364
L 92.891395 -79.803364
L 93.54859 -79.803364
L 94.205786 -79.803364
L 94.862981 -79.802182
L 95.520177 -79.802182
L 96.177372 -79.802182
L 96.834568 -79.804545
L 97.491763 -79.805727
L 98.148958 -79.810455
L 98.806154 -79.815182
L 99.463349 -79.816364
L 100.120545 -79.824637
L 100.77774 -79.829364
L 101.434936 -79.838818
L 102.092131 -79.851819
L 102.749326 -79.866
L 103.406522 -79.88491
L 104.063717 -79.901455
L 104.720913 -79.934546
L 105.378108 -79.980638
L 106.035304 -80.043275
L 106.692499 -80.10473
L 107.349695 -80.198094
L 108.00689 -80.286731
L 108.664085 -80.361186
L 109.321281 -80.474642
L 109.978476 -80.62237
L 110.635672 -80.805553
L 111.292867 -81.0431
L 111.950063 -81.241647
L 112.607258 -81.422467
L 113.264453 -81.526468
L 113.921649 -81.688378
L 114.578844 -81.937744
L 115.23604 -82.124472
L 115.893235 -82.301746
L 116.550431 -82.456566
L 117.207626 -82.451838
L 117.864821 -82.473111
L 118.522017 -82.503839
L 119.179212 -82.458929
L 119.836408 -82.417565
L 120.493603 -82.312383
L 121.150799 -82.092563
L 121.807994 -82.041744
L 122.46519 -82.020472
L 123.122385 -81.865652
L 123.77958 -81.721469
L 124.436776 -81.589105
L 125.093971 -81.428376
L 125.751167 -81.388194
L 126.408362 -81.29483
L 127.065558 -81.239284
L 127.722753 -81.222738
L 128.379948 -81.124646
L 129.037144 -81.002918
L 129.694339 -80.917827
L 130.351535 -80.811462
L 131.00873 -80.761826
L 131.665926 -80.656643
L 132.323121 -80.569188
L 132.980317 -80.506551
L 133.637512 -80.427368
L 134.294707 -80.371823
L 134.951903 -80.329277
L 135.609098 -80.276095
L 136.266294 -80.259549
L 136.923489 -80.219367
L 137.580685 -80.174457
L 138.23788 -80.152003
L 138.895075 -80.126002
L 139.552271 -80.122457
L 140.209466 -80.108275
L 140.866662 -80.105911
L 141.523857 -80.087002
L 142.181053 -80.071638
L 142.838248 -80.056275
L 143.495444 -80.022002
L 144.152639 -80.005456
L 144.809834 -80.001911
L 145.46703 -79.99482
L 146.124225 -79.992456
L 146.781421 -79.986547
L 147.438616 -79.98182
L 148.095812 -79.966456
L 148.753007 -79.948728
L 149.410202 -79.938092
L 150.067398 -79.934546
L 150.724593 -79.922728
L 151.381789 -79.908546
L 152.038984 -79.895546
L 152.69618 -79.89791
L 153.353375 -79.889637
L 154.01057 -79.881364
L 154.667766 -79.879001
L 155.324961 -79.869546
L 155.982157 -79.861273
L 156.639352 -79.860091
L 157.296548 -79.857728
L 157.953743 -79.853
L 158.610939 -79.854182
L 159.268134 -79.855364
L 159.925329 -79.853
L 160.582525 -79.844728
L 161.23972 -79.843546
L 161.896916 -79.836455
L 162.554111 -79.843546
L 163.211307 -79.838818
L 163.868502 -79.841182
L 164.525697 -79.842364
L 165.182893 -79.854182
L 165.840088 -79.850637
L 166.497284 -79.853
L 167.154479 -79.850637
L 167.811675 -79.854182
L 168.46887 -79.850637
L 169.126066 -79.847091
L 169.783261 -79.842364
L 170.440456 -79.836455
L 171.097652 -79.838818
L 171.754847 -79.835273
L 172.412043 -79.832909
L 173.069238 -79.829364
L 173.726434 -79.832909
L 174.383629 -79.825818
L 175.040824 -79.829364
L 175.69802 -79.828182
L 176.355215 -79.828182
L 177.012411 -79.828182
L 177.669606 -79.832909
L 178.326802 -79.835273
L 178.983997 -79.838818
L 179.641192 -79.84
L 180.298388 -79.841182
L 180.955583 -79.837637
L 181.612779 -79.835273
L 182.269974 -79.831727
L 182.92717 -79.830546
L 183.584365 -79.828182
L 184.241561 -79.828182
L 184.898756 -79.830546
L 185.555951 -79.834091
L 186.213147 -79.834091
L 186.870342 -79.837637
L 187.527538 -79.836455
L 188.184733 -79.838818
L 188.841929 -79.842364
L 189.499124 -79.837637
L 190.156319 -79.842364
L 190.813515 -79.845909
L 191.47071 -79.841182
L 192.127906 -79.844728
L 192.785101 -79.844728
L 193.442297 -79.838818
L 194.099492 -79.841182
L 194.756688 -79.843546
L 195.413883 -79.841182
L 196.071078 -79.842364
L 196.728274 -79.843546
L 197.385469 -79.844728
L 198.042665 -79.843546
L 198.69986 -79.844728
L 199.357056 -79.836455
L 200.014251 -79.837637
L 200.671446 -79.838818
L 201.328642 -79.831727
L 201.985837 -79.828182
L 202.643033 -79.836455
L 203.300228 -79.831727
L 203.957424 -79.831727
L 204.614619 -79.834091
L 205.271815 -79.837637
L 205.92901 -79.844728
L 206.586205 -79.853
L 207.243401 -79.842364
L 207.900596 -79.848273
L 208.557792 -79.845909
L 209.214987 -79.843546
L 209.872183 -79.837637
L 210.529378 -79.834091
L 211.186573 -79.825818
L 211.843769 -79.827
L 212.500964 -79.819909
L 213.15816 -79.819909
L 213.815355 -79.819909
L 214.472551 -79.823455
L 215.129746 -79.822273
L 215.786941 -79.823455
L 216.444137 -79.824637
L 217.101332 -79.831727
L 217.758528 -79.836455
L 218.415723 -79.843546
L 219.072919 -79.844728
L 219.730114 -79.845909
L 220.38731 -79.863637
L 221.044505 -79.870728
L 221.7017 -79.869546
L 222.358896 -79.875455
L 223.016091 -79.875455
L 223.673287 -79.880182
L 224.330482 -79.880182
L 224.987678 -79.877819
L 225.644873 -79.88491
L 226.302068 -79.887273
L 226.959264 -79.889637
L 227.616459 -79.894364
L 228.273655 -79.896728
L 228.93085 -79.912092
L 229.588046 -79.91091
L 230.245241 -79.906183
L 230.902437 -79.916819
L 231.559632 -79.916819
L 232.216827 -79.932183
L 232.874023 -79.928637
L 233.531218 -79.929819
L 234.188414 -79.929819
L 234.845609 -79.935728
L 235.502805 -79.946365
L 236.16 -79.958183
L 236.817195 -79.942819
L 237.474391 -79.945183
L 238.131586 -79.964092
L 238.788782 -79.978274
L 239.445977 -79.999547
L 240.103173 -80.017274
L 240.760368 -80.039729
L 241.417563 -80.070457
L 242.074759 -80.088184
L 242.731954 -80.11773
L 243.38915 -80.152003
L 244.046345 -80.186276
L 244.703541 -80.233549
L 245.360736 -80.287913
L 246.017932 -80.313913
L 246.675127 -80.348186
L 247.332322 -80.380095
L 247.989518 -80.466369
L 248.646713 -80.559733
L 249.303909 -80.696825
L 249.961104 -80.822099
L 250.6183 -80.896554
L 251.275495 -80.981645
L 251.93269 -81.162465
L 252.589886 -81.291284
L 253.247081 -81.410649
L 253.904277 -81.49574
L 254.561472 -81.565468
L 255.218668 -81.649378
L 255.875863 -81.70256
L 256.533059 -81.747469
L 257.190254 -81.852652
L 257.847449 -81.929471
L 258.504645 -82.00629
L 259.16184 -81.996835
L 259.819036 -82.024017
L 260.476231 -82.014562
L 261.133427 -82.054745
L 261.790622 -82.068926
L 262.447817 -82.195382
L 263.105013 -82.300565
L 263.762208 -82.496748
L 264.419404 -82.677567
L 265.076599 -82.747295
L 265.733795 -82.906842
L 266.39099 -83.104207
L 267.048185 -83.23539
L 267.705381 -83.391391
L 268.362576 -83.519028
L 269.019772 -83.485937
L 269.676967 -83.556847
L 270.334163 -83.579302
L 270.991358 -83.573393
L 271.648554 -83.634848
L 272.305749 -83.749485
L 272.962944 -83.873577
L 273.62014 -83.943304
L 274.277335 -83.995305
L 274.934531 -84.074487
L 275.591726 -84.249398
L 276.248922 -84.424308
L 276.906117 -84.644128
L 277.563312 -84.85213
L 278.220508 -84.973858
L 278.877703 -85.010494
L 279.534899 -85.187769
L 280.192094 -85.427679
L 280.84929 -85.556499
L 281.506485 -85.82241
L 282.163681 -86.020957
L 282.820876 -86.324686
L 283.478071 -86.509051
L 284.135267 -86.666234
L 284.792462 -86.841145
L 285.449658 -87.09642
L 286.106853 -87.195693
L 286.764049 -87.260693
L 287.421244 -87.265421
L 288.078439 -87.299694
L 288.735635 -87.40724
L 289.39283 -87.618787
L 290.050026 -87.842152
L 290.707221 -87.320967
L 291.364417 -86.707598
L 292.021612 -86.484233
L 292.678808 -86.459415
L 293.336003 -86.425142
L 293.993198 -86.486597
L 294.650394 -86.517324
L 295.307589 -86.590597
L 295.964785 -86.477142
L 296.62198 -86.477142
L 297.279176 -86.439324
L 297.936371 -86.303413
L 298.593566 -86.052866
L 299.250762 -85.629772
L 299.907957 -85.924047
L 300.565153 -86.514961
L 301.222348 -86.527961
L 301.879544 -86.431051
L 302.536739 -86.213595
L 303.193934 -86.043411
L 303.85113 -86.098957
L 304.508325 -86.005593
L 305.165521 -85.882683
L 305.822716 -85.815319
L 306.479912 -85.708954
L 307.137107 -85.652227
L 307.794303 -85.506862
L 308.451498 -85.275224
L 309.108693 -84.980949
L 309.765889 -84.759947
L 310.423084 -84.641764
L 311.08028 -84.512945
L 311.737475 -84.382944
L 312.394671 -84.167852
L 313.051866 -83.99885
L 313.709061 -83.743576
L 314.366257 -83.569847
L 315.023452 -83.417391
L 315.680648 -83.389027
L 316.337843 -83.254299
L 316.995039 -83.038025
L 317.652234 -82.825296
L 318.30943 -82.776841
L 318.966625 -82.573567
L 319.62382 -82.495566
L 320.281016 -82.392747
L 320.938211 -82.312383
L 321.595407 -82.203655
L 322.252602 -82.046472
L 322.909798 -81.886925
L 323.566993 -81.827834
L 324.224188 -81.733288
L 324.881384 -81.743924
L 325.538579 -81.686014
L 326.195775 -81.669469
L 326.85297 -81.628105
L 327.510166 -81.556013
L 328.167361 -81.515831
L 328.824556 -81.511104
L 329.481752 -81.498104
L 330.138947 -81.479195
L 330.796143 -81.401194
L 331.453338 -81.349194
L 332.110534 -81.301921
L 332.767729 -81.257011
L 333.424925 -81.229829
L 334.08212 -81.19792
L 334.739315 -81.177829
L 335.396511 -81.144738
L 336.053706 -81.071464
L 336.710902 -81.026555
L 337.368097 -80.9781
L 338.025293 -80.973373
L 338.682488 -80.988736
L 339.339683 -80.958009
L 339.996879 -80.945009
L 340.654074 -80.993464
L 341.31127 -81.034828
L 341.968465 -81.073828
L 342.625661 -81.069101
L 343.282856 -81.06201
L 343.940052 -81.073828
L 344.597247 -81.134101
L 345.254442 -81.135283
L 345.911638 -81.173101
L 346.568833 -81.194374
L 347.226029 -81.212102
L 347.883224 -81.244011
L 348.54042 -81.261738
L 349.197615 -81.297193
L 349.85481 -81.348012
L 350.512006 -81.374012
L 351.169201 -81.440194
L 351.826397 -81.505195
L 352.483592 -81.512286
L 353.140788 -81.583195
L 353.797983 -81.606832
L 354.455179 -81.651741
L 355.112374 -81.639923
L 355.769569 -81.569014
L 356.426765 -81.541832
L 357.08396 -81.551286
L 357.741156 -81.481558
L 358.398351 -81.44374
L 359.055547 -81.423649
L 359.712742 -81.459104
L 360.369937 -81.512286
L 361.027133 -81.541832
L 361.684328 -81.525286
L 362.341524 -81.563104
L 362.998719 -81.590286
L 363.655915 -81.599741
L 364.31311 -81.563104
L 364.970305 -81.545377
L 365.627501 -81.525286
L 366.284696 -81.543013
L 366.941892 -81.530013
L 367.599087 -81.517013
L 368.256283 -81.480376
L 368.913478 -81.504013
L 369.570674 -81.491013
L 370.227869 -81.481558
L 370.885064 -81.442558
L 371.54226 -81.437831
L 372.199455 -81.381103
L 372.856651 -81.304284
L 373.513846 -81.196738
L 374.171042 -81.141192
L 374.828237 -81.083283
L 375.485432 -81.072646
L 376.142628 -81.0041
L 376.799823 -80.946191
L 377.457019 -80.901281
L 378.114214 -80.836281
L 378.77141 -80.794917
L 379.428605 -80.729916
L 380.085801 -80.702734
L 380.742996 -80.646006
L 381.400191 -80.569188
L 382.057387 -80.508915
L 382.714582 -80.445096
L 383.371778 -80.37655
L 384.028973 -80.36355
L 384.686169 -80.339913
L 385.343364 -80.325731
L 386.000559 -80.27964
L 386.657755 -80.22173
L 387.31495 -80.188639
L 387.972146 -80.159094
L 388.629341 -80.118912
L 389.286537 -80.09882
L 389.943732 -80.04682
L 390.600927 -80.012547
L 391.258123 -79.990092
L 391.915318 -79.972365
L 392.572514 -79.938092
L 393.229709 -79.92391
L 393.886905 -79.913274
L 394.5441 -79.905001
L 395.201296 -79.881364
L 395.858491 -79.857728
L 396.515686 -79.845909
L 397.172882 -79.836455
L 397.830077 -79.830546
L 398.487273 -79.825818
L 398.487273 -79.802182
L 398.487273 -79.802182
L 397.830077 -79.802182
L 397.172882 -79.802182
L 396.515686 -79.802182
L 395.858491 -79.802182
L 395.201296 -79.802182
L 394.5441 -79.802182
L 393.886905 -79.802182
L 393.229709 -79.802182
L 392.572514 -79.802182
L 391.915318 -79.802182
L 391.258123 -79.802182
L 390.600927 -79.802182
L 389.943732 -79.802182
L 389.286537 -79.802182
L 388.629341 -79.802182
L 387.972146 -79.802182
L 387.31495 -79.802182
L 386.657755 -79.802182
L 386.000559 -79.802182
L 385.343364 -79.802182
L 384.686169 -79.802182
L 384.028973 -79.802182
L 383.371778 -79.802182
L 382.714582 -79.802182
L 382.057387 -79.802182
L 381.400191 -79.802182
L 380.742996 -79.802182
L 380.085801 -79.802182
L 379.428605 -79.802182
L 378.77141 -79.802182
L 378.114214 -79.802182
L 377.457019 -79.802182
L 376.799823 -79.802182
L 376.142628 -79.802182
L 375.485432 -79.802182
L 374.828237 -79.802182
L 374.171042 -79.802182
L 373.513846 -79.802182
L 372.856651 -79.802182
L 372.199455 -79.802182
L 371.54226 -79.802182
L 370.885064 -79.802182
L 370.227869 -79.802182
L 369.570674 -79.802182
L 368.913478 -79.802182
L 368.256283 -79.802182
L 367.599087 -79.802182
L 366.941892 -79.802182
L 366.284696 -79.802182
L 365.627501 -79.802182
L 364.970305 -79.802182
L 364.31311 -79.802182
L 363.655915 -79.802182
L 362.998719 -79.802182
L 362.341524 -79.802182
L 361.684328 -79.802182
L 361.027133 -79.802182
L 360.369937 -79.802182
L 359.712742 -79.802182
L 359.055547 -79.802182
L 358.398351 -79.802182
L 357.741156 -79.802182
L 357.08396 -79.802182
L 356.426765 -79.802182
L 355.769569 -79.802182
L 355.112374 -79.802182
L 354.455179 -79.802182
L 353.797983 -79.802182
L 353.140788 -79.802182
L 352.483592 -79.802182
L 351.826397 -79.802182
L 351.169201 -79.802182
L 350.512006 -79.802182
L 349.85481 -79.802182
L 349.197615 -79.802182
L 348.54042 -79.802182
L 347.883224 -79.802182
L 347.226029 -79.802182
L 346.568833 -79.802182
L 345.911638 -79.802182
L 345.254442 -79.802182
L 344.597247 -79.802182
L 343.940052 -79.802182
L 343.282856 -79.802182
L 342.625661 -79.802182
L 341.968465 -79.802182
L 341.31127 -79.802182
L 340.654074 -79.802182
L 339.996879 -79.802182
L 339.339683 -79.802182
L 338.682488 -79.802182
L 338.025293 -79.802182
L 337.368097 -79.802182
L 336.710902 -79.802182
L 336.053706 -79.802182
L 335.396511 -79.802182
L 334.739315 -79.802182
L 334.08212 -79.802182
L 333.424925 -79.802182
L 332.767729 -79.802182
L 332.110534 -79.802182
L 331.453338 -79.802182
L 330.796143 -79.802182
L 330.138947 -79.802182
L 329.481752 -79.802182
L 328.824556 -79.802182
L 328.167361 -79.802182
L 327.510166 -79.802182
L 326.85297 -79.802182
L 326.195775 -79.802182
L 325.538579 -79.802182
L 324.881384 -79.802182
L 324.224188 -79.802182
L 323.566993 -79.802182
L 322.909798 -79.802182
L 322.252602 -79.802182
L 321.595407 -79.802182
L 320.938211 -79.802182
L 320.281016 -79.802182
L 319.62382 -79.802182
L 318.966625 -79.802182
L 318.30943 -79.802182
L 317.652234 -79.802182
L 316.995039 -79.802182
L 316.337843 -79.802182
L 315.680648 -79.802182
L 315.023452 -79.802182
L 314.366257 -79.802182
L 313.709061 -79.802182
L 313.051866 -79.802182
L 312.394671 -79.802182
L 311.737475 -79.802182
L 311.08028 -79.802182
L 310.423084 -79.802182
L 309.765889 -79.802182
L 309.108693 -79.802182
L 308.451498 -79.802182
L 307.794303 -79.802182
L 307.137107 -79.802182
L 306.479912 -79.802182
L 305.822716 -79.802182
L 305.165521 -79.802182
L 304.508325 -79.802182
L 303.85113 -79.802182
L 303.193934 -79.802182
L 302.536739 -79.802182
L 301.879544 -79.802182
L 301.222348 -79.802182
L 300.565153 -79.802182
L 299.907957 -79.802182
L 299.250762 -79.802182
L 298.593566 -79.802182
L 297.936371 -79.802182
L 297.279176 -79.802182
L 296.62198 -79.802182
L 295.964785 -79.802182
L 295.307589 -79.802182
L 294.650394 -79.802182
L 293.993198 -79.802182
L 293.336003 -79.802182
L 292.678808 -79.802182
L 292.021612 -79.802182
L 291.364417 -79.802182
L 290.707221 -79.802182
L 290.050026 -79.802182
L 289.39283 -79.802182
L 288.735635 -79.802182
L 288.078439 -79.802182
L 287.421244 -79.802182
L 286.764049 -79.802182
L 286.106853 -79.802182
L 285.449658 -79.802182
L 284.792462 -79.802182
L 284.135267 -79.802182
L 283.478071 -79.802182
L 282.820876 -79.802182
L 282.163681 -79.802182
L 281.506485 -79.802182
L 280.84929 -79.802182
L 280.192094 -79.802182
L 279.534899 -79.802182
L 278.877703 -79.802182
L 278.220508 -79.802182
L 277.563312 -79.802182
L 276.906117 -79.802182
L 276.248922 -79.802182
L 275.591726 -79.802182
L 274.934531 -79.802182
L 274.277335 -79.802182
L 273.62014 -79.802182
L 272.962944 -79.802182
L 272.305749 -79.802182
L 271.648554 -79.802182
L 270.991358 -79.802182
L 270.334163 -79.802182
L 269.676967 -79.802182
L 269.019772 -79.802182
L 268.362576 -79.802182
L 267.705381 -79.802182
L 267.048185 -79.802182
L 266.39099 -79.802182
L 265.733795 -79.802182
L 265.076599 -79.802182
L 264.419404 -79.802182
L 263.762208 -79.802182
L 263.105013 -79.802182
L 262.447817 -79.802182
L 261.790622 -79.802182
L 261.133427 -79.802182
L 260.476231 -79.802182
L 259.819036 -79.802182
L 259.16184 -79.802182
L 258.504645 -79.802182
L 257.847449 -79.802182
L 257.190254 -79.802182
L 256.533059 -79.802182
L 255.875863 -79.802182
L 255.218668 -79.802182
L 254.561472 -79.802182
L 253.904277 -79.802182
L 253.247081 -79.802182
L 252.589886 -79.802182
L 251.93269 -79.802182
L 251.275495 -79.802182
L 250.6183 -79.802182
L 249.961104 -79.802182
L 249.303909 -79.802182
L 248.646713 -79.802182
L 247.989518 -79.802182
L 247.332322 -79.802182
L 246.675127 -79.802182
L 246.017932 -79.802182
L 245.360736 -79.802182
L 244.703541 -79.802182
L 244.046345 -79.802182
L 243.38915 -79.802182
L 242.731954 -79.802182
L 242.074759 -79.802182
L 241.417563 -79.802182
L 240.760368 -79.802182
L 240.103173 -79.802182
L 239.445977 -79.802182
L 238.788782 -79.802182
L 238.131586 -79.802182
L 237.474391 -79.802182
L 236.817195 -79.802182
L 236.16 -79.802182
L 235.502805 -79.802182
L 234.845609 -79.802182
L 234.188414 -79.802182
L 233.531218 -79.802182
L 232.874023 -79.802182
L 232.216827 -79.802182
L 231.559632 -79.802182
L 230.902437 -79.802182
L 230.245241 -79.802182
L 229.588046 -79.802182
L 228.93085 -79.802182
L 228.273655 -79.802182
L 227.616459 -79.802182
L 226.959264 -79.802182
L 226.302068 -79.802182
L 225.644873 -79.802182
L 224.987678 -79.802182
L 224.330482 -79.802182
L 223.673287 -79.802182
L 223.016091 -79.802182
L 222.358896 -79.802182
L 221.7017 -79.802182
L 221.044505 -79.802182
L 220.38731 -79.802182
L 219.730114 -79.802182
L 219.072919 -79.802182
L 218.415723 -79.802182
L 217.758528 -79.802182
L 217.101332 -79.802182
L 216.444137 -79.802182
L 215.786941 -79.802182
L 215.129746 -79.802182
L 214.472551 -79.802182
L 213.815355 -79.802182
L 213.15816 -79.802182
L 212.500964 -79.802182
L 211.843769 -79.802182
L 211.186573 -79.802182
L 210.529378 -79.802182
L 209.872183 -79.802182
L 209.214987 -79.802182
L 208.557792 -79.802182
L 207.900596 -79.802182
L 207.243401 -79.802182
L 206.586205 -79.802182
L 205.92901 -79.802182
L 205.271815 -79.802182
L 204.614619 -79.802182
L 203.957424 -79.802182
L 203.300228 -79.802182
L 202.643033 -79.802182
L 201.985837 -79.802182
L 201.328642 -79.802182
L 200.671446 -79.802182
L 200.014251 -79.802182
L 199.357056 -79.802182
L 198.69986 -79.802182
L 198.042665 -79.802182
L 197.385469 -79.802182
L 196.728274 -79.802182
L 196.071078 -79.802182
L 195.413883 -79.802182
L 194.756688 -79.802182
L 194.099492 -79.802182
L 193.442297 -79.802182
L 192.785101 -79.802182
L 192.127906 -79.802182
L 191.47071 -79.802182
L 190.813515 -79.802182
L 190.156319 -79.802182
L 189.499124 -79.802182
L 188.841929 -79.802182
L 188.184733 -79.802182
L 187.527538 -79.802182
L 186.870342 -79.802182
L 186.213147 -79.802182
L 185.555951 -79.802182
L 184.898756 -79.802182
L 184.241561 -79.802182
L 183.584365 -79.802182
L 182.92717 -79.802182
L 182.269974 -79.802182
L 181.612779 -79.802182
L 180.955583 -79.802182
L 180.298388 -79.802182
L 179.641192 -79.802182
L 178.983997 -79.802182
L 178.326802 -79.802182
L 177.669606 -79.802182
L 177.012411 -79.802182
L 176.355215 -79.802182
L 175.69802 -79.802182
L 175.040824 -79.802182
L 174.383629 -79.802182
L 173.726434 -79.802182
L 173.069238 -79.802182
L 172.412043 -79.802182
L 171.754847 -79.802182
L 171.097652 -79.802182
L 170.440456 -79.802182
L 169.783261 -79.802182
L 169.126066 -79.802182
L 168.46887 -79.802182
L 167.811675 -79.802182
L 167.154479 -79.802182
L 166.497284 -79.802182
L 165.840088 -79.802182
L 165.182893 -79.802182
L 164.525697 -79.802182
L 163.868502 -79.802182
L 163.211307 -79.802182
L 162.554111 -79.802182
L 161.896916 -79.802182
L 161.23972 -79.802182
L 160.582525 -79.802182
L 159.925329 -79.802182
L 159.268134 -79.802182
L 158.610939 -79.802182
L 157.953743 -79.802182
L 157.296548 -79.802182
L 156.639352 -79.802182
L 155.982157 -79.802182
L 155.324961 -79.802182
L 154.667766 -79.802182
L 154.01057 -79.802182
L 153.353375 -79.802182
L 152.69618 -79.802182
L 152.038984 -79.802182
L 151.381789 -79.802182
L 150.724593 -79.802182
L 150.067398 -79.802182
L 149.410202 -79.802182
L 148.753007 -79.802182
L 148.095812 -79.802182
L 147.438616 -79.802182
L 146.781421 -79.802182
L 146.124225 -79.802182
L 145.46703 -79.802182
L 144.809834 -79.802182
L 144.152639 -79.802182
L 143.495444 -79.802182
L 142.838248 -79.802182
L 142.181053 -79.802182
L 141.523857 -79.802182
L 140.866662 -79.802182
L 140.209466 -79.802182
L 139.552271 -79.802182
L 138.895075 -79.802182
L 138.23788 -79.802182
L 137.580685 -79.802182
L 136.923489 -79.802182
L 136.266294 -79.802182
L 135.609098 -79.802182
L 134.951903 -79.802182
L 134.294707 -79.802182
L 133.637512 -79.802182
L 132.980317 -79.802182
L 132.323121 -79.802182
L 131.665926 -79.802182
L 131.00873 -79.802182
L 130.351535 -79.802182
L 129.694339 -79.802182
L 129.037144 -79.802182
L 128.379948 -79.802182
L 127.722753 -79.802182
L 127.065558 -79.802182
L 126.408362 -79.802182
L 125.751167 -79.802182
L 125.093971 -79.802182
L 124.436776 -79.802182
L 123.77958 -79.802182
L 123.122385 -79.802182
L 122.46519 -79.802182
L 121.807994 -79.802182
L 121.150799 -79.802182
L 120.493603 -79.802182
L 119.836408 -79.802182
L 119.179212 -79.802182
L 118.522017 -79.802182
L 117.864821 -79.802182
L 117.207626 -79.802182
L 116.550431 -79.802182
L 115.893235 -79.802182
L 115.23604 -79.802182
L 114.578844 -79.802182
L 113.921649 -79.802182
L 113.264453 -79.802182
L 112.607258 -79.802182
L 111.950063 -79.802182
L 111.292867 -79.802182
L 110.635672 -79.802182
L 109.978476 -79.802182
L 109.321281 -79.802182
L 108.664085 -79.802182
L 108.00689 -79.802182
L 107.349695 -79.802182
L 106.692499 -79.802182
L 106.035304 -79.802182
L 105.378108 -79.802182
L 104.720913 -79.802182
L 104.063717 -79.802182
L 103.406522 -79.802182
L 102.749326 -79.802182
L 102.092131 -79.802182
L 101.434936 -79.802182
L 100.77774 -79.802182
L 100.120545 -79.802182
L 99.463349 -79.802182
L 98.806154 -79.802182
L 98.148958 -79.802182
L 97.491763 -79.802182
L 96.834568 -79.802182
L 96.177372 -79.802182
L 95.520177 -79.802182
L 94.862981 -79.802182
L 94.205786 -79.802182
L 93.54859 -79.802182
L 92.891395 -79.802182
L 92.234199 -79.802182
L 91.577004 -79.802182
L 90.919809 -79.802182
L 88.291027 -79.802182
L 86.976636 -79.802182
L 86.319441 -79.802182
L 83.033463 -79.802182
L 82.376268 -79.802182
L 79.747486 -79.802182
L 79.090291 -79.802182
L 77.7759 -79.802182
L 77.118704 -79.802182
L 75.804314 -79.802182
L 75.147118 -79.802182
L 73.832727 -79.802182
z
" id="m26856398a4" style="stroke:#ff2e5f;stroke-opacity:0.5;"/>
    </defs>
    <g clip-path="url(#pf6ff27e602)">
     <use style="fill:#ff2e5f;fill-opacity:0.5;stroke:#ff2e5f;stroke-opacity:0.5;" x="0" xlink:href="#m26856398a4" y="345.6"/>
    </g>
   </g>
   <g id="matplotlib.axis_1">
    <g id="xtick_1">
     <g id="line2d_1">
      <path clip-path="url(#pf6ff27e602)" d="M 94.862981 276.48
L 94.862981 41.472
" style="fill:none;stroke:#b0b0b0;stroke-linecap:square;stroke-width:0.3;"/>
     </g>
     <g id="line2d_2">
      <defs>
       <path d="M 0 0
L 0 3.5
" id="m6fc62cfd6b" style="stroke:#000000;stroke-width:0.8;"/>
      </defs>
      <g>
       <use style="stroke:#000000;stroke-width:0.8;" x="94.862981" xlink:href="#m6fc62cfd6b" y="276.48"/>
      </g>
     </g>
     <g id="text_1">
      <!-- 2020-03 -->
      <g transform="translate(57.63816 310.951846)rotate(-30)scale(0.1 -0.1)">
       <defs>
        <path d="M 1228 531
L 3431 531
L 3431 0
L 469 0
L 469 531
Q 828 903 1448 1529
Q 2069 2156 2228 2338
Q 2531 2678 2651 2914
Q 2772 3150 2772 3378
Q 2772 3750 2511 3984
Q 2250 4219 1831 4219
Q 1534 4219 1204 4116
Q 875 4013 500 3803
L 500 4441
Q 881 4594 1212 4672
Q 1544 4750 1819 4750
Q 2544 4750 2975 4387
Q 3406 4025 3406 3419
Q 3406 3131 3298 2873
Q 3191 2616 2906 2266
Q 2828 2175 2409 1742
Q 1991 1309 1228 531
z
" id="DejaVuSans-32" transform="scale(0.015625)"/>
        <path d="M 2034 4250
Q 1547 4250 1301 3770
Q 1056 3291 1056 2328
Q 1056 1369 1301 889
Q 1547 409 2034 409
Q 2525 409 2770 889
Q 3016 1369 3016 2328
Q 3016 3291 2770 3770
Q 2525 4250 2034 4250
z
M 2034 4750
Q 2819 4750 3233 4129
Q 3647 3509 3647 2328
Q 3647 1150 3233 529
Q 2819 -91 2034 -91
Q 1250 -91 836 529
Q 422 1150 422 2328
Q 422 3509 836 4129
Q 1250 4750 2034 4750
z
" id="DejaVuSans-30" transform="scale(0.015625)"/>
        <path d="M 313 2009
L 1997 2009
L 1997 1497
L 313 1497
L 313 2009
z
" id="DejaVuSans-2d" transform="scale(0.015625)"/>
        <path d="M 2597 2516
Q 3050 2419 3304 2112
Q 3559 1806 3559 1356
Q 3559 666 3084 287
Q 2609 -91 1734 -91
Q 1441 -91 1130 -33
Q 819 25 488 141
L 488 750
Q 750 597 1062 519
Q 1375 441 1716 441
Q 2309 441 2620 675
Q 2931 909 2931 1356
Q 2931 1769 2642 2001
Q 2353 2234 1838 2234
L 1294 2234
L 1294 2753
L 1863 2753
Q 2328 2753 2575 2939
Q 2822 3125 2822 3475
Q 2822 3834 2567 4026
Q 2313 4219 1838 4219
Q 1578 4219 1281 4162
Q 984 4106 628 3988
L 628 4550
Q 988 4650 1302 4700
Q 1616 4750 1894 4750
Q 2613 4750 3031 4423
Q 3450 4097 3450 3541
Q 3450 3153 3228 2886
Q 3006 2619 2597 2516
z
" id="DejaVuSans-33" transform="scale(0.015625)"/>
       </defs>
       <use xlink:href="#DejaVuSans-32"/>
       <use x="63.623047" xlink:href="#DejaVuSans-30"/>
       <use x="127.246094" xlink:href="#DejaVuSans-32"/>
       <use x="190.869141" xlink:href="#DejaVuSans-30"/>
       <use x="254.492188" xlink:href="#DejaVuSans-2d"/>
       <use x="290.576172" xlink:href="#DejaVuSans-30"/>
       <use x="354.199219" xlink:href="#DejaVuSans-33"/>
      </g>
     </g>
    </g>
    <g id="xtick_2">
     <g id="line2d_3">
      <path clip-path="url(#pf6ff27e602)" d="M 134.951903 276.48
L 134.951903 41.472
" style="fill:none;stroke:#b0b0b0;stroke-linecap:square;stroke-width:0.3;"/>
     </g>
     <g id="line2d_4">
      <g>
       <use style="stroke:#000000;stroke-width:0.8;" x="134.951903" xlink:href="#m6fc62cfd6b" y="276.48"/>
      </g>
     </g>
     <g id="text_2">
      <!-- 2020-05 -->
      <g transform="translate(97.727082 310.951846)rotate(-30)scale(0.1 -0.1)">
       <defs>
        <path d="M 691 4666
L 3169 4666
L 3169 4134
L 1269 4134
L 1269 2991
Q 1406 3038 1543 3061
Q 1681 3084 1819 3084
Q 2600 3084 3056 2656
Q 3513 2228 3513 1497
Q 3513 744 3044 326
Q 2575 -91 1722 -91
Q 1428 -91 1123 -41
Q 819 9 494 109
L 494 744
Q 775 591 1075 516
Q 1375 441 1709 441
Q 2250 441 2565 725
Q 2881 1009 2881 1497
Q 2881 1984 2565 2268
Q 2250 2553 1709 2553
Q 1456 2553 1204 2497
Q 953 2441 691 2322
L 691 4666
z
" id="DejaVuSans-35" transform="scale(0.015625)"/>
       </defs>
       <use xlink:href="#DejaVuSans-32"/>
       <use x="63.623047" xlink:href="#DejaVuSans-30"/>
       <use x="127.246094" xlink:href="#DejaVuSans-32"/>
       <use x="190.869141" xlink:href="#DejaVuSans-30"/>
       <use x="254.492188" xlink:href="#DejaVuSans-2d"/>
       <use x="290.576172" xlink:href="#DejaVuSans-30"/>
       <use x="354.199219" xlink:href="#DejaVuSans-35"/>
      </g>
     </g>
    </g>
    <g id="xtick_3">
     <g id="line2d_5">
      <path clip-path="url(#pf6ff27e602)" d="M 175.040824 276.48
L 175.040824 41.472
" style="fill:none;stroke:#b0b0b0;stroke-linecap:square;stroke-width:0.3;"/>
     </g>
     <g id="line2d_6">
      <g>
       <use style="stroke:#000000;stroke-width:0.8;" x="175.040824" xlink:href="#m6fc62cfd6b" y="276.48"/>
      </g>
     </g>
     <g id="text_3">
      <!-- 2020-07 -->
      <g transform="translate(137.816004 310.951846)rotate(-30)scale(0.1 -0.1)">
       <defs>
        <path d="M 525 4666
L 3525 4666
L 3525 4397
L 1831 0
L 1172 0
L 2766 4134
L 525 4134
L 525 4666
z
" id="DejaVuSans-37" transform="scale(0.015625)"/>
       </defs>
       <use xlink:href="#DejaVuSans-32"/>
       <use x="63.623047" xlink:href="#DejaVuSans-30"/>
       <use x="127.246094" xlink:href="#DejaVuSans-32"/>
       <use x="190.869141" xlink:href="#DejaVuSans-30"/>
       <use x="254.492188" xlink:href="#DejaVuSans-2d"/>
       <use x="290.576172" xlink:href="#DejaVuSans-30"/>
       <use x="354.199219" xlink:href="#DejaVuSans-37"/>
      </g>
     </g>
    </g>
    <g id="xtick_4">
     <g id="line2d_7">
      <path clip-path="url(#pf6ff27e602)" d="M 215.786941 276.48
L 215.786941 41.472
" style="fill:none;stroke:#b0b0b0;stroke-linecap:square;stroke-width:0.3;"/>
     </g>
     <g id="line2d_8">
      <g>
       <use style="stroke:#000000;stroke-width:0.8;" x="215.786941" xlink:href="#m6fc62cfd6b" y="276.48"/>
      </g>
     </g>
     <g id="text_4">
      <!-- 2020-09 -->
      <g transform="translate(178.562121 310.951846)rotate(-30)scale(0.1 -0.1)">
       <defs>
        <path d="M 703 97
L 703 672
Q 941 559 1184 500
Q 1428 441 1663 441
Q 2288 441 2617 861
Q 2947 1281 2994 2138
Q 2813 1869 2534 1725
Q 2256 1581 1919 1581
Q 1219 1581 811 2004
Q 403 2428 403 3163
Q 403 3881 828 4315
Q 1253 4750 1959 4750
Q 2769 4750 3195 4129
Q 3622 3509 3622 2328
Q 3622 1225 3098 567
Q 2575 -91 1691 -91
Q 1453 -91 1209 -44
Q 966 3 703 97
z
M 1959 2075
Q 2384 2075 2632 2365
Q 2881 2656 2881 3163
Q 2881 3666 2632 3958
Q 2384 4250 1959 4250
Q 1534 4250 1286 3958
Q 1038 3666 1038 3163
Q 1038 2656 1286 2365
Q 1534 2075 1959 2075
z
" id="DejaVuSans-39" transform="scale(0.015625)"/>
       </defs>
       <use xlink:href="#DejaVuSans-32"/>
       <use x="63.623047" xlink:href="#DejaVuSans-30"/>
       <use x="127.246094" xlink:href="#DejaVuSans-32"/>
       <use x="190.869141" xlink:href="#DejaVuSans-30"/>
       <use x="254.492188" xlink:href="#DejaVuSans-2d"/>
       <use x="290.576172" xlink:href="#DejaVuSans-30"/>
       <use x="354.199219" xlink:href="#DejaVuSans-39"/>
      </g>
     </g>
    </g>
    <g id="xtick_5">
     <g id="line2d_9">
      <path clip-path="url(#pf6ff27e602)" d="M 255.875863 276.48
L 255.875863 41.472
" style="fill:none;stroke:#b0b0b0;stroke-linecap:square;stroke-width:0.3;"/>
     </g>
     <g id="line2d_10">
      <g>
       <use style="stroke:#000000;stroke-width:0.8;" x="255.875863" xlink:href="#m6fc62cfd6b" y="276.48"/>
      </g>
     </g>
     <g id="text_5">
      <!-- 2020-11 -->
      <g transform="translate(218.651042 310.951846)rotate(-30)scale(0.1 -0.1)">
       <defs>
        <path d="M 794 531
L 1825 531
L 1825 4091
L 703 3866
L 703 4441
L 1819 4666
L 2450 4666
L 2450 531
L 3481 531
L 3481 0
L 794 0
L 794 531
z
" id="DejaVuSans-31" transform="scale(0.015625)"/>
       </defs>
       <use xlink:href="#DejaVuSans-32"/>
       <use x="63.623047" xlink:href="#DejaVuSans-30"/>
       <use x="127.246094" xlink:href="#DejaVuSans-32"/>
       <use x="190.869141" xlink:href="#DejaVuSans-30"/>
       <use x="254.492188" xlink:href="#DejaVuSans-2d"/>
       <use x="290.576172" xlink:href="#DejaVuSans-31"/>
       <use x="354.199219" xlink:href="#DejaVuSans-31"/>
      </g>
     </g>
    </g>
    <g id="xtick_6">
     <g id="line2d_11">
      <path clip-path="url(#pf6ff27e602)" d="M 295.964785 276.48
L 295.964785 41.472
" style="fill:none;stroke:#b0b0b0;stroke-linecap:square;stroke-width:0.3;"/>
     </g>
     <g id="line2d_12">
      <g>
       <use style="stroke:#000000;stroke-width:0.8;" x="295.964785" xlink:href="#m6fc62cfd6b" y="276.48"/>
      </g>
     </g>
     <g id="text_6">
      <!-- 2021-01 -->
      <g transform="translate(258.739964 310.951846)rotate(-30)scale(0.1 -0.1)">
       <use xlink:href="#DejaVuSans-32"/>
       <use x="63.623047" xlink:href="#DejaVuSans-30"/>
       <use x="127.246094" xlink:href="#DejaVuSans-32"/>
       <use x="190.869141" xlink:href="#DejaVuSans-31"/>
       <use x="254.492188" xlink:href="#DejaVuSans-2d"/>
       <use x="290.576172" xlink:href="#DejaVuSans-30"/>
       <use x="354.199219" xlink:href="#DejaVuSans-31"/>
      </g>
     </g>
    </g>
    <g id="xtick_7">
     <g id="line2d_13">
      <path clip-path="url(#pf6ff27e602)" d="M 334.739315 276.48
L 334.739315 41.472
" style="fill:none;stroke:#b0b0b0;stroke-linecap:square;stroke-width:0.3;"/>
     </g>
     <g id="line2d_14">
      <g>
       <use style="stroke:#000000;stroke-width:0.8;" x="334.739315" xlink:href="#m6fc62cfd6b" y="276.48"/>
      </g>
     </g>
     <g id="text_7">
      <!-- 2021-03 -->
      <g transform="translate(297.514495 310.951846)rotate(-30)scale(0.1 -0.1)">
       <use xlink:href="#DejaVuSans-32"/>
       <use x="63.623047" xlink:href="#DejaVuSans-30"/>
       <use x="127.246094" xlink:href="#DejaVuSans-32"/>
       <use x="190.869141" xlink:href="#DejaVuSans-31"/>
       <use x="254.492188" xlink:href="#DejaVuSans-2d"/>
       <use x="290.576172" xlink:href="#DejaVuSans-30"/>
       <use x="354.199219" xlink:href="#DejaVuSans-33"/>
      </g>
     </g>
    </g>
    <g id="xtick_8">
     <g id="line2d_15">
      <path clip-path="url(#pf6ff27e602)" d="M 374.828237 276.48
L 374.828237 41.472
" style="fill:none;stroke:#b0b0b0;stroke-linecap:square;stroke-width:0.3;"/>
     </g>
     <g id="line2d_16">
      <g>
       <use style="stroke:#000000;stroke-width:0.8;" x="374.828237" xlink:href="#m6fc62cfd6b" y="276.48"/>
      </g>
     </g>
     <g id="text_8">
      <!-- 2021-05 -->
      <g transform="translate(337.603416 310.951846)rotate(-30)scale(0.1 -0.1)">
       <use xlink:href="#DejaVuSans-32"/>
       <use x="63.623047" xlink:href="#DejaVuSans-30"/>
       <use x="127.246094" xlink:href="#DejaVuSans-32"/>
       <use x="190.869141" xlink:href="#DejaVuSans-31"/>
       <use x="254.492188" xlink:href="#DejaVuSans-2d"/>
       <use x="290.576172" xlink:href="#DejaVuSans-30"/>
       <use x="354.199219" xlink:href="#DejaVuSans-35"/>
      </g>
     </g>
    </g>
   </g>
   <g id="matplotlib.axis_2">
    <g id="ytick_1">
     <g id="line2d_17">
      <path clip-path="url(#pf6ff27e602)" d="M 57.6 265.797818
L 414.72 265.797818
" style="fill:none;stroke:#b0b0b0;stroke-linecap:square;stroke-width:0.3;"/>
     </g>
     <g id="line2d_18">
      <defs>
       <path d="M 0 0
L -3.5 0
" id="m8452f30f90" style="stroke:#000000;stroke-width:0.8;"/>
      </defs>
      <g>
       <use style="stroke:#000000;stroke-width:0.8;" x="57.6" xlink:href="#m8452f30f90" y="265.797818"/>
      </g>
     </g>
     <g id="text_9">
      <!-- 0 -->
      <g transform="translate(44.2375 269.597037)scale(0.1 -0.1)">
       <use xlink:href="#DejaVuSans-30"/>
      </g>
     </g>
    </g>
    <g id="ytick_2">
     <g id="line2d_19">
      <path clip-path="url(#pf6ff27e602)" d="M 57.6 224.433865
L 414.72 224.433865
" style="fill:none;stroke:#b0b0b0;stroke-linecap:square;stroke-width:0.3;"/>
     </g>
     <g id="line2d_20">
      <g>
       <use style="stroke:#000000;stroke-width:0.8;" x="57.6" xlink:href="#m8452f30f90" y="224.433865"/>
      </g>
     </g>
     <g id="text_10">
      <!-- 5000 -->
      <g transform="translate(25.15 228.233084)scale(0.1 -0.1)">
       <use xlink:href="#DejaVuSans-35"/>
       <use x="63.623047" xlink:href="#DejaVuSans-30"/>
       <use x="127.246094" xlink:href="#DejaVuSans-30"/>
       <use x="190.869141" xlink:href="#DejaVuSans-30"/>
      </g>
     </g>
    </g>
    <g id="ytick_3">
     <g id="line2d_21">
      <path clip-path="url(#pf6ff27e602)" d="M 57.6 183.069912
L 414.72 183.069912
" style="fill:none;stroke:#b0b0b0;stroke-linecap:square;stroke-width:0.3;"/>
     </g>
     <g id="line2d_22">
      <g>
       <use style="stroke:#000000;stroke-width:0.8;" x="57.6" xlink:href="#m8452f30f90" y="183.069912"/>
      </g>
     </g>
     <g id="text_11">
      <!-- 10000 -->
      <g transform="translate(18.7875 186.869131)scale(0.1 -0.1)">
       <use xlink:href="#DejaVuSans-31"/>
       <use x="63.623047" xlink:href="#DejaVuSans-30"/>
       <use x="127.246094" xlink:href="#DejaVuSans-30"/>
       <use x="190.869141" xlink:href="#DejaVuSans-30"/>
       <use x="254.492188" xlink:href="#DejaVuSans-30"/>
      </g>
     </g>
    </g>
    <g id="ytick_4">
     <g id="line2d_23">
      <path clip-path="url(#pf6ff27e602)" d="M 57.6 141.705959
L 414.72 141.705959
" style="fill:none;stroke:#b0b0b0;stroke-linecap:square;stroke-width:0.3;"/>
     </g>
     <g id="line2d_24">
      <g>
       <use style="stroke:#000000;stroke-width:0.8;" x="57.6" xlink:href="#m8452f30f90" y="141.705959"/>
      </g>
     </g>
     <g id="text_12">
      <!-- 15000 -->
      <g transform="translate(18.7875 145.505177)scale(0.1 -0.1)">
       <use xlink:href="#DejaVuSans-31"/>
       <use x="63.623047" xlink:href="#DejaVuSans-35"/>
       <use x="127.246094" xlink:href="#DejaVuSans-30"/>
       <use x="190.869141" xlink:href="#DejaVuSans-30"/>
       <use x="254.492188" xlink:href="#DejaVuSans-30"/>
      </g>
     </g>
    </g>
    <g id="ytick_5">
     <g id="line2d_25">
      <path clip-path="url(#pf6ff27e602)" d="M 57.6 100.342005
L 414.72 100.342005
" style="fill:none;stroke:#b0b0b0;stroke-linecap:square;stroke-width:0.3;"/>
     </g>
     <g id="line2d_26">
      <g>
       <use style="stroke:#000000;stroke-width:0.8;" x="57.6" xlink:href="#m8452f30f90" y="100.342005"/>
      </g>
     </g>
     <g id="text_13">
      <!-- 20000 -->
      <g transform="translate(18.7875 104.141224)scale(0.1 -0.1)">
       <use xlink:href="#DejaVuSans-32"/>
       <use x="63.623047" xlink:href="#DejaVuSans-30"/>
       <use x="127.246094" xlink:href="#DejaVuSans-30"/>
       <use x="190.869141" xlink:href="#DejaVuSans-30"/>
       <use x="254.492188" xlink:href="#DejaVuSans-30"/>
      </g>
     </g>
    </g>
    <g id="ytick_6">
     <g id="line2d_27">
      <path clip-path="url(#pf6ff27e602)" d="M 57.6 58.978052
L 414.72 58.978052
" style="fill:none;stroke:#b0b0b0;stroke-linecap:square;stroke-width:0.3;"/>
     </g>
     <g id="line2d_28">
      <g>
       <use style="stroke:#000000;stroke-width:0.8;" x="57.6" xlink:href="#m8452f30f90" y="58.978052"/>
      </g>
     </g>
     <g id="text_14">
      <!-- 25000 -->
      <g transform="translate(18.7875 62.777271)scale(0.1 -0.1)">
       <use xlink:href="#DejaVuSans-32"/>
       <use x="63.623047" xlink:href="#DejaVuSans-35"/>
       <use x="127.246094" xlink:href="#DejaVuSans-30"/>
       <use x="190.869141" xlink:href="#DejaVuSans-30"/>
       <use x="254.492188" xlink:href="#DejaVuSans-30"/>
      </g>
     </g>
    </g>
   </g>
   <g id="line2d_29">
    <path clip-path="url(#pf6ff27e602)" d="M 73.832727 265.786
L 94.862981 265.631181
L 96.177372 265.488179
L 98.806154 264.814538
L 99.463349 264.735355
L 100.120545 264.37608
L 101.434936 263.064252
L 102.092131 262.111699
L 103.406522 259.236313
L 104.063717 258.199851
L 104.720913 256.196654
L 106.035304 249.95897
L 107.349695 243.272191
L 108.00689 240.844718
L 108.664085 239.32607
L 109.978476 235.136492
L 111.292867 230.500184
L 111.950063 228.222803
L 112.607258 226.608427
L 113.264453 225.647602
L 113.921649 225.191416
L 114.578844 223.800406
L 115.893235 222.359758
L 116.550431 222.119847
L 117.207626 222.572487
L 118.522017 223.729496
L 119.836408 225.902876
L 120.493603 227.843437
L 121.150799 231.178553
L 121.807994 232.895748
L 122.46519 233.702936
L 123.122385 236.148137
L 123.77958 239.372161
L 124.436776 241.68027
L 125.093971 243.440011
L 125.751167 243.809922
L 126.408362 244.731748
L 127.065558 245.307298
L 127.722753 245.169024
L 128.379948 245.504663
L 129.037144 246.493852
L 130.351535 249.410602
L 131.665926 251.192797
L 132.980317 252.745718
L 133.637512 253.99491
L 134.294707 254.740643
L 134.951903 255.905924
L 135.609098 256.677657
L 136.266294 257.006205
L 137.580685 257.910303
L 138.895075 258.466944
L 140.209466 258.326306
L 141.523857 258.472853
L 142.838248 259.118131
L 143.495444 259.579043
L 144.809834 260.136866
L 145.46703 260.168775
L 147.438616 260.58596
L 148.095812 261.050418
L 149.410202 261.429785
L 151.381789 261.831606
L 152.038984 262.045517
L 152.69618 261.91197
L 153.353375 262.00888
L 154.667766 262.011244
L 156.639352 262.885796
L 157.953743 262.896432
L 159.268134 263.019342
L 160.582525 262.687249
L 161.23972 262.661249
L 161.896916 262.956706
L 162.554111 263.058343
L 165.182893 262.94016
L 167.154479 261.290329
L 167.811675 261.024418
L 168.46887 260.927508
L 169.126066 260.662779
L 169.783261 260.652142
L 170.440456 261.215874
L 171.097652 261.286784
L 171.754847 261.703969
L 172.412043 261.934425
L 175.69802 262.329155
L 176.355215 262.507611
L 178.326802 262.732158
L 180.298388 262.902341
L 183.584365 262.840886
L 185.555951 262.475702
L 186.870342 262.229882
L 189.499124 261.65315
L 190.156319 261.319875
L 191.47071 261.157964
L 192.127906 261.072873
L 193.442297 260.548142
L 194.756688 260.225503
L 196.071078 260.091956
L 197.385469 259.549498
L 198.042665 259.304859
L 198.69986 258.934947
L 200.671446 258.641854
L 203.300228 257.096024
L 203.957424 256.658748
L 204.614619 256.606748
L 205.271815 256.402292
L 206.586205 255.46983
L 209.214987 254.539732
L 209.872183 254.453459
L 215.129746 255.661286
L 216.444137 256.08438
L 217.101332 256.109199
L 217.758528 255.982743
L 218.415723 255.656559
L 219.072919 255.609286
L 219.730114 255.349284
L 220.38731 255.272465
L 221.044505 254.878916
L 222.358896 254.60946
L 224.330482 254.165093
L 224.987678 253.429996
L 225.644873 252.904083
L 226.302068 252.003531
L 226.959264 251.387799
L 227.616459 251.191615
L 228.273655 251.273161
L 228.93085 251.066342
L 229.588046 251.293253
L 230.902437 251.229434
L 231.559632 251.045069
L 232.216827 250.580611
L 233.531218 250.169335
L 234.188414 249.747423
L 236.817195 247.312858
L 237.474391 246.981947
L 238.131586 246.284669
L 238.788782 244.608838
L 240.103173 240.468897
L 240.760368 237.944514
L 241.417563 236.252137
L 242.074759 234.926127
L 243.38915 230.718822
L 244.046345 227.456979
L 245.360736 220.182832
L 246.017932 217.741177
L 246.675127 216.078346
L 247.332322 213.380235
L 247.989518 208.566653
L 249.303909 195.401097
L 250.6183 181.851448
L 251.275495 177.380596
L 251.93269 170.821454
L 253.904277 147.979098
L 254.561472 141.622049
L 256.533059 130.729147
L 257.190254 126.731026
L 257.847449 124.402826
L 259.16184 118.994785
L 259.819036 116.730404
L 260.476231 117.158225
L 261.133427 116.330946
L 261.790622 116.005944
L 263.105013 112.794919
L 264.419404 113.197922
L 265.733795 116.232854
L 266.39099 115.372484
L 267.048185 114.176475
L 267.705381 113.8952
L 268.362576 112.78901
L 269.019772 113.998019
L 269.676967 114.020474
L 270.334163 113.556016
L 270.991358 114.648024
L 271.648554 116.569675
L 272.305749 117.733775
L 272.962944 120.266431
L 273.62014 120.077338
L 274.277335 120.130521
L 274.934531 122.227082
L 275.591726 122.446902
L 276.248922 121.126801
L 276.906117 119.124786
L 277.563312 116.620494
L 278.220508 115.710487
L 278.877703 113.990928
L 280.192094 106.062049
L 282.163681 89.430195
L 282.820876 83.620332
L 284.135267 77.866015
L 285.449658 68.651308
L 286.764049 62.183168
L 287.421244 60.892612
L 288.735635 57.706406
L 289.39283 55.267115
L 290.050026 52.154182
L 290.707221 64.945098
L 291.364417 84.566976
L 292.021612 96.576704
L 293.336003 106.894056
L 293.993198 108.576978
L 294.650394 112.00664
L 295.307589 113.845563
L 295.964785 117.291772
L 296.62198 119.133058
L 297.279176 120.304249
L 297.936371 122.034444
L 298.593566 122.223537
L 299.250762 125.900201
L 299.907957 118.20296
L 300.565153 101.32174
L 301.222348 93.442498
L 301.879544 93.849047
L 302.536739 94.708235
L 303.193934 100.366824
L 303.85113 104.944041
L 305.165521 119.02433
L 305.822716 122.85936
L 306.479912 125.064649
L 309.108693 144.855528
L 309.765889 148.754376
L 311.737475 155.675157
L 312.394671 159.193456
L 313.709061 167.604521
L 314.366257 170.497634
L 315.023452 172.428739
L 316.337843 174.4343
L 316.995039 178.188965
L 317.652234 181.038351
L 318.30943 183.227095
L 318.966625 186.2443
L 319.62382 188.092678
L 320.281016 189.411597
L 320.938211 191.38643
L 322.252602 198.920579
L 322.909798 201.466235
L 323.566993 203.225975
L 324.224188 206.491364
L 324.881384 205.713722
L 326.195775 205.288264
L 326.85297 205.597903
L 327.510166 205.746813
L 328.167361 205.51872
L 328.824556 202.95061
L 329.481752 203.787343
L 330.138947 203.777889
L 330.796143 202.653971
L 331.453338 201.134141
L 332.767729 199.470128
L 333.424925 199.616675
L 334.08212 199.127398
L 334.739315 198.788214
L 335.396511 197.890025
L 336.053706 197.87348
L 337.368097 197.358203
L 338.025293 196.619561
L 338.682488 196.730653
L 339.339683 196.546288
L 339.996879 195.883283
L 342.625661 183.183367
L 343.282856 181.410626
L 343.940052 179.0907
L 345.911638 164.59677
L 347.226029 157.589717
L 347.883224 156.286161
L 348.54042 153.790142
L 349.85481 144.33907
L 351.169201 133.118802
L 351.826397 130.112233
L 352.483592 128.171673
L 353.140788 125.719382
L 353.797983 124.67701
L 354.455179 123.072089
L 355.112374 123.632275
L 356.426765 135.034544
L 357.08396 135.556912
L 357.741156 140.213311
L 358.398351 150.699664
L 359.055547 151.017575
L 359.712742 145.9109
L 361.027133 127.925853
L 361.684328 125.917929
L 362.341524 119.933156
L 362.998719 101.92329
L 363.655915 96.183155
L 364.31311 97.003344
L 364.970305 97.3118
L 365.627501 97.754986
L 366.284696 97.791622
L 366.941892 97.549348
L 367.599087 96.106337
L 368.256283 95.069874
L 368.913478 94.582961
L 369.570674 94.662144
L 370.227869 94.280414
L 371.54226 94.539234
L 372.199455 97.752622
L 373.513846 107.753244
L 374.171042 112.237097
L 374.828237 115.717578
L 375.485432 118.154506
L 376.142628 121.772079
L 378.114214 136.742284
L 378.77141 141.10559
L 379.428605 144.704254
L 380.085801 146.284357
L 380.742996 148.327737
L 382.057387 158.53636
L 383.371778 176.669136
L 384.028973 180.742894
L 384.686169 181.980267
L 385.343364 184.522377
L 386.657755 195.872646
L 387.31495 197.346385
L 387.972146 197.409022
L 388.629341 200.676774
L 389.286537 203.365431
L 389.943732 207.466371
L 390.600927 217.742359
L 391.258123 222.708397
L 391.915318 224.598139
L 393.229709 229.997908
L 393.886905 230.478911
L 394.5441 229.741451
L 395.201296 228.037256
L 395.858491 231.141916
L 396.515686 235.708497
L 397.172882 239.205524
L 397.830077 240.985355
L 398.487273 241.923726
L 398.487273 241.923726
" style="fill:none;stroke:#ff9d2e;stroke-linecap:square;stroke-opacity:0.85;stroke-width:0.8;"/>
   </g>
   <g id="line2d_30">
    <path clip-path="url(#pf6ff27e602)" d="M 73.832727 265.797818
L 104.063717 265.698545
L 106.692499 265.49527
L 109.978476 264.97763
L 116.550431 263.143434
L 119.836408 263.182435
L 120.493603 263.287617
L 121.150799 263.507437
L 123.122385 263.734348
L 125.751167 264.211806
L 127.065558 264.360716
L 128.379948 264.475354
L 130.351535 264.788538
L 132.980317 265.093449
L 135.609098 265.323905
L 155.982157 265.738727
L 219.730114 265.754091
L 224.987678 265.722181
L 244.046345 265.413724
L 248.646713 265.040267
L 250.6183 264.703446
L 251.93269 264.437535
L 254.561472 264.034532
L 258.504645 263.59371
L 261.790622 263.531074
L 265.733795 262.693158
L 267.705381 262.208609
L 268.362576 262.080972
L 269.676967 262.043153
L 272.305749 261.850515
L 273.62014 261.656696
L 274.934531 261.525513
L 282.163681 259.579043
L 283.478071 259.090949
L 284.792462 258.758855
L 285.449658 258.50358
L 286.764049 258.339307
L 288.078439 258.300306
L 289.39283 257.981213
L 290.050026 257.757848
L 291.364417 258.892402
L 292.021612 259.115767
L 293.993198 259.113403
L 295.964785 259.122858
L 297.279176 259.160676
L 297.936371 259.296587
L 298.593566 259.547134
L 299.250762 259.970228
L 299.907957 259.675953
L 300.565153 259.085039
L 301.879544 259.168949
L 303.193934 259.556589
L 303.85113 259.501043
L 307.794303 260.093138
L 310.423084 260.958236
L 312.394671 261.432148
L 317.652234 262.774704
L 318.30943 262.823159
L 318.966625 263.026433
L 321.595407 263.396345
L 323.566993 263.772166
L 324.881384 263.856076
L 328.167361 264.084169
L 330.796143 264.198806
L 337.368097 264.6219
L 341.31127 264.565172
L 343.282856 264.53799
L 348.54042 264.338262
L 355.769569 264.030986
L 359.712742 264.140896
L 362.341524 264.036896
L 364.31311 264.036896
L 372.856651 264.295716
L 374.828237 264.516717
L 376.799823 264.653809
L 382.714582 265.154904
L 384.686169 265.260087
L 387.972146 265.440906
L 393.229709 265.67609
L 398.487273 265.774182
L 398.487273 265.774182
" style="fill:none;stroke:#ff2e5f;stroke-linecap:square;stroke-opacity:0.75;stroke-width:0.8;"/>
   </g>
   <g id="patch_3">
    <path d="M 57.6 276.48
L 57.6 41.472
" style="fill:none;stroke:#000000;stroke-linecap:square;stroke-linejoin:miter;stroke-width:0.8;"/>
   </g>
   <g id="patch_4">
    <path d="M 414.72 276.48
L 414.72 41.472
" style="fill:none;stroke:#000000;stroke-linecap:square;stroke-linejoin:miter;stroke-width:0.8;"/>
   </g>
   <g id="patch_5">
    <path d="M 57.6 276.48
L 414.72 276.48
" style="fill:none;stroke:#000000;stroke-linecap:square;stroke-linejoin:miter;stroke-width:0.8;"/>
   </g>
   <g id="patch_6">
    <path d="M 57.6 41.472
L 414.72 41.472
" style="fill:none;stroke:#000000;stroke-linecap:square;stroke-linejoin:miter;stroke-width:0.8;"/>
   </g>
   <g id="text_15">
    <!-- COVID19-related Cases and Deaths in Germany -->
    <g transform="translate(116.767812 35.472)scale(0.1 -0.1)">
     <defs>
      <path d="M 4122 4306
L 4122 3641
Q 3803 3938 3442 4084
Q 3081 4231 2675 4231
Q 1875 4231 1450 3742
Q 1025 3253 1025 2328
Q 1025 1406 1450 917
Q 1875 428 2675 428
Q 3081 428 3442 575
Q 3803 722 4122 1019
L 4122 359
Q 3791 134 3420 21
Q 3050 -91 2638 -91
Q 1578 -91 968 557
Q 359 1206 359 2328
Q 359 3453 968 4101
Q 1578 4750 2638 4750
Q 3056 4750 3426 4639
Q 3797 4528 4122 4306
z
" id="DejaVuSans-43" transform="scale(0.015625)"/>
      <path d="M 2522 4238
Q 1834 4238 1429 3725
Q 1025 3213 1025 2328
Q 1025 1447 1429 934
Q 1834 422 2522 422
Q 3209 422 3611 934
Q 4013 1447 4013 2328
Q 4013 3213 3611 3725
Q 3209 4238 2522 4238
z
M 2522 4750
Q 3503 4750 4090 4092
Q 4678 3434 4678 2328
Q 4678 1225 4090 567
Q 3503 -91 2522 -91
Q 1538 -91 948 565
Q 359 1222 359 2328
Q 359 3434 948 4092
Q 1538 4750 2522 4750
z
" id="DejaVuSans-4f" transform="scale(0.015625)"/>
      <path d="M 1831 0
L 50 4666
L 709 4666
L 2188 738
L 3669 4666
L 4325 4666
L 2547 0
L 1831 0
z
" id="DejaVuSans-56" transform="scale(0.015625)"/>
      <path d="M 628 4666
L 1259 4666
L 1259 0
L 628 0
L 628 4666
z
" id="DejaVuSans-49" transform="scale(0.015625)"/>
      <path d="M 1259 4147
L 1259 519
L 2022 519
Q 2988 519 3436 956
Q 3884 1394 3884 2338
Q 3884 3275 3436 3711
Q 2988 4147 2022 4147
L 1259 4147
z
M 628 4666
L 1925 4666
Q 3281 4666 3915 4102
Q 4550 3538 4550 2338
Q 4550 1131 3912 565
Q 3275 0 1925 0
L 628 0
L 628 4666
z
" id="DejaVuSans-44" transform="scale(0.015625)"/>
      <path d="M 2631 2963
Q 2534 3019 2420 3045
Q 2306 3072 2169 3072
Q 1681 3072 1420 2755
Q 1159 2438 1159 1844
L 1159 0
L 581 0
L 581 3500
L 1159 3500
L 1159 2956
Q 1341 3275 1631 3429
Q 1922 3584 2338 3584
Q 2397 3584 2469 3576
Q 2541 3569 2628 3553
L 2631 2963
z
" id="DejaVuSans-72" transform="scale(0.015625)"/>
      <path d="M 3597 1894
L 3597 1613
L 953 1613
Q 991 1019 1311 708
Q 1631 397 2203 397
Q 2534 397 2845 478
Q 3156 559 3463 722
L 3463 178
Q 3153 47 2828 -22
Q 2503 -91 2169 -91
Q 1331 -91 842 396
Q 353 884 353 1716
Q 353 2575 817 3079
Q 1281 3584 2069 3584
Q 2775 3584 3186 3129
Q 3597 2675 3597 1894
z
M 3022 2063
Q 3016 2534 2758 2815
Q 2500 3097 2075 3097
Q 1594 3097 1305 2825
Q 1016 2553 972 2059
L 3022 2063
z
" id="DejaVuSans-65" transform="scale(0.015625)"/>
      <path d="M 603 4863
L 1178 4863
L 1178 0
L 603 0
L 603 4863
z
" id="DejaVuSans-6c" transform="scale(0.015625)"/>
      <path d="M 2194 1759
Q 1497 1759 1228 1600
Q 959 1441 959 1056
Q 959 750 1161 570
Q 1363 391 1709 391
Q 2188 391 2477 730
Q 2766 1069 2766 1631
L 2766 1759
L 2194 1759
z
M 3341 1997
L 3341 0
L 2766 0
L 2766 531
Q 2569 213 2275 61
Q 1981 -91 1556 -91
Q 1019 -91 701 211
Q 384 513 384 1019
Q 384 1609 779 1909
Q 1175 2209 1959 2209
L 2766 2209
L 2766 2266
Q 2766 2663 2505 2880
Q 2244 3097 1772 3097
Q 1472 3097 1187 3025
Q 903 2953 641 2809
L 641 3341
Q 956 3463 1253 3523
Q 1550 3584 1831 3584
Q 2591 3584 2966 3190
Q 3341 2797 3341 1997
z
" id="DejaVuSans-61" transform="scale(0.015625)"/>
      <path d="M 1172 4494
L 1172 3500
L 2356 3500
L 2356 3053
L 1172 3053
L 1172 1153
Q 1172 725 1289 603
Q 1406 481 1766 481
L 2356 481
L 2356 0
L 1766 0
Q 1100 0 847 248
Q 594 497 594 1153
L 594 3053
L 172 3053
L 172 3500
L 594 3500
L 594 4494
L 1172 4494
z
" id="DejaVuSans-74" transform="scale(0.015625)"/>
      <path d="M 2906 2969
L 2906 4863
L 3481 4863
L 3481 0
L 2906 0
L 2906 525
Q 2725 213 2448 61
Q 2172 -91 1784 -91
Q 1150 -91 751 415
Q 353 922 353 1747
Q 353 2572 751 3078
Q 1150 3584 1784 3584
Q 2172 3584 2448 3432
Q 2725 3281 2906 2969
z
M 947 1747
Q 947 1113 1208 752
Q 1469 391 1925 391
Q 2381 391 2643 752
Q 2906 1113 2906 1747
Q 2906 2381 2643 2742
Q 2381 3103 1925 3103
Q 1469 3103 1208 2742
Q 947 2381 947 1747
z
" id="DejaVuSans-64" transform="scale(0.015625)"/>
      <path id="DejaVuSans-20" transform="scale(0.015625)"/>
      <path d="M 2834 3397
L 2834 2853
Q 2591 2978 2328 3040
Q 2066 3103 1784 3103
Q 1356 3103 1142 2972
Q 928 2841 928 2578
Q 928 2378 1081 2264
Q 1234 2150 1697 2047
L 1894 2003
Q 2506 1872 2764 1633
Q 3022 1394 3022 966
Q 3022 478 2636 193
Q 2250 -91 1575 -91
Q 1294 -91 989 -36
Q 684 19 347 128
L 347 722
Q 666 556 975 473
Q 1284 391 1588 391
Q 1994 391 2212 530
Q 2431 669 2431 922
Q 2431 1156 2273 1281
Q 2116 1406 1581 1522
L 1381 1569
Q 847 1681 609 1914
Q 372 2147 372 2553
Q 372 3047 722 3315
Q 1072 3584 1716 3584
Q 2034 3584 2315 3537
Q 2597 3491 2834 3397
z
" id="DejaVuSans-73" transform="scale(0.015625)"/>
      <path d="M 3513 2113
L 3513 0
L 2938 0
L 2938 2094
Q 2938 2591 2744 2837
Q 2550 3084 2163 3084
Q 1697 3084 1428 2787
Q 1159 2491 1159 1978
L 1159 0
L 581 0
L 581 3500
L 1159 3500
L 1159 2956
Q 1366 3272 1645 3428
Q 1925 3584 2291 3584
Q 2894 3584 3203 3211
Q 3513 2838 3513 2113
z
" id="DejaVuSans-6e" transform="scale(0.015625)"/>
      <path d="M 3513 2113
L 3513 0
L 2938 0
L 2938 2094
Q 2938 2591 2744 2837
Q 2550 3084 2163 3084
Q 1697 3084 1428 2787
Q 1159 2491 1159 1978
L 1159 0
L 581 0
L 581 4863
L 1159 4863
L 1159 2956
Q 1366 3272 1645 3428
Q 1925 3584 2291 3584
Q 2894 3584 3203 3211
Q 3513 2838 3513 2113
z
" id="DejaVuSans-68" transform="scale(0.015625)"/>
      <path d="M 603 3500
L 1178 3500
L 1178 0
L 603 0
L 603 3500
z
M 603 4863
L 1178 4863
L 1178 4134
L 603 4134
L 603 4863
z
" id="DejaVuSans-69" transform="scale(0.015625)"/>
      <path d="M 3809 666
L 3809 1919
L 2778 1919
L 2778 2438
L 4434 2438
L 4434 434
Q 4069 175 3628 42
Q 3188 -91 2688 -91
Q 1594 -91 976 548
Q 359 1188 359 2328
Q 359 3472 976 4111
Q 1594 4750 2688 4750
Q 3144 4750 3555 4637
Q 3966 4525 4313 4306
L 4313 3634
Q 3963 3931 3569 4081
Q 3175 4231 2741 4231
Q 1884 4231 1454 3753
Q 1025 3275 1025 2328
Q 1025 1384 1454 906
Q 1884 428 2741 428
Q 3075 428 3337 486
Q 3600 544 3809 666
z
" id="DejaVuSans-47" transform="scale(0.015625)"/>
      <path d="M 3328 2828
Q 3544 3216 3844 3400
Q 4144 3584 4550 3584
Q 5097 3584 5394 3201
Q 5691 2819 5691 2113
L 5691 0
L 5113 0
L 5113 2094
Q 5113 2597 4934 2840
Q 4756 3084 4391 3084
Q 3944 3084 3684 2787
Q 3425 2491 3425 1978
L 3425 0
L 2847 0
L 2847 2094
Q 2847 2600 2669 2842
Q 2491 3084 2119 3084
Q 1678 3084 1418 2786
Q 1159 2488 1159 1978
L 1159 0
L 581 0
L 581 3500
L 1159 3500
L 1159 2956
Q 1356 3278 1631 3431
Q 1906 3584 2284 3584
Q 2666 3584 2933 3390
Q 3200 3197 3328 2828
z
" id="DejaVuSans-6d" transform="scale(0.015625)"/>
      <path d="M 2059 -325
Q 1816 -950 1584 -1140
Q 1353 -1331 966 -1331
L 506 -1331
L 506 -850
L 844 -850
Q 1081 -850 1212 -737
Q 1344 -625 1503 -206
L 1606 56
L 191 3500
L 800 3500
L 1894 763
L 2988 3500
L 3597 3500
L 2059 -325
z
" id="DejaVuSans-79" transform="scale(0.015625)"/>
     </defs>
     <use xlink:href="#DejaVuSans-43"/>
     <use x="69.824219" xlink:href="#DejaVuSans-4f"/>
     <use x="146.785156" xlink:href="#DejaVuSans-56"/>
     <use x="215.193359" xlink:href="#DejaVuSans-49"/>
     <use x="244.685547" xlink:href="#DejaVuSans-44"/>
     <use x="321.6875" xlink:href="#DejaVuSans-31"/>
     <use x="385.310547" xlink:href="#DejaVuSans-39"/>
     <use x="448.933594" xlink:href="#DejaVuSans-2d"/>
     <use x="485.017578" xlink:href="#DejaVuSans-72"/>
     <use x="523.880859" xlink:href="#DejaVuSans-65"/>
     <use x="585.404297" xlink:href="#DejaVuSans-6c"/>
     <use x="613.1875" xlink:href="#DejaVuSans-61"/>
     <use x="674.466797" xlink:href="#DejaVuSans-74"/>
     <use x="713.675781" xlink:href="#DejaVuSans-65"/>
     <use x="775.199219" xlink:href="#DejaVuSans-64"/>
     <use x="838.675781" xlink:href="#DejaVuSans-20"/>
     <use x="870.462891" xlink:href="#DejaVuSans-43"/>
     <use x="940.287109" xlink:href="#DejaVuSans-61"/>
     <use x="1001.566406" xlink:href="#DejaVuSans-73"/>
     <use x="1053.666016" xlink:href="#DejaVuSans-65"/>
     <use x="1115.189453" xlink:href="#DejaVuSans-73"/>
     <use x="1167.289062" xlink:href="#DejaVuSans-20"/>
     <use x="1199.076172" xlink:href="#DejaVuSans-61"/>
     <use x="1260.355469" xlink:href="#DejaVuSans-6e"/>
     <use x="1323.734375" xlink:href="#DejaVuSans-64"/>
     <use x="1387.210938" xlink:href="#DejaVuSans-20"/>
     <use x="1418.998047" xlink:href="#DejaVuSans-44"/>
     <use x="1496" xlink:href="#DejaVuSans-65"/>
     <use x="1557.523438" xlink:href="#DejaVuSans-61"/>
     <use x="1618.802734" xlink:href="#DejaVuSans-74"/>
     <use x="1658.011719" xlink:href="#DejaVuSans-68"/>
     <use x="1721.390625" xlink:href="#DejaVuSans-73"/>
     <use x="1773.490234" xlink:href="#DejaVuSans-20"/>
     <use x="1805.277344" xlink:href="#DejaVuSans-69"/>
     <use x="1833.060547" xlink:href="#DejaVuSans-6e"/>
     <use x="1896.439453" xlink:href="#DejaVuSans-20"/>
     <use x="1928.226562" xlink:href="#DejaVuSans-47"/>
     <use x="2005.716797" xlink:href="#DejaVuSans-65"/>
     <use x="2067.240234" xlink:href="#DejaVuSans-72"/>
     <use x="2106.603516" xlink:href="#DejaVuSans-6d"/>
     <use x="2204.015625" xlink:href="#DejaVuSans-61"/>
     <use x="2265.294922" xlink:href="#DejaVuSans-6e"/>
     <use x="2328.673828" xlink:href="#DejaVuSans-79"/>
    </g>
   </g>
   <g id="legend_1">
    <g id="patch_7">
     <path d="M 341.623125 78.82825
L 407.72 78.82825
Q 409.72 78.82825 409.72 76.82825
L 409.72 48.472
Q 409.72 46.472 407.72 46.472
L 341.623125 46.472
Q 339.623125 46.472 339.623125 48.472
L 339.623125 76.82825
Q 339.623125 78.82825 341.623125 78.82825
z
" style="fill:#ffffff;opacity:0.8;stroke:#cccccc;stroke-linejoin:miter;"/>
    </g>
    <g id="line2d_31">
     <path d="M 343.623125 54.570437
L 363.623125 54.570437
" style="fill:none;stroke:#ff9d2e;stroke-linecap:square;stroke-opacity:0.85;stroke-width:0.8;"/>
    </g>
    <g id="line2d_32"/>
    <g id="text_16">
     <!-- cases -->
     <g transform="translate(371.623125 58.070437)scale(0.1 -0.1)">
      <defs>
       <path d="M 3122 3366
L 3122 2828
Q 2878 2963 2633 3030
Q 2388 3097 2138 3097
Q 1578 3097 1268 2742
Q 959 2388 959 1747
Q 959 1106 1268 751
Q 1578 397 2138 397
Q 2388 397 2633 464
Q 2878 531 3122 666
L 3122 134
Q 2881 22 2623 -34
Q 2366 -91 2075 -91
Q 1284 -91 818 406
Q 353 903 353 1747
Q 353 2603 823 3093
Q 1294 3584 2113 3584
Q 2378 3584 2631 3529
Q 2884 3475 3122 3366
z
" id="DejaVuSans-63" transform="scale(0.015625)"/>
      </defs>
      <use xlink:href="#DejaVuSans-63"/>
      <use x="54.980469" xlink:href="#DejaVuSans-61"/>
      <use x="116.259766" xlink:href="#DejaVuSans-73"/>
      <use x="168.359375" xlink:href="#DejaVuSans-65"/>
      <use x="229.882812" xlink:href="#DejaVuSans-73"/>
     </g>
    </g>
    <g id="line2d_33">
     <path d="M 343.623125 69.248562
L 363.623125 69.248562
" style="fill:none;stroke:#ff2e5f;stroke-linecap:square;stroke-opacity:0.75;stroke-width:0.8;"/>
    </g>
    <g id="line2d_34"/>
    <g id="text_17">
     <!-- deaths -->
     <g transform="translate(371.623125 72.748562)scale(0.1 -0.1)">
      <use xlink:href="#DejaVuSans-64"/>
      <use x="63.476562" xlink:href="#DejaVuSans-65"/>
      <use x="125" xlink:href="#DejaVuSans-61"/>
      <use x="186.279297" xlink:href="#DejaVuSans-74"/>
      <use x="225.488281" xlink:href="#DejaVuSans-68"/>
      <use x="288.867188" xlink:href="#DejaVuSans-73"/>
     </g>
    </g>
   </g>
  </g>
 </g>
 <defs>
  <clipPath id="pf6ff27e602">
   <rect height="235.008" width="357.12" x="57.6" y="41.472"/>
  </clipPath>
 </defs>
</svg>
