<?xml version="1.0" encoding="utf-8" standalone="no"?>
<!DOCTYPE svg PUBLIC "-//W3C//DTD SVG 1.1//EN"
  "http://www.w3.org/Graphics/SVG/1.1/DTD/svg11.dtd">
<svg height="345.6pt" version="1.1" viewBox="0 0 460.8 345.6" width="460.8pt" xmlns="http://www.w3.org/2000/svg" xmlns:xlink="http://www.w3.org/1999/xlink">
 <metadata>
  <rdf:RDF xmlns:cc="http://creativecommons.org/ns#" xmlns:dc="http://purl.org/dc/elements/1.1/" xmlns:rdf="http://www.w3.org/1999/02/22-rdf-syntax-ns#">
   <cc:Work>
    <dc:type rdf:resource="http://purl.org/dc/dcmitype/StillImage"/>
    <dc:date>2021-06-05T22:39:16.071759</dc:date>
    <dc:format>image/svg+xml</dc:format>
    <dc:creator>
     <cc:Agent>
      <dc:title>Matplotlib v3.4.2, https://matplotlib.org/</dc:title>
     </cc:Agent>
    </dc:creator>
   </cc:Work>
  </rdf:RDF>
 </metadata>
 <defs>
  <style type="text/css">*{stroke-linecap:butt;stroke-linejoin:round;}</style>
 </defs>
 <g id="figure_1">
  <g id="patch_1">
   <path d="M 0 345.6 
L 460.8 345.6 
L 460.8 0 
L 0 0 
z
" style="fill:#ffffff;"/>
  </g>
  <g id="axes_1">
   <g id="patch_2">
    <path d="M 57.6 276.48 
L 414.72 276.48 
L 414.72 41.472 
L 57.6 41.472 
z
" style="fill:#ffffff;"/>
   </g>
   <g id="PolyCollection_1">
    <defs>
     <path d="M 73.832727 -79.802182 
L 73.832727 -79.814 
L 75.152461 -79.817546 
L 75.812328 -79.817546 
L 77.132062 -79.817546 
L 77.791929 -79.81991 
L 79.111663 -79.81991 
L 79.77153 -79.818728 
L 82.410998 -79.818728 
L 83.070865 -79.815182 
L 86.3702 -79.815182 
L 87.030067 -79.815182 
L 88.3498 -79.812819 
L 90.989268 -79.812819 
L 91.649135 -79.815182 
L 92.309002 -79.821092 
L 92.968869 -79.848275 
L 93.628736 -79.903822 
L 94.288603 -79.929823 
L 94.94847 -79.968825 
L 95.608337 -80.0161 
L 96.268204 -80.111831 
L 96.928071 -80.290293 
L 97.587938 -80.481755 
L 98.247805 -80.644853 
L 98.907672 -80.785495 
L 99.567539 -80.86468 
L 100.227406 -81.223967 
L 100.887273 -81.829083 
L 101.54714 -82.535839 
L 102.207007 -83.488423 
L 102.866874 -84.990576 
L 103.526741 -86.363904 
L 104.186608 -87.400401 
L 104.846475 -89.403665 
L 105.506341 -92.276782 
L 106.166208 -95.641556 
L 106.826075 -99.263977 
L 107.485942 -102.328557 
L 108.145809 -104.75611 
L 108.805676 -106.274809 
L 109.465543 -108.272163 
L 110.12541 -110.464525 
L 110.785277 -112.919262 
L 111.445144 -115.100987 
L 112.105011 -117.378444 
L 112.764878 -118.992874 
L 113.424745 -119.953731 
L 114.084612 -120.411113 
L 114.744479 -121.80217 
L 115.404346 -122.480562 
L 116.064213 -123.242865 
L 116.72408 -123.482784 
L 117.383947 -123.030129 
L 118.043814 -122.402558 
L 118.703681 -121.8719 
L 119.363548 -120.850768 
L 120.023415 -119.698448 
L 120.683282 -117.757823 
L 121.343149 -114.422596 
L 122.003016 -112.705344 
L 122.662882 -111.898129 
L 123.322749 -109.452848 
L 123.982616 -106.228716 
L 124.642483 -103.920531 
L 125.30235 -102.160732 
L 125.962217 -101.790807 
L 126.622084 -100.868951 
L 127.281951 -100.293383 
L 127.941818 -100.431661 
L 128.601685 -100.096011 
L 129.261552 -99.106789 
L 129.921419 -97.538452 
L 130.581286 -96.189942 
L 131.241153 -95.203084 
L 131.90102 -94.407688 
L 132.560887 -93.698568 
L 133.220754 -92.854715 
L 133.880621 -91.605482 
L 134.540488 -90.859724 
L 135.200355 -89.693222 
L 135.860222 -88.921463 
L 136.520089 -88.592905 
L 137.179956 -88.135522 
L 137.839823 -87.688777 
L 138.49969 -87.439403 
L 139.159557 -87.132118 
L 139.819424 -87.206575 
L 140.47929 -87.273942 
L 141.139157 -87.177029 
L 141.799024 -87.12739 
L 142.458891 -86.847288 
L 143.118758 -86.482091 
L 143.778625 -86.021163 
L 144.438492 -85.722151 
L 145.098359 -85.463322 
L 145.758226 -85.431412 
L 146.418093 -85.258859 
L 147.07796 -85.112308 
L 147.737827 -85.014213 
L 148.397694 -84.549739 
L 149.057561 -84.313366 
L 149.717428 -84.17036 
L 150.377295 -84.054537 
L 151.037162 -83.902077 
L 151.697029 -83.768526 
L 152.356896 -83.554608 
L 153.016763 -83.688159 
L 153.67663 -83.591246 
L 154.336497 -83.634975 
L 154.996364 -83.588882 
L 155.656231 -83.263869 
L 156.316098 -82.893944 
L 156.975965 -82.714301 
L 157.635831 -82.713119 
L 158.295698 -82.703664 
L 158.955565 -82.598478 
L 159.615432 -82.58075 
L 160.275299 -82.768667 
L 160.935166 -82.912854 
L 161.595033 -82.938855 
L 162.2549 -82.643389 
L 162.914767 -82.541748 
L 163.574634 -82.558294 
L 164.234501 -82.567749 
L 164.894368 -82.52402 
L 165.554235 -82.659935 
L 166.214102 -83.208321 
L 166.873969 -83.62552 
L 167.533836 -84.30982 
L 168.193703 -84.57574 
L 168.85357 -84.672654 
L 169.513437 -84.937392 
L 170.173304 -84.948028 
L 170.833171 -84.384278 
L 171.493038 -84.313366 
L 172.152905 -83.896167 
L 172.812772 -83.665703 
L 173.472639 -83.600701 
L 174.132506 -83.520334 
L 174.792373 -83.412784 
L 175.452239 -83.387965 
L 176.112106 -83.27096 
L 176.771973 -83.092498 
L 177.43184 -83.047587 
L 178.091707 -82.980221 
L 178.751574 -82.867943 
L 179.411441 -82.787576 
L 180.071308 -82.752121 
L 180.731175 -82.697755 
L 181.391042 -82.697755 
L 182.050909 -82.68239 
L 182.710776 -82.66939 
L 183.370643 -82.674117 
L 184.03051 -82.759212 
L 184.690377 -82.857307 
L 185.350244 -83.010949 
L 186.010111 -83.124408 
L 186.669978 -83.30287 
L 187.329845 -83.370237 
L 187.989712 -83.525061 
L 188.649579 -83.591246 
L 189.309446 -83.781526 
L 189.969313 -83.946987 
L 190.62918 -84.280274 
L 191.289047 -84.415007 
L 191.948914 -84.44219 
L 192.60878 -84.527284 
L 193.268647 -84.807386 
L 193.928514 -85.052033 
L 194.588381 -85.236404 
L 195.248248 -85.374682 
L 195.908115 -85.395956 
L 196.567982 -85.508233 
L 197.227849 -85.827337 
L 197.887716 -86.05071 
L 198.547583 -86.295356 
L 199.20745 -86.66528 
L 199.867317 -86.765739 
L 200.527184 -86.943019 
L 201.187051 -86.958383 
L 201.846918 -87.321216 
L 202.506785 -87.614319 
L 203.166652 -88.12134 
L 203.826519 -88.505446 
L 204.486386 -88.942737 
L 205.146253 -88.994739 
L 205.80612 -89.199202 
L 206.465987 -89.725133 
L 207.125854 -90.132877 
L 207.785721 -90.38816 
L 208.445588 -90.544166 
L 209.105455 -90.873907 
L 209.765322 -91.061824 
L 210.425188 -91.1481 
L 211.085055 -91.00864 
L 211.744922 -90.941273 
L 212.404789 -90.771084 
L 213.064656 -90.67299 
L 213.724523 -90.358613 
L 214.38439 -90.259336 
L 215.044257 -90.227426 
L 215.704124 -89.93905 
L 216.363991 -89.746406 
L 217.023858 -89.515942 
L 217.683725 -89.491123 
L 218.343592 -89.617583 
L 219.003459 -89.943778 
L 219.663326 -89.991053 
L 220.323193 -90.251063 
L 220.98306 -90.327885 
L 221.642927 -90.722628 
L 222.302794 -90.811268 
L 222.962661 -90.994457 
L 223.622528 -91.137463 
L 224.282395 -91.351381 
L 224.942262 -91.438839 
L 225.602129 -92.17396 
L 226.261996 -92.698709 
L 226.921863 -93.596927 
L 227.581729 -94.21268 
L 228.241596 -94.408869 
L 228.901463 -94.327321 
L 229.56133 -94.534147 
L 230.221197 -94.307229 
L 230.881064 -94.320229 
L 231.540931 -94.37105 
L 232.200798 -94.555421 
L 232.860665 -95.019894 
L 233.520532 -95.236176 
L 234.180399 -95.431184 
L 234.840266 -95.851928 
L 235.500133 -96.472408 
L 236.16 -97.098797 
L 236.819867 -97.796099 
L 237.479734 -98.286573 
L 238.139601 -98.616314 
L 238.799468 -99.313615 
L 239.459335 -100.990684 
L 240.119202 -103.066041 
L 240.779069 -105.12958 
L 241.438936 -107.652865 
L 242.098803 -109.345298 
L 242.75867 -110.672534 
L 243.418537 -112.776256 
L 244.078404 -114.879978 
L 244.738271 -118.143112 
L 245.398137 -121.969995 
L 246.058004 -125.419863 
L 246.717871 -127.8616 
L 247.377738 -129.524486 
L 248.037605 -132.222687 
L 248.697472 -137.037611 
L 249.357339 -143.124223 
L 250.017206 -150.205967 
L 250.677073 -157.372805 
L 251.33694 -163.753702 
L 251.996807 -168.224703 
L 252.656674 -174.784062 
L 253.316541 -182.492195 
L 253.976408 -190.586798 
L 254.636275 -197.623631 
L 255.296142 -203.982073 
L 255.956009 -207.429577 
L 256.615876 -211.057907 
L 257.275743 -214.875336 
L 257.93561 -218.87359 
L 258.595477 -221.203049 
L 259.255344 -224.04662 
L 259.915211 -226.60536 
L 260.575078 -228.869817 
L 261.234945 -228.440799 
L 261.894812 -229.266924 
L 262.554678 -229.589573 
L 263.214545 -231.334008 
L 263.874412 -232.800704 
L 264.534279 -232.551331 
L 265.194146 -232.402415 
L 265.854013 -230.851807 
L 266.51388 -229.369746 
L 267.173747 -230.232509 
L 267.833614 -231.427376 
L 268.493481 -231.712205 
L 269.153348 -232.816069 
L 269.813215 -231.608201 
L 270.473082 -231.584564 
L 271.132949 -232.046674 
L 271.792816 -230.954629 
L 272.452683 -229.031732 
L 273.11255 -227.866412 
L 273.772417 -225.334854 
L 274.432284 -225.525135 
L 275.092151 -225.473132 
L 275.752018 -223.381229 
L 276.411885 -223.161402 
L 277.071752 -224.481546 
L 277.731619 -226.482446 
L 278.391486 -228.984458 
L 279.051353 -229.887404 
L 279.71122 -231.607019 
L 280.371086 -235.314534 
L 281.030953 -239.53498 
L 281.69082 -244.827378 
L 282.350687 -250.271055 
L 283.010554 -256.168568 
L 283.670421 -261.986897 
L 284.330288 -264.64846 
L 284.990155 -267.741405 
L 285.650022 -272.601239 
L 286.309889 -276.954054 
L 286.969756 -280.44056 
L 287.629623 -283.415318 
L 288.28949 -284.705916 
L 288.949357 -286.393621 
L 289.609224 -287.891046 
L 290.269091 -290.329236 
L 290.928958 -293.445818 
L 291.588825 -280.656841 
L 292.248692 -261.037858 
L 292.908559 -249.026549 
L 293.568426 -244.156077 
L 294.228293 -238.707673 
L 294.88816 -237.024695 
L 295.548027 -233.597282 
L 296.207894 -231.758298 
L 296.867761 -228.313158 
L 297.527627 -226.47181 
L 298.187494 -225.30058 
L 298.847361 -223.569146 
L 299.507228 -223.376501 
L 300.167095 -219.697351 
L 300.826962 -227.396029 
L 301.486829 -244.278992 
L 302.146696 -252.158495 
L 302.806563 -251.753115 
L 303.46643 -250.897444 
L 304.126297 -245.242213 
L 304.786164 -240.661298 
L 305.446031 -233.941206 
L 306.105898 -226.576996 
L 306.765765 -222.740657 
L 307.425632 -220.535294 
L 308.085499 -215.369356 
L 308.745366 -210.481156 
L 309.405233 -205.055207 
L 310.0651 -200.75085 
L 310.724967 -196.853054 
L 311.384834 -194.671329 
L 312.044701 -192.793343 
L 312.704568 -189.932044 
L 313.364435 -186.410082 
L 314.024302 -182.064359 
L 314.684169 -177.998739 
L 315.344035 -175.104348 
L 316.003902 -173.17436 
L 316.663769 -172.213502 
L 317.323636 -171.16755 
L 317.983503 -167.415124 
L 318.64337 -164.565644 
L 319.303237 -162.376828 
L 319.963104 -159.359523 
L 320.622971 -157.512265 
L 321.282838 -156.193302 
L 321.942705 -154.221949 
L 322.602572 -150.412794 
L 323.262439 -146.681641 
L 323.922306 -144.135901 
L 324.582173 -142.376102 
L 325.24204 -139.109423 
L 325.901907 -139.885909 
L 326.561774 -140.131737 
L 327.221641 -140.311381 
L 327.881508 -140.006459 
L 328.541375 -139.859908 
L 329.201242 -140.086826 
L 329.861109 -142.65384 
L 330.520976 -141.819442 
L 331.180843 -141.826534 
L 331.84071 -142.950489 
L 332.500576 -144.469187 
L 333.160443 -145.281129 
L 333.82031 -146.130891 
L 334.480177 -145.986704 
L 335.140044 -146.472451 
L 335.799911 -146.812828 
L 336.459778 -147.711047 
L 337.119645 -147.727593 
L 337.779512 -147.963966 
L 338.439379 -148.236977 
L 339.099246 -148.972098 
L 339.759113 -148.864548 
L 340.41898 -149.050101 
L 341.078847 -149.715492 
L 341.738714 -152.901804 
L 342.398581 -156.454495 
L 343.058448 -159.831087 
L 343.718315 -162.424102 
L 344.378182 -164.199266 
L 345.038049 -166.516906 
L 345.697916 -171.575294 
L 346.357783 -176.738869 
L 347.01765 -181.003043 
L 347.677517 -184.76847 
L 348.337384 -188.017421 
L 348.997251 -189.317474 
L 349.657118 -191.819485 
L 350.316984 -196.210119 
L 350.976851 -201.275599 
L 351.636718 -207.392939 
L 352.296585 -212.498602 
L 352.956452 -215.501725 
L 353.616319 -217.44235 
L 354.276186 -219.892359 
L 354.936053 -220.933583 
L 355.59592 -222.543285 
L 356.255787 -221.986626 
L 356.915654 -216.643408 
L 357.575521 -210.583979 
L 358.235388 -210.061594 
L 358.895255 -205.402676 
L 359.555122 -194.914793 
L 360.214989 -194.593326 
L 360.874856 -199.700171 
L 361.534723 -208.898637 
L 362.19459 -217.685814 
L 362.854457 -219.693805 
L 363.514324 -225.682323 
L 364.174191 -243.692786 
L 364.834058 -249.434293 
L 365.493925 -248.612896 
L 366.153792 -248.302065 
L 366.813659 -247.858865 
L 367.473525 -247.823409 
L 368.133392 -248.063328 
L 368.793259 -249.507569 
L 369.453126 -250.541702 
L 370.112993 -251.027449 
L 370.77286 -250.949446 
L 371.432727 -251.331189 
L 372.092594 -251.201183 
L 372.752461 -251.07236 
L 373.412328 -247.862411 
L 374.072195 -242.627924 
L 374.732062 -237.862639 
L 375.391929 -233.382183 
L 376.051796 -229.905132 
L 376.711663 -227.468123 
L 377.37153 -223.851612 
L 378.031397 -218.796769 
L 378.691264 -213.928661 
L 379.351131 -208.879727 
L 380.010998 -204.513913 
L 380.670865 -200.911584 
L 381.330732 -199.331428 
L 381.990599 -197.285617 
L 382.650466 -192.327688 
L 383.310333 -187.074291 
L 383.9702 -178.198474 
L 384.630067 -168.939732 
L 385.289933 -164.863475 
L 385.9498 -163.627242 
L 386.609667 -161.096866 
L 387.269534 -155.85647 
L 387.929401 -149.774586 
L 388.589268 -148.300798 
L 389.249135 -148.234614 
L 389.909002 -144.972662 
L 390.568869 -142.281552 
L 391.228736 -138.165111 
L 391.888603 -127.875782 
L 392.54847 -122.894215 
L 393.208337 -121.016229 
L 393.868204 -118.146657 
L 394.528071 -115.619827 
L 395.187938 -115.141171 
L 395.847805 -115.876292 
L 396.507672 -117.575816 
L 397.167539 -114.436778 
L 397.827406 -109.71404 
L 398.487273 -105.607054 
L 398.487273 -79.802182 
L 398.487273 -79.802182 
L 397.827406 -79.802182 
L 397.167539 -79.802182 
L 396.507672 -79.802182 
L 395.847805 -79.802182 
L 395.187938 -79.802182 
L 394.528071 -79.802182 
L 393.868204 -79.802182 
L 393.208337 -79.802182 
L 392.54847 -79.802182 
L 391.888603 -79.802182 
L 391.228736 -79.802182 
L 390.568869 -79.802182 
L 389.909002 -79.802182 
L 389.249135 -79.802182 
L 388.589268 -79.802182 
L 387.929401 -79.802182 
L 387.269534 -79.802182 
L 386.609667 -79.802182 
L 385.9498 -79.802182 
L 385.289933 -79.802182 
L 384.630067 -79.802182 
L 383.9702 -79.802182 
L 383.310333 -79.802182 
L 382.650466 -79.802182 
L 381.990599 -79.802182 
L 381.330732 -79.802182 
L 380.670865 -79.802182 
L 380.010998 -79.802182 
L 379.351131 -79.802182 
L 378.691264 -79.802182 
L 378.031397 -79.802182 
L 377.37153 -79.802182 
L 376.711663 -79.802182 
L 376.051796 -79.802182 
L 375.391929 -79.802182 
L 374.732062 -79.802182 
L 374.072195 -79.802182 
L 373.412328 -79.802182 
L 372.752461 -79.802182 
L 372.092594 -79.802182 
L 371.432727 -79.802182 
L 370.77286 -79.802182 
L 370.112993 -79.802182 
L 369.453126 -79.802182 
L 368.793259 -79.802182 
L 368.133392 -79.802182 
L 367.473525 -79.802182 
L 366.813659 -79.802182 
L 366.153792 -79.802182 
L 365.493925 -79.802182 
L 364.834058 -79.802182 
L 364.174191 -79.802182 
L 363.514324 -79.802182 
L 362.854457 -79.802182 
L 362.19459 -79.802182 
L 361.534723 -79.802182 
L 360.874856 -79.802182 
L 360.214989 -79.802182 
L 359.555122 -79.802182 
L 358.895255 -79.802182 
L 358.235388 -79.802182 
L 357.575521 -79.802182 
L 356.915654 -79.802182 
L 356.255787 -79.802182 
L 355.59592 -79.802182 
L 354.936053 -79.802182 
L 354.276186 -79.802182 
L 353.616319 -79.802182 
L 352.956452 -79.802182 
L 352.296585 -79.802182 
L 351.636718 -79.802182 
L 350.976851 -79.802182 
L 350.316984 -79.802182 
L 349.657118 -79.802182 
L 348.997251 -79.802182 
L 348.337384 -79.802182 
L 347.677517 -79.802182 
L 347.01765 -79.802182 
L 346.357783 -79.802182 
L 345.697916 -79.802182 
L 345.038049 -79.802182 
L 344.378182 -79.802182 
L 343.718315 -79.802182 
L 343.058448 -79.802182 
L 342.398581 -79.802182 
L 341.738714 -79.802182 
L 341.078847 -79.802182 
L 340.41898 -79.802182 
L 339.759113 -79.802182 
L 339.099246 -79.802182 
L 338.439379 -79.802182 
L 337.779512 -79.802182 
L 337.119645 -79.802182 
L 336.459778 -79.802182 
L 335.799911 -79.802182 
L 335.140044 -79.802182 
L 334.480177 -79.802182 
L 333.82031 -79.802182 
L 333.160443 -79.802182 
L 332.500576 -79.802182 
L 331.84071 -79.802182 
L 331.180843 -79.802182 
L 330.520976 -79.802182 
L 329.861109 -79.802182 
L 329.201242 -79.802182 
L 328.541375 -79.802182 
L 327.881508 -79.802182 
L 327.221641 -79.802182 
L 326.561774 -79.802182 
L 325.901907 -79.802182 
L 325.24204 -79.802182 
L 324.582173 -79.802182 
L 323.922306 -79.802182 
L 323.262439 -79.802182 
L 322.602572 -79.802182 
L 321.942705 -79.802182 
L 321.282838 -79.802182 
L 320.622971 -79.802182 
L 319.963104 -79.802182 
L 319.303237 -79.802182 
L 318.64337 -79.802182 
L 317.983503 -79.802182 
L 317.323636 -79.802182 
L 316.663769 -79.802182 
L 316.003902 -79.802182 
L 315.344035 -79.802182 
L 314.684169 -79.802182 
L 314.024302 -79.802182 
L 313.364435 -79.802182 
L 312.704568 -79.802182 
L 312.044701 -79.802182 
L 311.384834 -79.802182 
L 310.724967 -79.802182 
L 310.0651 -79.802182 
L 309.405233 -79.802182 
L 308.745366 -79.802182 
L 308.085499 -79.802182 
L 307.425632 -79.802182 
L 306.765765 -79.802182 
L 306.105898 -79.802182 
L 305.446031 -79.802182 
L 304.786164 -79.802182 
L 304.126297 -79.802182 
L 303.46643 -79.802182 
L 302.806563 -79.802182 
L 302.146696 -79.802182 
L 301.486829 -79.802182 
L 300.826962 -79.802182 
L 300.167095 -79.802182 
L 299.507228 -79.802182 
L 298.847361 -79.802182 
L 298.187494 -79.802182 
L 297.527627 -79.802182 
L 296.867761 -79.802182 
L 296.207894 -79.802182 
L 295.548027 -79.802182 
L 294.88816 -79.802182 
L 294.228293 -79.802182 
L 293.568426 -79.802182 
L 292.908559 -79.802182 
L 292.248692 -79.802182 
L 291.588825 -79.802182 
L 290.928958 -79.802182 
L 290.269091 -79.802182 
L 289.609224 -79.802182 
L 288.949357 -79.802182 
L 288.28949 -79.802182 
L 287.629623 -79.802182 
L 286.969756 -79.802182 
L 286.309889 -79.802182 
L 285.650022 -79.802182 
L 284.990155 -79.802182 
L 284.330288 -79.802182 
L 283.670421 -79.802182 
L 283.010554 -79.802182 
L 282.350687 -79.802182 
L 281.69082 -79.802182 
L 281.030953 -79.802182 
L 280.371086 -79.802182 
L 279.71122 -79.802182 
L 279.051353 -79.802182 
L 278.391486 -79.802182 
L 277.731619 -79.802182 
L 277.071752 -79.802182 
L 276.411885 -79.802182 
L 275.752018 -79.802182 
L 275.092151 -79.802182 
L 274.432284 -79.802182 
L 273.772417 -79.802182 
L 273.11255 -79.802182 
L 272.452683 -79.802182 
L 271.792816 -79.802182 
L 271.132949 -79.802182 
L 270.473082 -79.802182 
L 269.813215 -79.802182 
L 269.153348 -79.802182 
L 268.493481 -79.802182 
L 267.833614 -79.802182 
L 267.173747 -79.802182 
L 266.51388 -79.802182 
L 265.854013 -79.802182 
L 265.194146 -79.802182 
L 264.534279 -79.802182 
L 263.874412 -79.802182 
L 263.214545 -79.802182 
L 262.554678 -79.802182 
L 261.894812 -79.802182 
L 261.234945 -79.802182 
L 260.575078 -79.802182 
L 259.915211 -79.802182 
L 259.255344 -79.802182 
L 258.595477 -79.802182 
L 257.93561 -79.802182 
L 257.275743 -79.802182 
L 256.615876 -79.802182 
L 255.956009 -79.802182 
L 255.296142 -79.802182 
L 254.636275 -79.802182 
L 253.976408 -79.802182 
L 253.316541 -79.802182 
L 252.656674 -79.802182 
L 251.996807 -79.802182 
L 251.33694 -79.802182 
L 250.677073 -79.802182 
L 250.017206 -79.802182 
L 249.357339 -79.802182 
L 248.697472 -79.802182 
L 248.037605 -79.802182 
L 247.377738 -79.802182 
L 246.717871 -79.802182 
L 246.058004 -79.802182 
L 245.398137 -79.802182 
L 244.738271 -79.802182 
L 244.078404 -79.802182 
L 243.418537 -79.802182 
L 242.75867 -79.802182 
L 242.098803 -79.802182 
L 241.438936 -79.802182 
L 240.779069 -79.802182 
L 240.119202 -79.802182 
L 239.459335 -79.802182 
L 238.799468 -79.802182 
L 238.139601 -79.802182 
L 237.479734 -79.802182 
L 236.819867 -79.802182 
L 236.16 -79.802182 
L 235.500133 -79.802182 
L 234.840266 -79.802182 
L 234.180399 -79.802182 
L 233.520532 -79.802182 
L 232.860665 -79.802182 
L 232.200798 -79.802182 
L 231.540931 -79.802182 
L 230.881064 -79.802182 
L 230.221197 -79.802182 
L 229.56133 -79.802182 
L 228.901463 -79.802182 
L 228.241596 -79.802182 
L 227.581729 -79.802182 
L 226.921863 -79.802182 
L 226.261996 -79.802182 
L 225.602129 -79.802182 
L 224.942262 -79.802182 
L 224.282395 -79.802182 
L 223.622528 -79.802182 
L 222.962661 -79.802182 
L 222.302794 -79.802182 
L 221.642927 -79.802182 
L 220.98306 -79.802182 
L 220.323193 -79.802182 
L 219.663326 -79.802182 
L 219.003459 -79.802182 
L 218.343592 -79.802182 
L 217.683725 -79.802182 
L 217.023858 -79.802182 
L 216.363991 -79.802182 
L 215.704124 -79.802182 
L 215.044257 -79.802182 
L 214.38439 -79.802182 
L 213.724523 -79.802182 
L 213.064656 -79.802182 
L 212.404789 -79.802182 
L 211.744922 -79.802182 
L 211.085055 -79.802182 
L 210.425188 -79.802182 
L 209.765322 -79.802182 
L 209.105455 -79.802182 
L 208.445588 -79.802182 
L 207.785721 -79.802182 
L 207.125854 -79.802182 
L 206.465987 -79.802182 
L 205.80612 -79.802182 
L 205.146253 -79.802182 
L 204.486386 -79.802182 
L 203.826519 -79.802182 
L 203.166652 -79.802182 
L 202.506785 -79.802182 
L 201.846918 -79.802182 
L 201.187051 -79.802182 
L 200.527184 -79.802182 
L 199.867317 -79.802182 
L 199.20745 -79.802182 
L 198.547583 -79.802182 
L 197.887716 -79.802182 
L 197.227849 -79.802182 
L 196.567982 -79.802182 
L 195.908115 -79.802182 
L 195.248248 -79.802182 
L 194.588381 -79.802182 
L 193.928514 -79.802182 
L 193.268647 -79.802182 
L 192.60878 -79.802182 
L 191.948914 -79.802182 
L 191.289047 -79.802182 
L 190.62918 -79.802182 
L 189.969313 -79.802182 
L 189.309446 -79.802182 
L 188.649579 -79.802182 
L 187.989712 -79.802182 
L 187.329845 -79.802182 
L 186.669978 -79.802182 
L 186.010111 -79.802182 
L 185.350244 -79.802182 
L 184.690377 -79.802182 
L 184.03051 -79.802182 
L 183.370643 -79.802182 
L 182.710776 -79.802182 
L 182.050909 -79.802182 
L 181.391042 -79.802182 
L 180.731175 -79.802182 
L 180.071308 -79.802182 
L 179.411441 -79.802182 
L 178.751574 -79.802182 
L 178.091707 -79.802182 
L 177.43184 -79.802182 
L 176.771973 -79.802182 
L 176.112106 -79.802182 
L 175.452239 -79.802182 
L 174.792373 -79.802182 
L 174.132506 -79.802182 
L 173.472639 -79.802182 
L 172.812772 -79.802182 
L 172.152905 -79.802182 
L 171.493038 -79.802182 
L 170.833171 -79.802182 
L 170.173304 -79.802182 
L 169.513437 -79.802182 
L 168.85357 -79.802182 
L 168.193703 -79.802182 
L 167.533836 -79.802182 
L 166.873969 -79.802182 
L 166.214102 -79.802182 
L 165.554235 -79.802182 
L 164.894368 -79.802182 
L 164.234501 -79.802182 
L 163.574634 -79.802182 
L 162.914767 -79.802182 
L 162.2549 -79.802182 
L 161.595033 -79.802182 
L 160.935166 -79.802182 
L 160.275299 -79.802182 
L 159.615432 -79.802182 
L 158.955565 -79.802182 
L 158.295698 -79.802182 
L 157.635831 -79.802182 
L 156.975965 -79.802182 
L 156.316098 -79.802182 
L 155.656231 -79.802182 
L 154.996364 -79.802182 
L 154.336497 -79.802182 
L 153.67663 -79.802182 
L 153.016763 -79.802182 
L 152.356896 -79.802182 
L 151.697029 -79.802182 
L 151.037162 -79.802182 
L 150.377295 -79.802182 
L 149.717428 -79.802182 
L 149.057561 -79.802182 
L 148.397694 -79.802182 
L 147.737827 -79.802182 
L 147.07796 -79.802182 
L 146.418093 -79.802182 
L 145.758226 -79.802182 
L 145.098359 -79.802182 
L 144.438492 -79.802182 
L 143.778625 -79.802182 
L 143.118758 -79.802182 
L 142.458891 -79.802182 
L 141.799024 -79.802182 
L 141.139157 -79.802182 
L 140.47929 -79.802182 
L 139.819424 -79.802182 
L 139.159557 -79.802182 
L 138.49969 -79.802182 
L 137.839823 -79.802182 
L 137.179956 -79.802182 
L 136.520089 -79.802182 
L 135.860222 -79.802182 
L 135.200355 -79.802182 
L 134.540488 -79.802182 
L 133.880621 -79.802182 
L 133.220754 -79.802182 
L 132.560887 -79.802182 
L 131.90102 -79.802182 
L 131.241153 -79.802182 
L 130.581286 -79.802182 
L 129.921419 -79.802182 
L 129.261552 -79.802182 
L 128.601685 -79.802182 
L 127.941818 -79.802182 
L 127.281951 -79.802182 
L 126.622084 -79.802182 
L 125.962217 -79.802182 
L 125.30235 -79.802182 
L 124.642483 -79.802182 
L 123.982616 -79.802182 
L 123.322749 -79.802182 
L 122.662882 -79.802182 
L 122.003016 -79.802182 
L 121.343149 -79.802182 
L 120.683282 -79.802182 
L 120.023415 -79.802182 
L 119.363548 -79.802182 
L 118.703681 -79.802182 
L 118.043814 -79.802182 
L 117.383947 -79.802182 
L 116.72408 -79.802182 
L 116.064213 -79.802182 
L 115.404346 -79.802182 
L 114.744479 -79.802182 
L 114.084612 -79.802182 
L 113.424745 -79.802182 
L 112.764878 -79.802182 
L 112.105011 -79.802182 
L 111.445144 -79.802182 
L 110.785277 -79.802182 
L 110.12541 -79.802182 
L 109.465543 -79.802182 
L 108.805676 -79.802182 
L 108.145809 -79.802182 
L 107.485942 -79.802182 
L 106.826075 -79.802182 
L 106.166208 -79.802182 
L 105.506341 -79.802182 
L 104.846475 -79.802182 
L 104.186608 -79.802182 
L 103.526741 -79.802182 
L 102.866874 -79.802182 
L 102.207007 -79.802182 
L 101.54714 -79.802182 
L 100.887273 -79.802182 
L 100.227406 -79.802182 
L 99.567539 -79.802182 
L 98.907672 -79.802182 
L 98.247805 -79.802182 
L 97.587938 -79.802182 
L 96.928071 -79.802182 
L 96.268204 -79.802182 
L 95.608337 -79.802182 
L 94.94847 -79.802182 
L 94.288603 -79.802182 
L 93.628736 -79.802182 
L 92.968869 -79.802182 
L 92.309002 -79.802182 
L 91.649135 -79.802182 
L 90.989268 -79.802182 
L 88.3498 -79.802182 
L 87.030067 -79.802182 
L 86.3702 -79.802182 
L 83.070865 -79.802182 
L 82.410998 -79.802182 
L 79.77153 -79.802182 
L 79.111663 -79.802182 
L 77.791929 -79.802182 
L 77.132062 -79.802182 
L 75.812328 -79.802182 
L 75.152461 -79.802182 
L 73.832727 -79.802182 
z
" id="m19feae5124" style="stroke:#ff9d2e;stroke-opacity:0.45;"/>
    </defs>
    <g clip-path="url(#pa238d2b9fa)">
     <use style="fill:#ff9d2e;fill-opacity:0.45;stroke:#ff9d2e;stroke-opacity:0.45;" x="0" xlink:href="#m19feae5124" y="345.6"/>
    </g>
   </g>
   <g id="PolyCollection_2">
    <defs>
     <path d="M 73.832727 -79.802182 
L 73.832727 -79.802182 
L 75.152461 -79.802182 
L 75.812328 -79.802182 
L 77.132062 -79.802182 
L 77.791929 -79.802182 
L 79.111663 -79.802182 
L 79.77153 -79.802182 
L 82.410998 -79.802182 
L 83.070865 -79.802182 
L 86.3702 -79.802182 
L 87.030067 -79.802182 
L 88.3498 -79.803364 
L 90.989268 -79.803364 
L 91.649135 -79.803364 
L 92.309002 -79.803364 
L 92.968869 -79.803364 
L 93.628736 -79.803364 
L 94.288603 -79.803364 
L 94.94847 -79.802182 
L 95.608337 -79.802182 
L 96.268204 -79.802182 
L 96.928071 -79.804546 
L 97.587938 -79.805727 
L 98.247805 -79.810455 
L 98.907672 -79.815182 
L 99.567539 -79.816364 
L 100.227406 -79.824637 
L 100.887273 -79.829365 
L 101.54714 -79.83882 
L 102.207007 -79.85182 
L 102.866874 -79.866003 
L 103.526741 -79.884912 
L 104.186608 -79.901459 
L 104.846475 -79.934551 
L 105.506341 -79.980644 
L 106.166208 -80.043283 
L 106.826075 -80.10474 
L 107.485942 -80.198107 
L 108.145809 -80.286747 
L 108.805676 -80.361205 
L 109.465543 -80.474664 
L 110.12541 -80.622397 
L 110.785277 -80.805586 
L 111.445144 -81.043142 
L 112.105011 -81.241695 
L 112.764878 -81.422521 
L 113.424745 -81.526525 
L 114.084612 -81.688441 
L 114.744479 -81.937815 
L 115.404346 -82.124549 
L 116.064213 -82.301829 
L 116.72408 -82.456654 
L 117.383947 -82.451926 
L 118.043814 -82.4732 
L 118.703681 -82.503929 
L 119.363548 -82.459018 
L 120.023415 -82.417652 
L 120.683282 -82.312466 
L 121.343149 -82.092639 
L 122.003016 -82.041819 
L 122.662882 -82.020545 
L 123.322749 -81.865721 
L 123.982616 -81.721533 
L 124.642483 -81.589164 
L 125.30235 -81.42843 
L 125.962217 -81.388247 
L 126.622084 -81.294879 
L 127.281951 -81.239331 
L 127.941818 -81.222785 
L 128.601685 -81.12469 
L 129.261552 -81.002958 
L 129.921419 -80.917864 
L 130.581286 -80.811496 
L 131.241153 -80.761857 
L 131.90102 -80.656671 
L 132.560887 -80.569213 
L 133.220754 -80.506574 
L 133.880621 -80.427389 
L 134.540488 -80.371841 
L 135.200355 -80.329294 
L 135.860222 -80.27611 
L 136.520089 -80.259564 
L 137.179956 -80.219381 
L 137.839823 -80.17447 
L 138.49969 -80.152014 
L 139.159557 -80.126013 
L 139.819424 -80.122468 
L 140.47929 -80.108285 
L 141.139157 -80.105921 
L 141.799024 -80.087012 
L 142.458891 -80.071647 
L 143.118758 -80.056283 
L 143.778625 -80.022009 
L 144.438492 -80.005463 
L 145.098359 -80.001917 
L 145.758226 -79.994826 
L 146.418093 -79.992462 
L 147.07796 -79.986553 
L 147.737827 -79.981826 
L 148.397694 -79.966461 
L 149.057561 -79.948733 
L 149.717428 -79.938096 
L 150.377295 -79.934551 
L 151.037162 -79.922732 
L 151.697029 -79.90855 
L 152.356896 -79.895549 
L 153.016763 -79.897913 
L 153.67663 -79.88964 
L 154.336497 -79.881367 
L 154.996364 -79.879003 
L 155.656231 -79.869548 
L 156.316098 -79.861275 
L 156.975965 -79.860093 
L 157.635831 -79.85773 
L 158.295698 -79.853002 
L 158.955565 -79.854184 
L 159.615432 -79.855366 
L 160.275299 -79.853002 
L 160.935166 -79.844729 
L 161.595033 -79.843547 
L 162.2549 -79.836456 
L 162.914767 -79.843547 
L 163.574634 -79.83882 
L 164.234501 -79.841183 
L 164.894368 -79.842365 
L 165.554235 -79.854184 
L 166.214102 -79.850638 
L 166.873969 -79.853002 
L 167.533836 -79.850638 
L 168.193703 -79.854184 
L 168.85357 -79.850638 
L 169.513437 -79.847093 
L 170.173304 -79.842365 
L 170.833171 -79.836456 
L 171.493038 -79.83882 
L 172.152905 -79.835274 
L 172.812772 -79.83291 
L 173.472639 -79.829365 
L 174.132506 -79.83291 
L 174.792373 -79.825819 
L 175.452239 -79.829365 
L 176.112106 -79.828183 
L 176.771973 -79.828183 
L 177.43184 -79.828183 
L 178.091707 -79.83291 
L 178.751574 -79.835274 
L 179.411441 -79.83882 
L 180.071308 -79.840002 
L 180.731175 -79.841183 
L 181.391042 -79.837638 
L 182.050909 -79.835274 
L 182.710776 -79.831728 
L 183.370643 -79.830547 
L 184.03051 -79.828183 
L 184.690377 -79.828183 
L 185.350244 -79.830547 
L 186.010111 -79.834092 
L 186.669978 -79.834092 
L 187.329845 -79.837638 
L 187.989712 -79.836456 
L 188.649579 -79.83882 
L 189.309446 -79.842365 
L 189.969313 -79.837638 
L 190.62918 -79.842365 
L 191.289047 -79.845911 
L 191.948914 -79.841183 
L 192.60878 -79.844729 
L 193.268647 -79.844729 
L 193.928514 -79.83882 
L 194.588381 -79.841183 
L 195.248248 -79.843547 
L 195.908115 -79.841183 
L 196.567982 -79.842365 
L 197.227849 -79.843547 
L 197.887716 -79.844729 
L 198.547583 -79.843547 
L 199.20745 -79.844729 
L 199.867317 -79.836456 
L 200.527184 -79.837638 
L 201.187051 -79.83882 
L 201.846918 -79.831728 
L 202.506785 -79.828183 
L 203.166652 -79.836456 
L 203.826519 -79.831728 
L 204.486386 -79.831728 
L 205.146253 -79.834092 
L 205.80612 -79.837638 
L 206.465987 -79.844729 
L 207.125854 -79.853002 
L 207.785721 -79.842365 
L 208.445588 -79.848275 
L 209.105455 -79.845911 
L 209.765322 -79.843547 
L 210.425188 -79.837638 
L 211.085055 -79.834092 
L 211.744922 -79.825819 
L 212.404789 -79.827001 
L 213.064656 -79.81991 
L 213.724523 -79.81991 
L 214.38439 -79.81991 
L 215.044257 -79.823455 
L 215.704124 -79.822274 
L 216.363991 -79.823455 
L 217.023858 -79.824637 
L 217.683725 -79.831728 
L 218.343592 -79.836456 
L 219.003459 -79.843547 
L 219.663326 -79.844729 
L 220.323193 -79.845911 
L 220.98306 -79.863639 
L 221.642927 -79.87073 
L 222.302794 -79.869548 
L 222.962661 -79.875458 
L 223.622528 -79.875458 
L 224.282395 -79.880185 
L 224.942262 -79.880185 
L 225.602129 -79.877821 
L 226.261996 -79.884912 
L 226.921863 -79.887276 
L 227.581729 -79.88964 
L 228.241596 -79.894367 
L 228.901463 -79.896731 
L 229.56133 -79.912095 
L 230.221197 -79.910914 
L 230.881064 -79.906186 
L 231.540931 -79.916823 
L 232.200798 -79.916823 
L 232.860665 -79.932187 
L 233.520532 -79.928642 
L 234.180399 -79.929823 
L 234.840266 -79.929823 
L 235.500133 -79.935733 
L 236.16 -79.94637 
L 236.819867 -79.958188 
L 237.479734 -79.942824 
L 238.139601 -79.945188 
L 238.799468 -79.964098 
L 239.459335 -79.97828 
L 240.119202 -79.999554 
L 240.779069 -80.017282 
L 241.438936 -80.038555 
L 242.098803 -80.069284 
L 242.75867 -80.087012 
L 243.418537 -80.116558 
L 244.078404 -80.150832 
L 244.738271 -80.185107 
L 245.398137 -80.232381 
L 246.058004 -80.287929 
L 246.717871 -80.31393 
L 247.377738 -80.348204 
L 248.037605 -80.380115 
L 248.697472 -80.466391 
L 249.357339 -80.558576 
L 250.017206 -80.694491 
L 250.677073 -80.819769 
L 251.33694 -80.894226 
L 251.996807 -80.979321 
L 252.656674 -81.160146 
L 253.316541 -81.28897 
L 253.976408 -81.407156 
L 254.636275 -81.493433 
L 255.296142 -81.561981 
L 255.956009 -81.645893 
L 256.615876 -81.699077 
L 257.275743 -81.743988 
L 257.93561 -81.849175 
L 258.595477 -81.92836 
L 259.255344 -82.003999 
L 259.915211 -81.994544 
L 260.575078 -82.021727 
L 261.234945 -82.012272 
L 261.894812 -82.052456 
L 262.554678 -82.066638 
L 263.214545 -82.193098 
L 263.874412 -82.299466 
L 264.534279 -82.496837 
L 265.194146 -82.677663 
L 265.854013 -82.747393 
L 266.51388 -82.906945 
L 267.173747 -83.104317 
L 267.833614 -83.234322 
L 268.493481 -83.39151 
L 269.153348 -83.519152 
L 269.813215 -83.48606 
L 270.473082 -83.556972 
L 271.132949 -83.578245 
L 271.792816 -83.571154 
L 272.452683 -83.632611 
L 273.11255 -83.743706 
L 273.772417 -83.867802 
L 274.432284 -83.936351 
L 275.092151 -83.988353 
L 275.752018 -84.067538 
L 276.411885 -84.243636 
L 277.071752 -84.418552 
L 277.731619 -84.640743 
L 278.391486 -84.848752 
L 279.051353 -84.971666 
L 279.71122 -85.008304 
L 280.371086 -85.186765 
L 281.030953 -85.426684 
L 281.69082 -85.55669 
L 282.350687 -85.82261 
L 283.010554 -86.021163 
L 283.670421 -86.326085 
L 284.330288 -86.510456 
L 284.990155 -86.666462 
L 285.650022 -86.840197 
L 286.309889 -87.09548 
L 286.969756 -87.193575 
L 287.629623 -87.258577 
L 288.28949 -87.262123 
L 288.949357 -87.296397 
L 289.609224 -87.405129 
L 290.269091 -87.616683 
L 290.928958 -87.840056 
L 291.588825 -87.318853 
L 292.248692 -86.705464 
L 292.908559 -86.482091 
L 293.568426 -86.457272 
L 294.228293 -86.421816 
L 294.88816 -86.483273 
L 295.548027 -86.511638 
L 296.207894 -86.586095 
L 296.867761 -86.472636 
L 297.527627 -86.471454 
L 298.187494 -86.433635 
L 298.847361 -86.29772 
L 299.507228 -86.047164 
L 300.167095 -85.625238 
L 300.826962 -85.915977 
L 301.486829 -86.50691 
L 302.146696 -86.521093 
L 302.806563 -86.42418 
L 303.46643 -86.205534 
L 304.126297 -86.036527 
L 304.786164 -86.089711 
L 305.446031 -85.997526 
L 306.105898 -85.874612 
L 306.765765 -85.807245 
L 307.425632 -85.700877 
L 308.085499 -85.646511 
L 308.745366 -85.501142 
L 309.405233 -85.273042 
L 310.0651 -84.978757 
L 310.724967 -84.757748 
L 311.384834 -84.638379 
L 312.044701 -84.509556 
L 312.704568 -84.379551 
L 313.364435 -84.164451 
L 314.024302 -83.995444 
L 314.684169 -83.742525 
L 315.344035 -83.56879 
L 316.003902 -83.417511 
L 316.663769 -83.389147 
L 317.323636 -83.254414 
L 317.983503 -83.038132 
L 318.64337 -82.825396 
L 319.303237 -82.77694 
L 319.963104 -82.573659 
L 320.622971 -82.494474 
L 321.282838 -82.391651 
L 321.942705 -82.311284 
L 322.602572 -82.202553 
L 323.262439 -82.045364 
L 323.922306 -81.885812 
L 324.582173 -81.826719 
L 325.24204 -81.733352 
L 325.901907 -81.743988 
L 326.561774 -81.686077 
L 327.221641 -81.669531 
L 327.881508 -81.626984 
L 328.541375 -81.55489 
L 329.201242 -81.514706 
L 329.861109 -81.509979 
L 330.520976 -81.496978 
L 331.180843 -81.478068 
L 331.84071 -81.400065 
L 332.500576 -81.349245 
L 333.160443 -81.30197 
L 333.82031 -81.257059 
L 334.480177 -81.229877 
L 335.140044 -81.197966 
L 335.799911 -81.177874 
L 336.459778 -81.144782 
L 337.119645 -81.071506 
L 337.779512 -81.026595 
L 338.439379 -80.978139 
L 339.099246 -80.973411 
L 339.759113 -80.988776 
L 340.41898 -80.958047 
L 341.078847 -80.945047 
L 341.738714 -80.991139 
L 342.398581 -81.032505 
L 343.058448 -81.071506 
L 343.718315 -81.066779 
L 344.378182 -81.059688 
L 345.038049 -81.071506 
L 345.697916 -81.131782 
L 346.357783 -81.135327 
L 347.01765 -81.173147 
L 347.677517 -81.194421 
L 348.337384 -81.212149 
L 348.997251 -81.244059 
L 349.657118 -81.261787 
L 350.316984 -81.296061 
L 350.976851 -81.346881 
L 351.636718 -81.372882 
L 352.296585 -81.439067 
L 352.956452 -81.50407 
L 353.616319 -81.509979 
L 354.276186 -81.579709 
L 354.936053 -81.604528 
L 355.59592 -81.649439 
L 356.255787 -81.63762 
L 356.915654 -81.566708 
L 357.575521 -81.539526 
L 358.235388 -81.550162 
L 358.895255 -81.481614 
L 359.555122 -81.443794 
L 360.214989 -81.423703 
L 360.874856 -81.459159 
L 361.534723 -81.512343 
L 362.19459 -81.541889 
L 362.854457 -81.525343 
L 363.514324 -81.563163 
L 364.174191 -81.590346 
L 364.834058 -81.599801 
L 365.493925 -81.563163 
L 366.153792 -81.545435 
L 366.813659 -81.525343 
L 367.473525 -81.543071 
L 368.133392 -81.528889 
L 368.793259 -81.513524 
L 369.453126 -81.475705 
L 370.112993 -81.499342 
L 370.77286 -81.486342 
L 371.432727 -81.475705 
L 372.092594 -81.434339 
L 372.752461 -81.429612 
L 373.412328 -81.374064 
L 374.072195 -81.297243 
L 374.732062 -81.189693 
L 375.391929 -81.132963 
L 376.051796 -81.072688 
L 376.711663 -81.064415 
L 377.37153 -80.995867 
L 378.031397 -80.939137 
L 378.691264 -80.894226 
L 379.351131 -80.824496 
L 380.010998 -80.783131 
L 380.670865 -80.71931 
L 381.330732 -80.690945 
L 381.990599 -80.635398 
L 382.650466 -80.555031 
L 383.310333 -80.49121 
L 383.9702 -80.432117 
L 384.630067 -80.36475 
L 385.289933 -80.354113 
L 385.9498 -80.330476 
L 386.609667 -80.311566 
L 387.269534 -80.269019 
L 387.929401 -80.214653 
L 388.589268 -80.178015 
L 389.249135 -80.148469 
L 389.909002 -80.108285 
L 390.568869 -80.088194 
L 391.228736 -80.040919 
L 391.888603 -80.005463 
L 392.54847 -79.984189 
L 393.208337 -79.970007 
L 393.868204 -79.935733 
L 394.528071 -79.920368 
L 395.187938 -79.90855 
L 395.847805 -79.900277 
L 396.507672 -79.876639 
L 397.167539 -79.853002 
L 397.827406 -79.841183 
L 398.487273 -79.831728 
L 398.487273 -79.802182 
L 398.487273 -79.802182 
L 397.827406 -79.802182 
L 397.167539 -79.802182 
L 396.507672 -79.802182 
L 395.847805 -79.802182 
L 395.187938 -79.802182 
L 394.528071 -79.802182 
L 393.868204 -79.802182 
L 393.208337 -79.802182 
L 392.54847 -79.802182 
L 391.888603 -79.802182 
L 391.228736 -79.802182 
L 390.568869 -79.802182 
L 389.909002 -79.802182 
L 389.249135 -79.802182 
L 388.589268 -79.802182 
L 387.929401 -79.802182 
L 387.269534 -79.802182 
L 386.609667 -79.802182 
L 385.9498 -79.802182 
L 385.289933 -79.802182 
L 384.630067 -79.802182 
L 383.9702 -79.802182 
L 383.310333 -79.802182 
L 382.650466 -79.802182 
L 381.990599 -79.802182 
L 381.330732 -79.802182 
L 380.670865 -79.802182 
L 380.010998 -79.802182 
L 379.351131 -79.802182 
L 378.691264 -79.802182 
L 378.031397 -79.802182 
L 377.37153 -79.802182 
L 376.711663 -79.802182 
L 376.051796 -79.802182 
L 375.391929 -79.802182 
L 374.732062 -79.802182 
L 374.072195 -79.802182 
L 373.412328 -79.802182 
L 372.752461 -79.802182 
L 372.092594 -79.802182 
L 371.432727 -79.802182 
L 370.77286 -79.802182 
L 370.112993 -79.802182 
L 369.453126 -79.802182 
L 368.793259 -79.802182 
L 368.133392 -79.802182 
L 367.473525 -79.802182 
L 366.813659 -79.802182 
L 366.153792 -79.802182 
L 365.493925 -79.802182 
L 364.834058 -79.802182 
L 364.174191 -79.802182 
L 363.514324 -79.802182 
L 362.854457 -79.802182 
L 362.19459 -79.802182 
L 361.534723 -79.802182 
L 360.874856 -79.802182 
L 360.214989 -79.802182 
L 359.555122 -79.802182 
L 358.895255 -79.802182 
L 358.235388 -79.802182 
L 357.575521 -79.802182 
L 356.915654 -79.802182 
L 356.255787 -79.802182 
L 355.59592 -79.802182 
L 354.936053 -79.802182 
L 354.276186 -79.802182 
L 353.616319 -79.802182 
L 352.956452 -79.802182 
L 352.296585 -79.802182 
L 351.636718 -79.802182 
L 350.976851 -79.802182 
L 350.316984 -79.802182 
L 349.657118 -79.802182 
L 348.997251 -79.802182 
L 348.337384 -79.802182 
L 347.677517 -79.802182 
L 347.01765 -79.802182 
L 346.357783 -79.802182 
L 345.697916 -79.802182 
L 345.038049 -79.802182 
L 344.378182 -79.802182 
L 343.718315 -79.802182 
L 343.058448 -79.802182 
L 342.398581 -79.802182 
L 341.738714 -79.802182 
L 341.078847 -79.802182 
L 340.41898 -79.802182 
L 339.759113 -79.802182 
L 339.099246 -79.802182 
L 338.439379 -79.802182 
L 337.779512 -79.802182 
L 337.119645 -79.802182 
L 336.459778 -79.802182 
L 335.799911 -79.802182 
L 335.140044 -79.802182 
L 334.480177 -79.802182 
L 333.82031 -79.802182 
L 333.160443 -79.802182 
L 332.500576 -79.802182 
L 331.84071 -79.802182 
L 331.180843 -79.802182 
L 330.520976 -79.802182 
L 329.861109 -79.802182 
L 329.201242 -79.802182 
L 328.541375 -79.802182 
L 327.881508 -79.802182 
L 327.221641 -79.802182 
L 326.561774 -79.802182 
L 325.901907 -79.802182 
L 325.24204 -79.802182 
L 324.582173 -79.802182 
L 323.922306 -79.802182 
L 323.262439 -79.802182 
L 322.602572 -79.802182 
L 321.942705 -79.802182 
L 321.282838 -79.802182 
L 320.622971 -79.802182 
L 319.963104 -79.802182 
L 319.303237 -79.802182 
L 318.64337 -79.802182 
L 317.983503 -79.802182 
L 317.323636 -79.802182 
L 316.663769 -79.802182 
L 316.003902 -79.802182 
L 315.344035 -79.802182 
L 314.684169 -79.802182 
L 314.024302 -79.802182 
L 313.364435 -79.802182 
L 312.704568 -79.802182 
L 312.044701 -79.802182 
L 311.384834 -79.802182 
L 310.724967 -79.802182 
L 310.0651 -79.802182 
L 309.405233 -79.802182 
L 308.745366 -79.802182 
L 308.085499 -79.802182 
L 307.425632 -79.802182 
L 306.765765 -79.802182 
L 306.105898 -79.802182 
L 305.446031 -79.802182 
L 304.786164 -79.802182 
L 304.126297 -79.802182 
L 303.46643 -79.802182 
L 302.806563 -79.802182 
L 302.146696 -79.802182 
L 301.486829 -79.802182 
L 300.826962 -79.802182 
L 300.167095 -79.802182 
L 299.507228 -79.802182 
L 298.847361 -79.802182 
L 298.187494 -79.802182 
L 297.527627 -79.802182 
L 296.867761 -79.802182 
L 296.207894 -79.802182 
L 295.548027 -79.802182 
L 294.88816 -79.802182 
L 294.228293 -79.802182 
L 293.568426 -79.802182 
L 292.908559 -79.802182 
L 292.248692 -79.802182 
L 291.588825 -79.802182 
L 290.928958 -79.802182 
L 290.269091 -79.802182 
L 289.609224 -79.802182 
L 288.949357 -79.802182 
L 288.28949 -79.802182 
L 287.629623 -79.802182 
L 286.969756 -79.802182 
L 286.309889 -79.802182 
L 285.650022 -79.802182 
L 284.990155 -79.802182 
L 284.330288 -79.802182 
L 283.670421 -79.802182 
L 283.010554 -79.802182 
L 282.350687 -79.802182 
L 281.69082 -79.802182 
L 281.030953 -79.802182 
L 280.371086 -79.802182 
L 279.71122 -79.802182 
L 279.051353 -79.802182 
L 278.391486 -79.802182 
L 277.731619 -79.802182 
L 277.071752 -79.802182 
L 276.411885 -79.802182 
L 275.752018 -79.802182 
L 275.092151 -79.802182 
L 274.432284 -79.802182 
L 273.772417 -79.802182 
L 273.11255 -79.802182 
L 272.452683 -79.802182 
L 271.792816 -79.802182 
L 271.132949 -79.802182 
L 270.473082 -79.802182 
L 269.813215 -79.802182 
L 269.153348 -79.802182 
L 268.493481 -79.802182 
L 267.833614 -79.802182 
L 267.173747 -79.802182 
L 266.51388 -79.802182 
L 265.854013 -79.802182 
L 265.194146 -79.802182 
L 264.534279 -79.802182 
L 263.874412 -79.802182 
L 263.214545 -79.802182 
L 262.554678 -79.802182 
L 261.894812 -79.802182 
L 261.234945 -79.802182 
L 260.575078 -79.802182 
L 259.915211 -79.802182 
L 259.255344 -79.802182 
L 258.595477 -79.802182 
L 257.93561 -79.802182 
L 257.275743 -79.802182 
L 256.615876 -79.802182 
L 255.956009 -79.802182 
L 255.296142 -79.802182 
L 254.636275 -79.802182 
L 253.976408 -79.802182 
L 253.316541 -79.802182 
L 252.656674 -79.802182 
L 251.996807 -79.802182 
L 251.33694 -79.802182 
L 250.677073 -79.802182 
L 250.017206 -79.802182 
L 249.357339 -79.802182 
L 248.697472 -79.802182 
L 248.037605 -79.802182 
L 247.377738 -79.802182 
L 246.717871 -79.802182 
L 246.058004 -79.802182 
L 245.398137 -79.802182 
L 244.738271 -79.802182 
L 244.078404 -79.802182 
L 243.418537 -79.802182 
L 242.75867 -79.802182 
L 242.098803 -79.802182 
L 241.438936 -79.802182 
L 240.779069 -79.802182 
L 240.119202 -79.802182 
L 239.459335 -79.802182 
L 238.799468 -79.802182 
L 238.139601 -79.802182 
L 237.479734 -79.802182 
L 236.819867 -79.802182 
L 236.16 -79.802182 
L 235.500133 -79.802182 
L 234.840266 -79.802182 
L 234.180399 -79.802182 
L 233.520532 -79.802182 
L 232.860665 -79.802182 
L 232.200798 -79.802182 
L 231.540931 -79.802182 
L 230.881064 -79.802182 
L 230.221197 -79.802182 
L 229.56133 -79.802182 
L 228.901463 -79.802182 
L 228.241596 -79.802182 
L 227.581729 -79.802182 
L 226.921863 -79.802182 
L 226.261996 -79.802182 
L 225.602129 -79.802182 
L 224.942262 -79.802182 
L 224.282395 -79.802182 
L 223.622528 -79.802182 
L 222.962661 -79.802182 
L 222.302794 -79.802182 
L 221.642927 -79.802182 
L 220.98306 -79.802182 
L 220.323193 -79.802182 
L 219.663326 -79.802182 
L 219.003459 -79.802182 
L 218.343592 -79.802182 
L 217.683725 -79.802182 
L 217.023858 -79.802182 
L 216.363991 -79.802182 
L 215.704124 -79.802182 
L 215.044257 -79.802182 
L 214.38439 -79.802182 
L 213.724523 -79.802182 
L 213.064656 -79.802182 
L 212.404789 -79.802182 
L 211.744922 -79.802182 
L 211.085055 -79.802182 
L 210.425188 -79.802182 
L 209.765322 -79.802182 
L 209.105455 -79.802182 
L 208.445588 -79.802182 
L 207.785721 -79.802182 
L 207.125854 -79.802182 
L 206.465987 -79.802182 
L 205.80612 -79.802182 
L 205.146253 -79.802182 
L 204.486386 -79.802182 
L 203.826519 -79.802182 
L 203.166652 -79.802182 
L 202.506785 -79.802182 
L 201.846918 -79.802182 
L 201.187051 -79.802182 
L 200.527184 -79.802182 
L 199.867317 -79.802182 
L 199.20745 -79.802182 
L 198.547583 -79.802182 
L 197.887716 -79.802182 
L 197.227849 -79.802182 
L 196.567982 -79.802182 
L 195.908115 -79.802182 
L 195.248248 -79.802182 
L 194.588381 -79.802182 
L 193.928514 -79.802182 
L 193.268647 -79.802182 
L 192.60878 -79.802182 
L 191.948914 -79.802182 
L 191.289047 -79.802182 
L 190.62918 -79.802182 
L 189.969313 -79.802182 
L 189.309446 -79.802182 
L 188.649579 -79.802182 
L 187.989712 -79.802182 
L 187.329845 -79.802182 
L 186.669978 -79.802182 
L 186.010111 -79.802182 
L 185.350244 -79.802182 
L 184.690377 -79.802182 
L 184.03051 -79.802182 
L 183.370643 -79.802182 
L 182.710776 -79.802182 
L 182.050909 -79.802182 
L 181.391042 -79.802182 
L 180.731175 -79.802182 
L 180.071308 -79.802182 
L 179.411441 -79.802182 
L 178.751574 -79.802182 
L 178.091707 -79.802182 
L 177.43184 -79.802182 
L 176.771973 -79.802182 
L 176.112106 -79.802182 
L 175.452239 -79.802182 
L 174.792373 -79.802182 
L 174.132506 -79.802182 
L 173.472639 -79.802182 
L 172.812772 -79.802182 
L 172.152905 -79.802182 
L 171.493038 -79.802182 
L 170.833171 -79.802182 
L 170.173304 -79.802182 
L 169.513437 -79.802182 
L 168.85357 -79.802182 
L 168.193703 -79.802182 
L 167.533836 -79.802182 
L 166.873969 -79.802182 
L 166.214102 -79.802182 
L 165.554235 -79.802182 
L 164.894368 -79.802182 
L 164.234501 -79.802182 
L 163.574634 -79.802182 
L 162.914767 -79.802182 
L 162.2549 -79.802182 
L 161.595033 -79.802182 
L 160.935166 -79.802182 
L 160.275299 -79.802182 
L 159.615432 -79.802182 
L 158.955565 -79.802182 
L 158.295698 -79.802182 
L 157.635831 -79.802182 
L 156.975965 -79.802182 
L 156.316098 -79.802182 
L 155.656231 -79.802182 
L 154.996364 -79.802182 
L 154.336497 -79.802182 
L 153.67663 -79.802182 
L 153.016763 -79.802182 
L 152.356896 -79.802182 
L 151.697029 -79.802182 
L 151.037162 -79.802182 
L 150.377295 -79.802182 
L 149.717428 -79.802182 
L 149.057561 -79.802182 
L 148.397694 -79.802182 
L 147.737827 -79.802182 
L 147.07796 -79.802182 
L 146.418093 -79.802182 
L 145.758226 -79.802182 
L 145.098359 -79.802182 
L 144.438492 -79.802182 
L 143.778625 -79.802182 
L 143.118758 -79.802182 
L 142.458891 -79.802182 
L 141.799024 -79.802182 
L 141.139157 -79.802182 
L 140.47929 -79.802182 
L 139.819424 -79.802182 
L 139.159557 -79.802182 
L 138.49969 -79.802182 
L 137.839823 -79.802182 
L 137.179956 -79.802182 
L 136.520089 -79.802182 
L 135.860222 -79.802182 
L 135.200355 -79.802182 
L 134.540488 -79.802182 
L 133.880621 -79.802182 
L 133.220754 -79.802182 
L 132.560887 -79.802182 
L 131.90102 -79.802182 
L 131.241153 -79.802182 
L 130.581286 -79.802182 
L 129.921419 -79.802182 
L 129.261552 -79.802182 
L 128.601685 -79.802182 
L 127.941818 -79.802182 
L 127.281951 -79.802182 
L 126.622084 -79.802182 
L 125.962217 -79.802182 
L 125.30235 -79.802182 
L 124.642483 -79.802182 
L 123.982616 -79.802182 
L 123.322749 -79.802182 
L 122.662882 -79.802182 
L 122.003016 -79.802182 
L 121.343149 -79.802182 
L 120.683282 -79.802182 
L 120.023415 -79.802182 
L 119.363548 -79.802182 
L 118.703681 -79.802182 
L 118.043814 -79.802182 
L 117.383947 -79.802182 
L 116.72408 -79.802182 
L 116.064213 -79.802182 
L 115.404346 -79.802182 
L 114.744479 -79.802182 
L 114.084612 -79.802182 
L 113.424745 -79.802182 
L 112.764878 -79.802182 
L 112.105011 -79.802182 
L 111.445144 -79.802182 
L 110.785277 -79.802182 
L 110.12541 -79.802182 
L 109.465543 -79.802182 
L 108.805676 -79.802182 
L 108.145809 -79.802182 
L 107.485942 -79.802182 
L 106.826075 -79.802182 
L 106.166208 -79.802182 
L 105.506341 -79.802182 
L 104.846475 -79.802182 
L 104.186608 -79.802182 
L 103.526741 -79.802182 
L 102.866874 -79.802182 
L 102.207007 -79.802182 
L 101.54714 -79.802182 
L 100.887273 -79.802182 
L 100.227406 -79.802182 
L 99.567539 -79.802182 
L 98.907672 -79.802182 
L 98.247805 -79.802182 
L 97.587938 -79.802182 
L 96.928071 -79.802182 
L 96.268204 -79.802182 
L 95.608337 -79.802182 
L 94.94847 -79.802182 
L 94.288603 -79.802182 
L 93.628736 -79.802182 
L 92.968869 -79.802182 
L 92.309002 -79.802182 
L 91.649135 -79.802182 
L 90.989268 -79.802182 
L 88.3498 -79.802182 
L 87.030067 -79.802182 
L 86.3702 -79.802182 
L 83.070865 -79.802182 
L 82.410998 -79.802182 
L 79.77153 -79.802182 
L 79.111663 -79.802182 
L 77.791929 -79.802182 
L 77.132062 -79.802182 
L 75.812328 -79.802182 
L 75.152461 -79.802182 
L 73.832727 -79.802182 
z
" id="m61850cad81" style="stroke:#ff2e5f;stroke-opacity:0.5;"/>
    </defs>
    <g clip-path="url(#pa238d2b9fa)">
     <use style="fill:#ff2e5f;fill-opacity:0.5;stroke:#ff2e5f;stroke-opacity:0.5;" x="0" xlink:href="#m61850cad81" y="345.6"/>
    </g>
   </g>
   <g id="matplotlib.axis_1">
    <g id="xtick_1">
     <g id="line2d_1">
      <path clip-path="url(#pa238d2b9fa)" d="M 94.94847 276.48 
L 94.94847 41.472 
" style="fill:none;stroke:#b0b0b0;stroke-linecap:square;stroke-width:0.3;"/>
     </g>
     <g id="line2d_2">
      <defs>
       <path d="M 0 0 
L 0 3.5 
" id="m750da8e9b0" style="stroke:#000000;stroke-width:0.8;"/>
      </defs>
      <g>
       <use style="stroke:#000000;stroke-width:0.8;" x="94.94847" xlink:href="#m750da8e9b0" y="276.48"/>
      </g>
     </g>
     <g id="text_1">
      <!-- 2020-03 -->
      <g transform="translate(57.723649 310.951846)rotate(-30)scale(0.1 -0.1)">
       <defs>
        <path d="M 1228 531 
L 3431 531 
L 3431 0 
L 469 0 
L 469 531 
Q 828 903 1448 1529 
Q 2069 2156 2228 2338 
Q 2531 2678 2651 2914 
Q 2772 3150 2772 3378 
Q 2772 3750 2511 3984 
Q 2250 4219 1831 4219 
Q 1534 4219 1204 4116 
Q 875 4013 500 3803 
L 500 4441 
Q 881 4594 1212 4672 
Q 1544 4750 1819 4750 
Q 2544 4750 2975 4387 
Q 3406 4025 3406 3419 
Q 3406 3131 3298 2873 
Q 3191 2616 2906 2266 
Q 2828 2175 2409 1742 
Q 1991 1309 1228 531 
z
" id="DejaVuSans-32" transform="scale(0.015625)"/>
        <path d="M 2034 4250 
Q 1547 4250 1301 3770 
Q 1056 3291 1056 2328 
Q 1056 1369 1301 889 
Q 1547 409 2034 409 
Q 2525 409 2770 889 
Q 3016 1369 3016 2328 
Q 3016 3291 2770 3770 
Q 2525 4250 2034 4250 
z
M 2034 4750 
Q 2819 4750 3233 4129 
Q 3647 3509 3647 2328 
Q 3647 1150 3233 529 
Q 2819 -91 2034 -91 
Q 1250 -91 836 529 
Q 422 1150 422 2328 
Q 422 3509 836 4129 
Q 1250 4750 2034 4750 
z
" id="DejaVuSans-30" transform="scale(0.015625)"/>
        <path d="M 313 2009 
L 1997 2009 
L 1997 1497 
L 313 1497 
L 313 2009 
z
" id="DejaVuSans-2d" transform="scale(0.015625)"/>
        <path d="M 2597 2516 
Q 3050 2419 3304 2112 
Q 3559 1806 3559 1356 
Q 3559 666 3084 287 
Q 2609 -91 1734 -91 
Q 1441 -91 1130 -33 
Q 819 25 488 141 
L 488 750 
Q 750 597 1062 519 
Q 1375 441 1716 441 
Q 2309 441 2620 675 
Q 2931 909 2931 1356 
Q 2931 1769 2642 2001 
Q 2353 2234 1838 2234 
L 1294 2234 
L 1294 2753 
L 1863 2753 
Q 2328 2753 2575 2939 
Q 2822 3125 2822 3475 
Q 2822 3834 2567 4026 
Q 2313 4219 1838 4219 
Q 1578 4219 1281 4162 
Q 984 4106 628 3988 
L 628 4550 
Q 988 4650 1302 4700 
Q 1616 4750 1894 4750 
Q 2613 4750 3031 4423 
Q 3450 4097 3450 3541 
Q 3450 3153 3228 2886 
Q 3006 2619 2597 2516 
z
" id="DejaVuSans-33" transform="scale(0.015625)"/>
       </defs>
       <use xlink:href="#DejaVuSans-32"/>
       <use x="63.623047" xlink:href="#DejaVuSans-30"/>
       <use x="127.246094" xlink:href="#DejaVuSans-32"/>
       <use x="190.869141" xlink:href="#DejaVuSans-30"/>
       <use x="254.492188" xlink:href="#DejaVuSans-2d"/>
       <use x="290.576172" xlink:href="#DejaVuSans-30"/>
       <use x="354.199219" xlink:href="#DejaVuSans-33"/>
      </g>
     </g>
    </g>
    <g id="xtick_2">
     <g id="line2d_3">
      <path clip-path="url(#pa238d2b9fa)" d="M 135.200355 276.48 
L 135.200355 41.472 
" style="fill:none;stroke:#b0b0b0;stroke-linecap:square;stroke-width:0.3;"/>
     </g>
     <g id="line2d_4">
      <g>
       <use style="stroke:#000000;stroke-width:0.8;" x="135.200355" xlink:href="#m750da8e9b0" y="276.48"/>
      </g>
     </g>
     <g id="text_2">
      <!-- 2020-05 -->
      <g transform="translate(97.975534 310.951846)rotate(-30)scale(0.1 -0.1)">
       <defs>
        <path d="M 691 4666 
L 3169 4666 
L 3169 4134 
L 1269 4134 
L 1269 2991 
Q 1406 3038 1543 3061 
Q 1681 3084 1819 3084 
Q 2600 3084 3056 2656 
Q 3513 2228 3513 1497 
Q 3513 744 3044 326 
Q 2575 -91 1722 -91 
Q 1428 -91 1123 -41 
Q 819 9 494 109 
L 494 744 
Q 775 591 1075 516 
Q 1375 441 1709 441 
Q 2250 441 2565 725 
Q 2881 1009 2881 1497 
Q 2881 1984 2565 2268 
Q 2250 2553 1709 2553 
Q 1456 2553 1204 2497 
Q 953 2441 691 2322 
L 691 4666 
z
" id="DejaVuSans-35" transform="scale(0.015625)"/>
       </defs>
       <use xlink:href="#DejaVuSans-32"/>
       <use x="63.623047" xlink:href="#DejaVuSans-30"/>
       <use x="127.246094" xlink:href="#DejaVuSans-32"/>
       <use x="190.869141" xlink:href="#DejaVuSans-30"/>
       <use x="254.492188" xlink:href="#DejaVuSans-2d"/>
       <use x="290.576172" xlink:href="#DejaVuSans-30"/>
       <use x="354.199219" xlink:href="#DejaVuSans-35"/>
      </g>
     </g>
    </g>
    <g id="xtick_3">
     <g id="line2d_5">
      <path clip-path="url(#pa238d2b9fa)" d="M 175.452239 276.48 
L 175.452239 41.472 
" style="fill:none;stroke:#b0b0b0;stroke-linecap:square;stroke-width:0.3;"/>
     </g>
     <g id="line2d_6">
      <g>
       <use style="stroke:#000000;stroke-width:0.8;" x="175.452239" xlink:href="#m750da8e9b0" y="276.48"/>
      </g>
     </g>
     <g id="text_3">
      <!-- 2020-07 -->
      <g transform="translate(138.227419 310.951846)rotate(-30)scale(0.1 -0.1)">
       <defs>
        <path d="M 525 4666 
L 3525 4666 
L 3525 4397 
L 1831 0 
L 1172 0 
L 2766 4134 
L 525 4134 
L 525 4666 
z
" id="DejaVuSans-37" transform="scale(0.015625)"/>
       </defs>
       <use xlink:href="#DejaVuSans-32"/>
       <use x="63.623047" xlink:href="#DejaVuSans-30"/>
       <use x="127.246094" xlink:href="#DejaVuSans-32"/>
       <use x="190.869141" xlink:href="#DejaVuSans-30"/>
       <use x="254.492188" xlink:href="#DejaVuSans-2d"/>
       <use x="290.576172" xlink:href="#DejaVuSans-30"/>
       <use x="354.199219" xlink:href="#DejaVuSans-37"/>
      </g>
     </g>
    </g>
    <g id="xtick_4">
     <g id="line2d_7">
      <path clip-path="url(#pa238d2b9fa)" d="M 216.363991 276.48 
L 216.363991 41.472 
" style="fill:none;stroke:#b0b0b0;stroke-linecap:square;stroke-width:0.3;"/>
     </g>
     <g id="line2d_8">
      <g>
       <use style="stroke:#000000;stroke-width:0.8;" x="216.363991" xlink:href="#m750da8e9b0" y="276.48"/>
      </g>
     </g>
     <g id="text_4">
      <!-- 2020-09 -->
      <g transform="translate(179.13917 310.951846)rotate(-30)scale(0.1 -0.1)">
       <defs>
        <path d="M 703 97 
L 703 672 
Q 941 559 1184 500 
Q 1428 441 1663 441 
Q 2288 441 2617 861 
Q 2947 1281 2994 2138 
Q 2813 1869 2534 1725 
Q 2256 1581 1919 1581 
Q 1219 1581 811 2004 
Q 403 2428 403 3163 
Q 403 3881 828 4315 
Q 1253 4750 1959 4750 
Q 2769 4750 3195 4129 
Q 3622 3509 3622 2328 
Q 3622 1225 3098 567 
Q 2575 -91 1691 -91 
Q 1453 -91 1209 -44 
Q 966 3 703 97 
z
M 1959 2075 
Q 2384 2075 2632 2365 
Q 2881 2656 2881 3163 
Q 2881 3666 2632 3958 
Q 2384 4250 1959 4250 
Q 1534 4250 1286 3958 
Q 1038 3666 1038 3163 
Q 1038 2656 1286 2365 
Q 1534 2075 1959 2075 
z
" id="DejaVuSans-39" transform="scale(0.015625)"/>
       </defs>
       <use xlink:href="#DejaVuSans-32"/>
       <use x="63.623047" xlink:href="#DejaVuSans-30"/>
       <use x="127.246094" xlink:href="#DejaVuSans-32"/>
       <use x="190.869141" xlink:href="#DejaVuSans-30"/>
       <use x="254.492188" xlink:href="#DejaVuSans-2d"/>
       <use x="290.576172" xlink:href="#DejaVuSans-30"/>
       <use x="354.199219" xlink:href="#DejaVuSans-39"/>
      </g>
     </g>
    </g>
    <g id="xtick_5">
     <g id="line2d_9">
      <path clip-path="url(#pa238d2b9fa)" d="M 256.615876 276.48 
L 256.615876 41.472 
" style="fill:none;stroke:#b0b0b0;stroke-linecap:square;stroke-width:0.3;"/>
     </g>
     <g id="line2d_10">
      <g>
       <use style="stroke:#000000;stroke-width:0.8;" x="256.615876" xlink:href="#m750da8e9b0" y="276.48"/>
      </g>
     </g>
     <g id="text_5">
      <!-- 2020-11 -->
      <g transform="translate(219.391055 310.951846)rotate(-30)scale(0.1 -0.1)">
       <defs>
        <path d="M 794 531 
L 1825 531 
L 1825 4091 
L 703 3866 
L 703 4441 
L 1819 4666 
L 2450 4666 
L 2450 531 
L 3481 531 
L 3481 0 
L 794 0 
L 794 531 
z
" id="DejaVuSans-31" transform="scale(0.015625)"/>
       </defs>
       <use xlink:href="#DejaVuSans-32"/>
       <use x="63.623047" xlink:href="#DejaVuSans-30"/>
       <use x="127.246094" xlink:href="#DejaVuSans-32"/>
       <use x="190.869141" xlink:href="#DejaVuSans-30"/>
       <use x="254.492188" xlink:href="#DejaVuSans-2d"/>
       <use x="290.576172" xlink:href="#DejaVuSans-31"/>
       <use x="354.199219" xlink:href="#DejaVuSans-31"/>
      </g>
     </g>
    </g>
    <g id="xtick_6">
     <g id="line2d_11">
      <path clip-path="url(#pa238d2b9fa)" d="M 296.867761 276.48 
L 296.867761 41.472 
" style="fill:none;stroke:#b0b0b0;stroke-linecap:square;stroke-width:0.3;"/>
     </g>
     <g id="line2d_12">
      <g>
       <use style="stroke:#000000;stroke-width:0.8;" x="296.867761" xlink:href="#m750da8e9b0" y="276.48"/>
      </g>
     </g>
     <g id="text_6">
      <!-- 2021-01 -->
      <g transform="translate(259.64294 310.951846)rotate(-30)scale(0.1 -0.1)">
       <use xlink:href="#DejaVuSans-32"/>
       <use x="63.623047" xlink:href="#DejaVuSans-30"/>
       <use x="127.246094" xlink:href="#DejaVuSans-32"/>
       <use x="190.869141" xlink:href="#DejaVuSans-31"/>
       <use x="254.492188" xlink:href="#DejaVuSans-2d"/>
       <use x="290.576172" xlink:href="#DejaVuSans-30"/>
       <use x="354.199219" xlink:href="#DejaVuSans-31"/>
      </g>
     </g>
    </g>
    <g id="xtick_7">
     <g id="line2d_13">
      <path clip-path="url(#pa238d2b9fa)" d="M 335.799911 276.48 
L 335.799911 41.472 
" style="fill:none;stroke:#b0b0b0;stroke-linecap:square;stroke-width:0.3;"/>
     </g>
     <g id="line2d_14">
      <g>
       <use style="stroke:#000000;stroke-width:0.8;" x="335.799911" xlink:href="#m750da8e9b0" y="276.48"/>
      </g>
     </g>
     <g id="text_7">
      <!-- 2021-03 -->
      <g transform="translate(298.57509 310.951846)rotate(-30)scale(0.1 -0.1)">
       <use xlink:href="#DejaVuSans-32"/>
       <use x="63.623047" xlink:href="#DejaVuSans-30"/>
       <use x="127.246094" xlink:href="#DejaVuSans-32"/>
       <use x="190.869141" xlink:href="#DejaVuSans-31"/>
       <use x="254.492188" xlink:href="#DejaVuSans-2d"/>
       <use x="290.576172" xlink:href="#DejaVuSans-30"/>
       <use x="354.199219" xlink:href="#DejaVuSans-33"/>
      </g>
     </g>
    </g>
    <g id="xtick_8">
     <g id="line2d_15">
      <path clip-path="url(#pa238d2b9fa)" d="M 376.051796 276.48 
L 376.051796 41.472 
" style="fill:none;stroke:#b0b0b0;stroke-linecap:square;stroke-width:0.3;"/>
     </g>
     <g id="line2d_16">
      <g>
       <use style="stroke:#000000;stroke-width:0.8;" x="376.051796" xlink:href="#m750da8e9b0" y="276.48"/>
      </g>
     </g>
     <g id="text_8">
      <!-- 2021-05 -->
      <g transform="translate(338.826975 310.951846)rotate(-30)scale(0.1 -0.1)">
       <use xlink:href="#DejaVuSans-32"/>
       <use x="63.623047" xlink:href="#DejaVuSans-30"/>
       <use x="127.246094" xlink:href="#DejaVuSans-32"/>
       <use x="190.869141" xlink:href="#DejaVuSans-31"/>
       <use x="254.492188" xlink:href="#DejaVuSans-2d"/>
       <use x="290.576172" xlink:href="#DejaVuSans-30"/>
       <use x="354.199219" xlink:href="#DejaVuSans-35"/>
      </g>
     </g>
    </g>
    <g id="text_9">
     <!-- Date -->
     <g transform="translate(224.209219 324.351346)scale(0.1 -0.1)">
      <defs>
       <path d="M 1259 4147 
L 1259 519 
L 2022 519 
Q 2988 519 3436 956 
Q 3884 1394 3884 2338 
Q 3884 3275 3436 3711 
Q 2988 4147 2022 4147 
L 1259 4147 
z
M 628 4666 
L 1925 4666 
Q 3281 4666 3915 4102 
Q 4550 3538 4550 2338 
Q 4550 1131 3912 565 
Q 3275 0 1925 0 
L 628 0 
L 628 4666 
z
" id="DejaVuSans-44" transform="scale(0.015625)"/>
       <path d="M 2194 1759 
Q 1497 1759 1228 1600 
Q 959 1441 959 1056 
Q 959 750 1161 570 
Q 1363 391 1709 391 
Q 2188 391 2477 730 
Q 2766 1069 2766 1631 
L 2766 1759 
L 2194 1759 
z
M 3341 1997 
L 3341 0 
L 2766 0 
L 2766 531 
Q 2569 213 2275 61 
Q 1981 -91 1556 -91 
Q 1019 -91 701 211 
Q 384 513 384 1019 
Q 384 1609 779 1909 
Q 1175 2209 1959 2209 
L 2766 2209 
L 2766 2266 
Q 2766 2663 2505 2880 
Q 2244 3097 1772 3097 
Q 1472 3097 1187 3025 
Q 903 2953 641 2809 
L 641 3341 
Q 956 3463 1253 3523 
Q 1550 3584 1831 3584 
Q 2591 3584 2966 3190 
Q 3341 2797 3341 1997 
z
" id="DejaVuSans-61" transform="scale(0.015625)"/>
       <path d="M 1172 4494 
L 1172 3500 
L 2356 3500 
L 2356 3053 
L 1172 3053 
L 1172 1153 
Q 1172 725 1289 603 
Q 1406 481 1766 481 
L 2356 481 
L 2356 0 
L 1766 0 
Q 1100 0 847 248 
Q 594 497 594 1153 
L 594 3053 
L 172 3053 
L 172 3500 
L 594 3500 
L 594 4494 
L 1172 4494 
z
" id="DejaVuSans-74" transform="scale(0.015625)"/>
       <path d="M 3597 1894 
L 3597 1613 
L 953 1613 
Q 991 1019 1311 708 
Q 1631 397 2203 397 
Q 2534 397 2845 478 
Q 3156 559 3463 722 
L 3463 178 
Q 3153 47 2828 -22 
Q 2503 -91 2169 -91 
Q 1331 -91 842 396 
Q 353 884 353 1716 
Q 353 2575 817 3079 
Q 1281 3584 2069 3584 
Q 2775 3584 3186 3129 
Q 3597 2675 3597 1894 
z
M 3022 2063 
Q 3016 2534 2758 2815 
Q 2500 3097 2075 3097 
Q 1594 3097 1305 2825 
Q 1016 2553 972 2059 
L 3022 2063 
z
" id="DejaVuSans-65" transform="scale(0.015625)"/>
      </defs>
      <use xlink:href="#DejaVuSans-44"/>
      <use x="77.001953" xlink:href="#DejaVuSans-61"/>
      <use x="138.28125" xlink:href="#DejaVuSans-74"/>
      <use x="177.490234" xlink:href="#DejaVuSans-65"/>
     </g>
    </g>
   </g>
   <g id="matplotlib.axis_2">
    <g id="ytick_1">
     <g id="line2d_17">
      <path clip-path="url(#pa238d2b9fa)" d="M 57.6 265.797818 
L 414.72 265.797818 
" style="fill:none;stroke:#b0b0b0;stroke-linecap:square;stroke-width:0.3;"/>
     </g>
     <g id="line2d_18">
      <defs>
       <path d="M 0 0 
L -3.5 0 
" id="m0437e184bc" style="stroke:#000000;stroke-width:0.8;"/>
      </defs>
      <g>
       <use style="stroke:#000000;stroke-width:0.8;" x="57.6" xlink:href="#m0437e184bc" y="265.797818"/>
      </g>
     </g>
     <g id="text_10">
      <!-- 0 -->
      <g transform="translate(44.2375 269.597037)scale(0.1 -0.1)">
       <use xlink:href="#DejaVuSans-30"/>
      </g>
     </g>
    </g>
    <g id="ytick_2">
     <g id="line2d_19">
      <path clip-path="url(#pa238d2b9fa)" d="M 57.6 224.432492 
L 414.72 224.432492 
" style="fill:none;stroke:#b0b0b0;stroke-linecap:square;stroke-width:0.3;"/>
     </g>
     <g id="line2d_20">
      <g>
       <use style="stroke:#000000;stroke-width:0.8;" x="57.6" xlink:href="#m0437e184bc" y="224.432492"/>
      </g>
     </g>
     <g id="text_11">
      <!-- 5000 -->
      <g transform="translate(25.15 228.231711)scale(0.1 -0.1)">
       <use xlink:href="#DejaVuSans-35"/>
       <use x="63.623047" xlink:href="#DejaVuSans-30"/>
       <use x="127.246094" xlink:href="#DejaVuSans-30"/>
       <use x="190.869141" xlink:href="#DejaVuSans-30"/>
      </g>
     </g>
    </g>
    <g id="ytick_3">
     <g id="line2d_21">
      <path clip-path="url(#pa238d2b9fa)" d="M 57.6 183.067166 
L 414.72 183.067166 
" style="fill:none;stroke:#b0b0b0;stroke-linecap:square;stroke-width:0.3;"/>
     </g>
     <g id="line2d_22">
      <g>
       <use style="stroke:#000000;stroke-width:0.8;" x="57.6" xlink:href="#m0437e184bc" y="183.067166"/>
      </g>
     </g>
     <g id="text_12">
      <!-- 10000 -->
      <g transform="translate(18.7875 186.866385)scale(0.1 -0.1)">
       <use xlink:href="#DejaVuSans-31"/>
       <use x="63.623047" xlink:href="#DejaVuSans-30"/>
       <use x="127.246094" xlink:href="#DejaVuSans-30"/>
       <use x="190.869141" xlink:href="#DejaVuSans-30"/>
       <use x="254.492188" xlink:href="#DejaVuSans-30"/>
      </g>
     </g>
    </g>
    <g id="ytick_4">
     <g id="line2d_23">
      <path clip-path="url(#pa238d2b9fa)" d="M 57.6 141.70184 
L 414.72 141.70184 
" style="fill:none;stroke:#b0b0b0;stroke-linecap:square;stroke-width:0.3;"/>
     </g>
     <g id="line2d_24">
      <g>
       <use style="stroke:#000000;stroke-width:0.8;" x="57.6" xlink:href="#m0437e184bc" y="141.70184"/>
      </g>
     </g>
     <g id="text_13">
      <!-- 15000 -->
      <g transform="translate(18.7875 145.501059)scale(0.1 -0.1)">
       <use xlink:href="#DejaVuSans-31"/>
       <use x="63.623047" xlink:href="#DejaVuSans-35"/>
       <use x="127.246094" xlink:href="#DejaVuSans-30"/>
       <use x="190.869141" xlink:href="#DejaVuSans-30"/>
       <use x="254.492188" xlink:href="#DejaVuSans-30"/>
      </g>
     </g>
    </g>
    <g id="ytick_5">
     <g id="line2d_25">
      <path clip-path="url(#pa238d2b9fa)" d="M 57.6 100.336514 
L 414.72 100.336514 
" style="fill:none;stroke:#b0b0b0;stroke-linecap:square;stroke-width:0.3;"/>
     </g>
     <g id="line2d_26">
      <g>
       <use style="stroke:#000000;stroke-width:0.8;" x="57.6" xlink:href="#m0437e184bc" y="100.336514"/>
      </g>
     </g>
     <g id="text_14">
      <!-- 20000 -->
      <g transform="translate(18.7875 104.135732)scale(0.1 -0.1)">
       <use xlink:href="#DejaVuSans-32"/>
       <use x="63.623047" xlink:href="#DejaVuSans-30"/>
       <use x="127.246094" xlink:href="#DejaVuSans-30"/>
       <use x="190.869141" xlink:href="#DejaVuSans-30"/>
       <use x="254.492188" xlink:href="#DejaVuSans-30"/>
      </g>
     </g>
    </g>
    <g id="ytick_6">
     <g id="line2d_27">
      <path clip-path="url(#pa238d2b9fa)" d="M 57.6 58.971188 
L 414.72 58.971188 
" style="fill:none;stroke:#b0b0b0;stroke-linecap:square;stroke-width:0.3;"/>
     </g>
     <g id="line2d_28">
      <g>
       <use style="stroke:#000000;stroke-width:0.8;" x="57.6" xlink:href="#m0437e184bc" y="58.971188"/>
      </g>
     </g>
     <g id="text_15">
      <!-- 25000 -->
      <g transform="translate(18.7875 62.770406)scale(0.1 -0.1)">
       <use xlink:href="#DejaVuSans-32"/>
       <use x="63.623047" xlink:href="#DejaVuSans-35"/>
       <use x="127.246094" xlink:href="#DejaVuSans-30"/>
       <use x="190.869141" xlink:href="#DejaVuSans-30"/>
       <use x="254.492188" xlink:href="#DejaVuSans-30"/>
      </g>
     </g>
    </g>
   </g>
   <g id="line2d_29">
    <path clip-path="url(#pa238d2b9fa)" d="M 73.832727 265.786 
L 94.94847 265.631175 
L 96.268204 265.488169 
L 98.907672 264.814505 
L 99.567539 264.73532 
L 100.227406 264.376033 
L 101.54714 263.064161 
L 102.207007 262.111577 
L 103.526741 259.236096 
L 104.186608 258.199599 
L 104.846475 256.196335 
L 106.166208 249.958444 
L 107.485942 243.271443 
L 108.145809 240.84389 
L 108.805676 239.325191 
L 110.12541 235.135475 
L 111.445144 230.499013 
L 112.105011 228.221556 
L 112.764878 226.607126 
L 113.424745 225.646269 
L 114.084612 225.188887 
L 114.744479 223.79783 
L 116.064213 222.357135 
L 116.72408 222.117216 
L 117.383947 222.569871 
L 118.703681 223.7281 
L 120.023415 225.901552 
L 120.683282 227.842177 
L 121.343149 231.177404 
L 122.003016 232.894656 
L 122.662882 233.701871 
L 123.322749 236.147152 
L 123.982616 239.371284 
L 124.642483 241.679469 
L 125.30235 243.439268 
L 125.962217 243.809193 
L 126.622084 244.731049 
L 127.281951 245.306617 
L 127.941818 245.168339 
L 128.601685 245.503989 
L 129.261552 246.493211 
L 130.581286 249.410058 
L 131.90102 251.192312 
L 133.220754 252.745285 
L 133.880621 253.994518 
L 134.540488 254.740276 
L 135.200355 255.906778 
L 135.860222 256.678537 
L 136.520089 257.007095 
L 137.839823 257.911223 
L 139.159557 258.467882 
L 140.47929 258.326058 
L 141.799024 258.47261 
L 143.118758 259.117909 
L 143.778625 259.578837 
L 145.098359 260.136678 
L 145.758226 260.168588 
L 147.737827 260.585787 
L 148.397694 261.050261 
L 149.717428 261.42964 
L 151.697029 261.831474 
L 152.356896 262.045392 
L 153.016763 261.911841 
L 153.67663 262.008754 
L 154.996364 262.011118 
L 156.975965 262.885699 
L 158.295698 262.896336 
L 159.615432 263.01925 
L 160.935166 262.687146 
L 161.595033 262.661145 
L 162.2549 262.956611 
L 162.914767 263.058252 
L 165.554235 262.940065 
L 167.533836 261.29018 
L 168.193703 261.02426 
L 168.85357 260.927346 
L 169.513437 260.662608 
L 170.173304 260.651972 
L 170.833171 261.215722 
L 171.493038 261.286634 
L 172.152905 261.703833 
L 172.812772 261.934297 
L 176.112106 262.32904 
L 176.771973 262.507502 
L 178.751574 262.732057 
L 180.731175 262.902245 
L 184.03051 262.840788 
L 186.010111 262.475592 
L 187.329845 262.229763 
L 189.969313 261.653013 
L 190.62918 261.319726 
L 191.948914 261.15781 
L 192.60878 261.072716 
L 193.928514 260.547967 
L 195.248248 260.225318 
L 196.567982 260.091767 
L 197.887716 259.54929 
L 198.547583 259.304644 
L 199.20745 258.93472 
L 201.187051 258.641617 
L 203.826519 257.094554 
L 204.486386 256.657263 
L 205.146253 256.605261 
L 205.80612 256.400798 
L 207.125854 255.467123 
L 209.765322 254.538176 
L 210.425188 254.4519 
L 215.704124 255.66095 
L 217.023858 256.084058 
L 217.683725 256.108877 
L 218.343592 255.982417 
L 219.003459 255.656222 
L 219.663326 255.608947 
L 220.323193 255.348937 
L 220.98306 255.272115 
L 221.642927 254.877372 
L 222.962661 254.605543 
L 224.942262 254.161161 
L 225.602129 253.42604 
L 226.261996 252.901291 
L 226.921863 252.003073 
L 227.581729 251.38732 
L 228.241596 251.191131 
L 228.901463 251.272679 
L 229.56133 251.065853 
L 230.221197 251.292771 
L 231.540931 251.22895 
L 232.200798 251.044579 
L 232.860665 250.580106 
L 234.180399 250.168816 
L 234.840266 249.748072 
L 237.479734 247.313427 
L 238.139601 246.983686 
L 238.799468 246.286385 
L 239.459335 244.609316 
L 240.779069 240.47042 
L 241.438936 237.947135 
L 242.098803 236.254702 
L 242.75867 234.927466 
L 244.078404 230.720022 
L 244.738271 227.456888 
L 246.058004 220.180137 
L 246.717871 217.7384 
L 247.377738 216.075514 
L 248.037605 213.377313 
L 248.697472 208.562389 
L 250.017206 195.394033 
L 251.33694 181.846298 
L 251.996807 177.375297 
L 252.656674 170.815938 
L 254.636275 147.976369 
L 255.296142 141.617927 
L 257.275743 130.724664 
L 257.93561 126.72641 
L 258.595477 124.396951 
L 259.915211 118.99464 
L 260.575078 116.730183 
L 261.234945 117.159201 
L 261.894812 116.333076 
L 262.554678 116.010427 
L 263.874412 112.799296 
L 265.194146 113.197585 
L 266.51388 116.230254 
L 267.173747 115.367491 
L 267.833614 114.172624 
L 268.493481 113.887795 
L 269.153348 112.783931 
L 269.813215 113.991799 
L 270.473082 114.015436 
L 271.132949 113.553326 
L 271.792816 114.645371 
L 272.452683 116.568268 
L 273.11255 117.733588 
L 273.772417 120.265146 
L 274.432284 120.074865 
L 275.092151 120.126868 
L 275.752018 122.218771 
L 276.411885 122.438598 
L 277.071752 121.118454 
L 277.731619 119.117554 
L 278.391486 116.615542 
L 279.051353 115.712596 
L 279.71122 113.992981 
L 281.030953 106.06502 
L 283.010554 89.431432 
L 283.670421 83.613103 
L 284.990155 77.858595 
L 286.309889 68.645946 
L 287.629623 62.184682 
L 288.28949 60.894084 
L 289.609224 57.708954 
L 290.269091 55.270764 
L 290.928958 52.154182 
L 291.588825 64.943159 
L 292.248692 84.562142 
L 292.908559 96.573451 
L 294.228293 106.892327 
L 294.88816 108.575305 
L 295.548027 112.002718 
L 296.207894 113.841702 
L 296.867761 117.286842 
L 297.527627 119.12819 
L 298.187494 120.29942 
L 298.847361 122.030854 
L 299.507228 122.223499 
L 300.167095 125.902649 
L 300.826962 118.203971 
L 301.486829 101.321008 
L 302.146696 93.441505 
L 302.806563 93.846885 
L 303.46643 94.702556 
L 304.126297 100.357787 
L 304.786164 104.938702 
L 306.105898 119.023004 
L 306.765765 122.859343 
L 307.425632 125.064706 
L 309.405233 140.544793 
L 310.724967 148.746946 
L 312.704568 155.667956 
L 313.364435 159.189918 
L 314.684169 167.601261 
L 315.344035 170.495652 
L 316.003902 172.42564 
L 317.323636 174.43245 
L 317.983503 178.184876 
L 318.64337 181.034356 
L 319.303237 183.223172 
L 319.963104 186.240477 
L 320.622971 188.087735 
L 321.282838 189.406698 
L 321.942705 191.378051 
L 323.262439 198.918359 
L 323.922306 201.464099 
L 324.582173 203.223898 
L 325.24204 206.490577 
L 325.901907 205.714091 
L 327.221641 205.288619 
L 327.881508 205.593541 
L 328.541375 205.740092 
L 329.201242 205.513174 
L 329.861109 202.94616 
L 330.520976 203.780558 
L 331.180843 203.773466 
L 331.84071 202.649511 
L 332.500576 201.130813 
L 333.82031 199.469109 
L 334.480177 199.613296 
L 335.140044 199.127549 
L 335.799911 198.787172 
L 336.459778 197.888953 
L 337.119645 197.872407 
L 338.439379 197.363023 
L 339.099246 196.627902 
L 339.759113 196.735452 
L 340.41898 196.549899 
L 341.078847 195.884508 
L 342.398581 189.145505 
L 343.058448 185.768913 
L 343.718315 183.175898 
L 344.378182 181.400734 
L 345.038049 179.083094 
L 347.01765 164.596957 
L 348.337384 157.582579 
L 348.997251 156.282526 
L 349.657118 153.780515 
L 350.976851 144.324401 
L 352.296585 133.101398 
L 352.956452 130.098275 
L 353.616319 128.15765 
L 354.276186 125.707641 
L 354.936053 124.666417 
L 355.59592 123.056715 
L 356.255787 123.613374 
L 357.575521 135.016021 
L 358.235388 135.538406 
L 358.895255 140.197324 
L 359.555122 150.685207 
L 360.214989 151.006674 
L 360.874856 145.899829 
L 362.19459 127.914186 
L 362.854457 125.906195 
L 363.514324 119.917677 
L 364.174191 101.907214 
L 364.834058 96.165707 
L 365.493925 96.987104 
L 366.153792 97.297935 
L 366.813659 97.741135 
L 367.473525 97.776591 
L 368.133392 97.536672 
L 368.793259 96.092431 
L 369.453126 95.058298 
L 370.112993 94.572551 
L 370.77286 94.650554 
L 371.432727 94.268811 
L 372.752461 94.52764 
L 373.412328 97.737589 
L 374.732062 107.737361 
L 375.391929 112.217817 
L 376.051796 115.694868 
L 376.711663 118.131877 
L 377.37153 121.748388 
L 379.351131 136.720273 
L 380.010998 141.086087 
L 380.670865 144.688416 
L 381.330732 146.268572 
L 381.990599 148.314383 
L 383.310333 158.525709 
L 384.630067 176.660268 
L 385.289933 180.736525 
L 385.9498 181.972758 
L 386.609667 184.503134 
L 387.929401 195.825414 
L 388.589268 197.299202 
L 389.249135 197.365386 
L 389.909002 200.627338 
L 390.568869 203.318448 
L 391.228736 207.434889 
L 391.888603 217.724218 
L 392.54847 222.705785 
L 393.208337 224.583771 
L 394.528071 229.980173 
L 395.187938 230.458829 
L 395.847805 229.723708 
L 396.507672 228.024184 
L 397.167539 231.163222 
L 398.487273 239.992946 
L 398.487273 239.992946 
" style="fill:none;stroke:#ff9d2e;stroke-linecap:square;stroke-opacity:0.85;stroke-width:0.8;"/>
   </g>
   <g id="line2d_30">
    <path clip-path="url(#pa238d2b9fa)" d="M 73.832727 265.797818 
L 104.186608 265.698541 
L 106.826075 265.49526 
L 110.12541 264.977603 
L 116.72408 263.143346 
L 120.023415 263.182348 
L 120.683282 263.287534 
L 121.343149 263.507361 
L 123.322749 263.734279 
L 125.962217 264.211753 
L 127.281951 264.360669 
L 128.601685 264.47531 
L 130.581286 264.788504 
L 133.220754 265.093426 
L 135.860222 265.32389 
L 156.316098 265.738725 
L 220.323193 265.754089 
L 225.602129 265.722179 
L 244.738271 265.414893 
L 249.357339 265.041424 
L 251.33694 264.705774 
L 252.656674 264.439854 
L 254.636275 264.106567 
L 260.575078 263.578273 
L 262.554678 263.533362 
L 266.51388 262.693055 
L 268.493481 262.20849 
L 269.153348 262.080848 
L 270.473082 262.043028 
L 273.11255 261.856294 
L 274.432284 261.663649 
L 275.752018 261.532462 
L 279.051353 260.628334 
L 279.71122 260.591696 
L 282.350687 259.77739 
L 286.969756 258.406425 
L 290.269091 257.983317 
L 290.928958 257.759944 
L 292.248692 258.894536 
L 292.908559 259.117909 
L 294.88816 259.116727 
L 296.867761 259.127364 
L 298.187494 259.166365 
L 298.847361 259.30228 
L 299.507228 259.552836 
L 300.167095 259.974762 
L 300.826962 259.684023 
L 301.486829 259.09309 
L 302.806563 259.17582 
L 304.126297 259.563473 
L 304.786164 259.510289 
L 308.745366 260.098858 
L 311.384834 260.961621 
L 313.364435 261.435549 
L 318.64337 262.774604 
L 319.303237 262.82306 
L 319.963104 263.026341 
L 322.602572 263.397447 
L 324.582173 263.773281 
L 325.901907 263.856012 
L 329.201242 264.085294 
L 331.84071 264.199935 
L 338.439379 264.621861 
L 342.398581 264.567495 
L 344.378182 264.540312 
L 349.657118 264.338213 
L 356.915654 264.033292 
L 360.874856 264.140841 
L 363.514324 264.036837 
L 365.493925 264.036837 
L 374.072195 264.302757 
L 376.051796 264.527312 
L 378.031397 264.660863 
L 383.9702 265.167883 
L 385.9498 265.269524 
L 390.568869 265.511806 
L 393.868204 265.664267 
L 398.487273 265.768272 
L 398.487273 265.768272 
" style="fill:none;stroke:#ff2e5f;stroke-linecap:square;stroke-opacity:0.75;stroke-width:0.8;"/>
   </g>
   <g id="patch_3">
    <path d="M 57.6 276.48 
L 57.6 41.472 
" style="fill:none;stroke:#000000;stroke-linecap:square;stroke-linejoin:miter;stroke-width:0.8;"/>
   </g>
   <g id="patch_4">
    <path d="M 414.72 276.48 
L 414.72 41.472 
" style="fill:none;stroke:#000000;stroke-linecap:square;stroke-linejoin:miter;stroke-width:0.8;"/>
   </g>
   <g id="patch_5">
    <path d="M 57.6 276.48 
L 414.72 276.48 
" style="fill:none;stroke:#000000;stroke-linecap:square;stroke-linejoin:miter;stroke-width:0.8;"/>
   </g>
   <g id="patch_6">
    <path d="M 57.6 41.472 
L 414.72 41.472 
" style="fill:none;stroke:#000000;stroke-linecap:square;stroke-linejoin:miter;stroke-width:0.8;"/>
   </g>
   <g id="text_16">
    <!-- Corona-related Cases and Deaths -->
    <g transform="translate(152.146719 35.472)scale(0.1 -0.1)">
     <defs>
      <path d="M 4122 4306 
L 4122 3641 
Q 3803 3938 3442 4084 
Q 3081 4231 2675 4231 
Q 1875 4231 1450 3742 
Q 1025 3253 1025 2328 
Q 1025 1406 1450 917 
Q 1875 428 2675 428 
Q 3081 428 3442 575 
Q 3803 722 4122 1019 
L 4122 359 
Q 3791 134 3420 21 
Q 3050 -91 2638 -91 
Q 1578 -91 968 557 
Q 359 1206 359 2328 
Q 359 3453 968 4101 
Q 1578 4750 2638 4750 
Q 3056 4750 3426 4639 
Q 3797 4528 4122 4306 
z
" id="DejaVuSans-43" transform="scale(0.015625)"/>
      <path d="M 1959 3097 
Q 1497 3097 1228 2736 
Q 959 2375 959 1747 
Q 959 1119 1226 758 
Q 1494 397 1959 397 
Q 2419 397 2687 759 
Q 2956 1122 2956 1747 
Q 2956 2369 2687 2733 
Q 2419 3097 1959 3097 
z
M 1959 3584 
Q 2709 3584 3137 3096 
Q 3566 2609 3566 1747 
Q 3566 888 3137 398 
Q 2709 -91 1959 -91 
Q 1206 -91 779 398 
Q 353 888 353 1747 
Q 353 2609 779 3096 
Q 1206 3584 1959 3584 
z
" id="DejaVuSans-6f" transform="scale(0.015625)"/>
      <path d="M 2631 2963 
Q 2534 3019 2420 3045 
Q 2306 3072 2169 3072 
Q 1681 3072 1420 2755 
Q 1159 2438 1159 1844 
L 1159 0 
L 581 0 
L 581 3500 
L 1159 3500 
L 1159 2956 
Q 1341 3275 1631 3429 
Q 1922 3584 2338 3584 
Q 2397 3584 2469 3576 
Q 2541 3569 2628 3553 
L 2631 2963 
z
" id="DejaVuSans-72" transform="scale(0.015625)"/>
      <path d="M 3513 2113 
L 3513 0 
L 2938 0 
L 2938 2094 
Q 2938 2591 2744 2837 
Q 2550 3084 2163 3084 
Q 1697 3084 1428 2787 
Q 1159 2491 1159 1978 
L 1159 0 
L 581 0 
L 581 3500 
L 1159 3500 
L 1159 2956 
Q 1366 3272 1645 3428 
Q 1925 3584 2291 3584 
Q 2894 3584 3203 3211 
Q 3513 2838 3513 2113 
z
" id="DejaVuSans-6e" transform="scale(0.015625)"/>
      <path d="M 603 4863 
L 1178 4863 
L 1178 0 
L 603 0 
L 603 4863 
z
" id="DejaVuSans-6c" transform="scale(0.015625)"/>
      <path d="M 2906 2969 
L 2906 4863 
L 3481 4863 
L 3481 0 
L 2906 0 
L 2906 525 
Q 2725 213 2448 61 
Q 2172 -91 1784 -91 
Q 1150 -91 751 415 
Q 353 922 353 1747 
Q 353 2572 751 3078 
Q 1150 3584 1784 3584 
Q 2172 3584 2448 3432 
Q 2725 3281 2906 2969 
z
M 947 1747 
Q 947 1113 1208 752 
Q 1469 391 1925 391 
Q 2381 391 2643 752 
Q 2906 1113 2906 1747 
Q 2906 2381 2643 2742 
Q 2381 3103 1925 3103 
Q 1469 3103 1208 2742 
Q 947 2381 947 1747 
z
" id="DejaVuSans-64" transform="scale(0.015625)"/>
      <path id="DejaVuSans-20" transform="scale(0.015625)"/>
      <path d="M 2834 3397 
L 2834 2853 
Q 2591 2978 2328 3040 
Q 2066 3103 1784 3103 
Q 1356 3103 1142 2972 
Q 928 2841 928 2578 
Q 928 2378 1081 2264 
Q 1234 2150 1697 2047 
L 1894 2003 
Q 2506 1872 2764 1633 
Q 3022 1394 3022 966 
Q 3022 478 2636 193 
Q 2250 -91 1575 -91 
Q 1294 -91 989 -36 
Q 684 19 347 128 
L 347 722 
Q 666 556 975 473 
Q 1284 391 1588 391 
Q 1994 391 2212 530 
Q 2431 669 2431 922 
Q 2431 1156 2273 1281 
Q 2116 1406 1581 1522 
L 1381 1569 
Q 847 1681 609 1914 
Q 372 2147 372 2553 
Q 372 3047 722 3315 
Q 1072 3584 1716 3584 
Q 2034 3584 2315 3537 
Q 2597 3491 2834 3397 
z
" id="DejaVuSans-73" transform="scale(0.015625)"/>
      <path d="M 3513 2113 
L 3513 0 
L 2938 0 
L 2938 2094 
Q 2938 2591 2744 2837 
Q 2550 3084 2163 3084 
Q 1697 3084 1428 2787 
Q 1159 2491 1159 1978 
L 1159 0 
L 581 0 
L 581 4863 
L 1159 4863 
L 1159 2956 
Q 1366 3272 1645 3428 
Q 1925 3584 2291 3584 
Q 2894 3584 3203 3211 
Q 3513 2838 3513 2113 
z
" id="DejaVuSans-68" transform="scale(0.015625)"/>
     </defs>
     <use xlink:href="#DejaVuSans-43"/>
     <use x="69.824219" xlink:href="#DejaVuSans-6f"/>
     <use x="131.005859" xlink:href="#DejaVuSans-72"/>
     <use x="169.869141" xlink:href="#DejaVuSans-6f"/>
     <use x="231.050781" xlink:href="#DejaVuSans-6e"/>
     <use x="294.429688" xlink:href="#DejaVuSans-61"/>
     <use x="355.708984" xlink:href="#DejaVuSans-2d"/>
     <use x="391.792969" xlink:href="#DejaVuSans-72"/>
     <use x="430.65625" xlink:href="#DejaVuSans-65"/>
     <use x="492.179688" xlink:href="#DejaVuSans-6c"/>
     <use x="519.962891" xlink:href="#DejaVuSans-61"/>
     <use x="581.242188" xlink:href="#DejaVuSans-74"/>
     <use x="620.451172" xlink:href="#DejaVuSans-65"/>
     <use x="681.974609" xlink:href="#DejaVuSans-64"/>
     <use x="745.451172" xlink:href="#DejaVuSans-20"/>
     <use x="777.238281" xlink:href="#DejaVuSans-43"/>
     <use x="847.0625" xlink:href="#DejaVuSans-61"/>
     <use x="908.341797" xlink:href="#DejaVuSans-73"/>
     <use x="960.441406" xlink:href="#DejaVuSans-65"/>
     <use x="1021.964844" xlink:href="#DejaVuSans-73"/>
     <use x="1074.064453" xlink:href="#DejaVuSans-20"/>
     <use x="1105.851562" xlink:href="#DejaVuSans-61"/>
     <use x="1167.130859" xlink:href="#DejaVuSans-6e"/>
     <use x="1230.509766" xlink:href="#DejaVuSans-64"/>
     <use x="1293.986328" xlink:href="#DejaVuSans-20"/>
     <use x="1325.773438" xlink:href="#DejaVuSans-44"/>
     <use x="1402.775391" xlink:href="#DejaVuSans-65"/>
     <use x="1464.298828" xlink:href="#DejaVuSans-61"/>
     <use x="1525.578125" xlink:href="#DejaVuSans-74"/>
     <use x="1564.787109" xlink:href="#DejaVuSans-68"/>
     <use x="1628.166016" xlink:href="#DejaVuSans-73"/>
    </g>
   </g>
   <g id="legend_1">
    <g id="patch_7">
     <path d="M 341.623125 78.82825 
L 407.72 78.82825 
Q 409.72 78.82825 409.72 76.82825 
L 409.72 48.472 
Q 409.72 46.472 407.72 46.472 
L 341.623125 46.472 
Q 339.623125 46.472 339.623125 48.472 
L 339.623125 76.82825 
Q 339.623125 78.82825 341.623125 78.82825 
z
" style="fill:#ffffff;opacity:0.8;stroke:#cccccc;stroke-linejoin:miter;"/>
    </g>
    <g id="line2d_31">
     <path d="M 343.623125 54.570437 
L 363.623125 54.570437 
" style="fill:none;stroke:#ff9d2e;stroke-linecap:square;stroke-opacity:0.85;stroke-width:0.8;"/>
    </g>
    <g id="line2d_32"/>
    <g id="text_17">
     <!-- cases -->
     <g transform="translate(371.623125 58.070437)scale(0.1 -0.1)">
      <defs>
       <path d="M 3122 3366 
L 3122 2828 
Q 2878 2963 2633 3030 
Q 2388 3097 2138 3097 
Q 1578 3097 1268 2742 
Q 959 2388 959 1747 
Q 959 1106 1268 751 
Q 1578 397 2138 397 
Q 2388 397 2633 464 
Q 2878 531 3122 666 
L 3122 134 
Q 2881 22 2623 -34 
Q 2366 -91 2075 -91 
Q 1284 -91 818 406 
Q 353 903 353 1747 
Q 353 2603 823 3093 
Q 1294 3584 2113 3584 
Q 2378 3584 2631 3529 
Q 2884 3475 3122 3366 
z
" id="DejaVuSans-63" transform="scale(0.015625)"/>
      </defs>
      <use xlink:href="#DejaVuSans-63"/>
      <use x="54.980469" xlink:href="#DejaVuSans-61"/>
      <use x="116.259766" xlink:href="#DejaVuSans-73"/>
      <use x="168.359375" xlink:href="#DejaVuSans-65"/>
      <use x="229.882812" xlink:href="#DejaVuSans-73"/>
     </g>
    </g>
    <g id="line2d_33">
     <path d="M 343.623125 69.248562 
L 363.623125 69.248562 
" style="fill:none;stroke:#ff2e5f;stroke-linecap:square;stroke-opacity:0.75;stroke-width:0.8;"/>
    </g>
    <g id="line2d_34"/>
    <g id="text_18">
     <!-- deaths -->
     <g transform="translate(371.623125 72.748562)scale(0.1 -0.1)">
      <use xlink:href="#DejaVuSans-64"/>
      <use x="63.476562" xlink:href="#DejaVuSans-65"/>
      <use x="125" xlink:href="#DejaVuSans-61"/>
      <use x="186.279297" xlink:href="#DejaVuSans-74"/>
      <use x="225.488281" xlink:href="#DejaVuSans-68"/>
      <use x="288.867188" xlink:href="#DejaVuSans-73"/>
     </g>
    </g>
   </g>
  </g>
 </g>
 <defs>
  <clipPath id="pa238d2b9fa">
   <rect height="235.008" width="357.12" x="57.6" y="41.472"/>
  </clipPath>
 </defs>
</svg>
